<?xml version="1.0" encoding="utf-8"?>
<!-- Generator: Adobe Illustrator 24.0.2, SVG Export Plug-In . SVG Version: 6.00 Build 0)  -->
<svg version="1.1" id="CSGO" xmlns="http://www.w3.org/2000/svg" xmlns:xlink="http://www.w3.org/1999/xlink" x="0px" y="0px"
	 viewBox="0 0 383.7 523.8" style="enable-background:new 0 0 383.7 523.8;" xml:space="preserve">
<style type="text/css">
	.st0{fill:#F99615;stroke:#000000;stroke-miterlimit:10;}
	.st1{fill:none;}
	.st2{fill:none;stroke:#FFFFFF;stroke-miterlimit:10;}
	.st3{fill:#E2201B;}
	.st4{fill:#FFFFFF;}
</style>
<rect id="Select" x="1" class="st0" width="384" height="523.8"/>
<g id="Character">
	<path class="st1" d="M7.3,483.2c3-17.8,7.6-29.8,13.7-46.8c-6.5-0.7-6.2-10.3-3.9-16.4c5.5-14.8,10.9-29.6,17.8-43.8
		c4.2-8.6,8.8-17.1,11.8-26.2c3.2-9.8,4.3-20.1,4.8-30.4c0.9-17.3,0.1-34.7-2.2-51.9c-0.5-3.7-1-7.5,0.3-11c1.1-2.8,3.3-5,4.9-7.6
		c9.6-15.6-6.8-38.7,4.3-53.3c-6.3,0.4-8.8-7.9-9.2-14.2c-1.2-17.2-0.3-38.2,14.9-46.3c1.7-0.7,3.2-1.6,4.7-2.7
		c5.2-4.4,2.9-12.7,1.5-19.4C65.2,87.3,81.8,62,107.7,56.6c5.2-1.1,10.5-1.3,15.8-0.6c-2.8-17.4-3.9-38.8,10.6-48.7
		c4.8-3.2,10.5-4.6,16.3-5.2c11.5-1.1,23.7,1.1,32.8,8.3s14.4,19.7,10.9,30.7c-3.6,11.6-15.6,20.4-15.1,32.5c0,1.5,0.4,3,1.2,4.3
		c2.1,3.2,6.7,3.2,10.5,3c36.3-2.4,72.8-1.5,109,2.7"/>
	<path d="M8.7,483.6c2.8-16.2,8.1-31.4,13.7-46.8c0.2-0.8-0.3-1.6-1.1-1.8c-8.4-1.6-2.6-15.2-0.9-19.9c3.4-9,6.8-18,10.6-26.9
		c6.9-16,16.4-31,19.7-48.3c3.3-17.9,3.1-36.9,1.8-54.9c-0.3-4.5-0.8-9-1.3-13.4c-0.6-4.6-1.9-9.7-0.3-14.2c1.2-3.4,4.1-5.9,5.7-9.2
		c1.2-2.5,1.9-5.1,2.2-7.9c1.7-14.2-7.9-31,1.1-43.8c0.4-0.7,0.2-1.7-0.6-2.1c-0.2-0.1-0.5-0.2-0.7-0.2c-8.3-0.2-7.9-13.7-8-19.4
		c-0.2-7.1,0.1-14.4,2.1-21.3c2-7.1,5.8-13.3,12.4-16.9c5.6-3.1,8.8-6,8.6-12.8c-0.2-7.5-3-14.6-2.6-22.2c0.4-8.7,3.2-17,8.1-24.2
		c9.7-14.4,27.2-21.6,44.3-19.7c1.1,0.1,1.6-1,1.5-1.9c-2.5-15.9-4.7-39.3,12.2-48.3c18.1-9.7,47.3-2.8,54.8,17.4
		c3.7,9.9,0.6,18.6-4.9,27c-4,6.1-8.9,12.3-9.4,19.9c-0.5,7.1,3.6,10.8,10.5,10.9c11.2,0.2,22.6-1.2,33.8-1.4c26-0.3,52,1,77.8,4
		c1.9,0.2,1.9-2.8,0-3c-24.9-2.9-49.9-4.2-74.9-4c-12,0.1-24.1,1.6-36,1.4c-16.1-0.3-4-18.9,0.5-25.6c4.6-7,8.3-14.1,7.4-22.7
		c-1.1-8.6-5.5-16.5-12.3-21.8c-13.4-10.6-37.9-13.1-52-2.5c-15,11.2-12.8,33.4-10.3,49.7l1.4-1.9c-27.4-3-52.1,16.8-55.2,44.2
		c0,0.4-0.1,0.8-0.1,1.2c-0.6,7.1,1.2,13.5,2.2,20.5c0.7,4.6,0.6,9.2-3.8,12c-2.3,1.5-4.9,2.5-7,4.3c-9.1,7.5-11.5,20-11.9,31.2
		c-0.3,8.4-1.7,29.1,11,29.4l-1.3-2.3c-8.2,11.6-2,26.2-1.4,39c0.3,3.4-0.1,6.9-1,10.2c-1.4,4.3-4.6,7.2-6.5,11.1
		c-3.5,7.5,0,18,0.7,25.9c1.7,20.1,2.4,41.7-2.1,61.5c-2.3,9.9-6.7,19-11.2,28c-4.4,8.8-8.3,17.8-11.9,26.9
		c-2.1,5.3-4.1,10.6-6.1,15.9c-1.5,4-3.2,7.8-3.6,12c-0.6,5.1,0.5,11.3,6.3,12.4l-1-1.9C14,451.4,8.6,466.7,5.8,482.8
		C5.5,484.7,8.4,485.5,8.7,483.6L8.7,483.6z"/>
	<path class="st1" d="M300.2,83.8l30.5,3.1c1.7,0.1,3.5,0.4,5.1,1c1.8,0.9,3.4,2,4.9,3.2c4.7,3.3,10.5,4.7,16.2,4
		c1.6-0.1,3.2-0.6,4.5-1.5c2.5-1.8,3.3-5.1,4.9-7.8s5.2-4.9,7.6-3c2.6,3.6-2.2,10.6,1.9,12.4c1.3,0.6,2.8,0.2,4.2,0.3
		s2.9,1.5,2.2,2.7c-0.3,0.4-0.7,0.7-1.1,0.8c-12.1,5.9-26.4,1.7-39.8,0.2c-9.4-1-18.8-0.7-28.2-0.3c-1.1-0.1-2.2,0.2-3.2,0.9
		c-0.7,0.7-1.1,1.7-1.3,2.7c-1.6,6.2-3.8,12.5-8.3,17.1c-4.2,4.3-9.9,6.6-15.4,8.9l-13.9,5.7c-2.1,0.8-4.5,2.3-4.2,4.5
		c0.2,1.6,1.9,2.7,1.9,4.3c-0.1,1-0.5,1.9-1.2,2.6l-8.9,11.5c-0.5,0.7-1.3,1.4-2.1,1.2c-0.6-0.2-0.9-0.9-1.2-1.4
		c-1.7-2.7-5.8-2.9-8.7-1.5s-5.1,3.9-7.6,5.9c-10.8,8.4-26.9,5.6-38.6-1.5c-4.1-2.5-8.3-5.6-13.2-5.7s-10,4.6-8.1,9.1
		c4.3,1.3,7.3,5.1,8.8,9.3s1.5,8.7,1.6,13.1l0.3,20.1c0.1,7,0.2,14.4-3.1,20.6s-11.2,10.6-17.6,7.6c-2.9,7.3,1.4,15.4,6.6,21.3
		s11.6,11.3,13.7,18.9"/>
	<path d="M300.2,85.3l26.6,2.7c5.4,0.6,8.7,1.5,13.1,4.4c2.7,1.8,5.7,3.1,8.9,3.8c5.2,1.1,12,1.2,15.5-3.4c1.5-2,3-8.1,5.6-8.6
		c0.9-0.2,3,1.5,3.2,2.1s-0.2,1.8-0.3,2.4c-0.2,1.2-0.4,2.4-0.4,3.6c0,1.4,0.6,2.8,1.7,3.7c0.8,0.6,1.7,0.9,2.7,1
		c2.5,0.6,4.6,0.4,0.6,1.8c-8.3,2.9-17.3,1.6-25.8,0.3c-8.2-1.3-16.4-2-24.6-2.2c-4.1,0-8.2,0.1-12.2,0.3c-2.1,0.1-4.6-0.1-6.3,1.5
		c-1.9,1.9-2.1,5.4-2.9,7.8c-1.5,4.5-3.6,9-7.2,12.3c-6.4,6-15.8,8.6-23.7,11.8c-3.7,1.5-10.9,3.4-9.5,8.8c0.8,2.8,2.4,1.6-0.3,6.3
		c-1,1.5-2.1,3-3.4,4.3c-1,1.3-2.5,4.1-3.9,5c-1.8,1.2-1,0.5-2.6-0.6c-4.2-2.9-8.6-1.8-12.5,1.1c-2.9,2.1-5.2,4.8-8.4,6.4
		c-3.8,1.9-8.1,2.8-12.4,2.7c-7.8-0.1-15.2-2.9-21.8-6.9c-5-3-10.9-7.1-16.9-4.8c-3.5,1.3-8.9,6.9-5.7,10.9c0.7,0.9,2.2,1,3.1,1.6
		c2.5,1.7,4.4,4.3,5.4,7.2c1.7,4.6,1.5,9.7,1.6,14.6c0.2,9.3,1,18.9,0.1,28.1c-0.9,9.1-7.6,21.2-18.5,16.9c-0.8-0.2-1.7,0.3-1.9,1.1
		c-5.8,17.4,15.7,26.7,20.3,41c0.6,1.9,3.6,1.1,3-0.8c-4.3-13.5-25.6-23.6-20.3-39.3l-1.9,1.1c13,5.1,21.4-9,22.4-19.9
		c0.8-8.7,0.1-17.6-0.1-26.3c-0.1-7.2,0.3-15.3-3.9-21.6c-0.9-1.4-2-2.6-3.2-3.6c-0.7-0.6-2.5-1.2-3-1.9c-1.9-2.6,1.7-5.6,4-6.3
		c3-1,6.3,0.4,9,1.8c6.6,3.4,12.3,7.5,19.8,9.2c6.4,1.5,13.2,1.6,19.4-0.7c2.7-1,5.3-2.5,7.6-4.4c1.7-1.6,3.4-3,5.3-4.4
		c1.2-0.9,2.7-1.4,4.2-1.5c2.3,0,2.8,1.1,4.3,2.5c4.4,4.2,8.5-4.4,10.8-7.5c1.6-2.1,4.9-4.9,5-7.8c-0.1-0.7-0.2-1.4-0.5-2.1
		c-0.7-4.6,1.5-5.4,5.2-6.9c7.5-3.1,15.8-5.6,22.5-10.2c5.8-4,9.2-9.9,11.4-16.4c0.9-2.7,0.9-5.9,4.3-7c1.8-0.6,4.8-0.2,6.6-0.2
		c4.7-0.1,9.4-0.2,14.1,0c8.8,0.4,17.4,2.3,26.2,3.1c6.9,0.6,15.8,0.9,21.9-2.9c3.9-2.4,1.3-5.4-1.9-6.5c-3.7-1.3-4.5-0.9-4-5
		c0.2-1.2,0.3-2.5,0.3-3.8c-0.2-2-0.9-3.8-3-4.5c-8.2-2.4-9.1,10.8-15.1,12.6c-4.9,1.4-11-0.2-15.3-2.7c-3.6-2.1-6-4.4-10.2-5.1
		c-10.6-1.8-21.7-2.2-32.4-3.3C298.2,82.1,298.2,85.2,300.2,85.3L300.2,85.3z"/>
	<path class="st1" d="M189,273.8l7.6,19.3c1.2,3.2,2.5,6.3,4.1,9.4c1.2,2.3,2.6,4.5,3.6,7c2.3,5.7,2.4,12.5,6.6,17
		c1,1.1,2.3,2,3.2,3.2c1.9,2.4,2.2,5.6,2.5,8.7c1.1,12.9,2.1,25.8,1,38.6s-4.5,25.8-4.2,38.9c0.1,3.2,0.4,6.5-0.2,9.7
		c-0.9,4.9-3.9,9.8-2.1,14.4"/>
	<path d="M187.4,274.2c2.8,7.2,5.6,14.5,8.5,21.7c2.4,6,6.1,11.4,7.9,17.6c1.6,5.8,2.8,10.5,6.9,15.1c3.3,3.7,3.9,6.9,4.4,11.6
		c0.3,3.9,0.6,7.7,0.9,11.6c1,16-0.9,31.1-3.1,46.9c-0.8,7-1.2,14-1.1,21c0,7-4.3,13.8-2.4,20.6c0.2,0.9,1.1,1.4,2,1.1
		c0.9-0.2,1.4-1.1,1.1-2l0,0c-1.2-4.3,0.7-7.9,1.7-12c0.7-3.5,0.9-7.2,0.7-10.8c-0.2-8,0.8-15.8,2-23.7c2.4-14.9,3.1-30.1,2-45.1
		c-0.4-5.5,0.1-12.8-2.7-17.9c-1.5-2.7-4.2-4.3-5.8-6.9c-1.8-2.9-2.3-6.5-3.2-9.7c-1.7-6.3-5.3-11.6-7.8-17.6
		c-3.1-7.5-5.9-15-8.8-22.5C189.7,271.4,186.6,272.2,187.4,274.2L187.4,274.2z"/>
	<path class="st1" d="M211.1,440.3c0,8.6,1.7,17.2,5,25.2c0.9,2.4,2.2,4.7,3.8,6.7c2,2.1,4.4,3.9,7,5.1c7.6,4,15.9,7,22,13"/>
	<path d="M209.7,440.3c0.2,10.6,1.9,24.7,9.2,32.9c3.4,3.9,8.5,6,13.1,8.2c5.7,2.8,11.3,5.5,16,9.9c1.4,1.3,3.4-0.8,2-2
		c-7.3-6.7-16.6-9.4-24.9-14.6c-10.4-6.6-12.4-23.1-12.6-34.3C212.6,438.4,209.6,438.4,209.7,440.3L209.7,440.3z"/>
	<path d="M46.3,482.4c-1-6.8-2.3-13.8-1.4-20.6c1-7.9,5.2-14.2,10-20.4c8.5-10.8,14.5-24.7,17.9-37.9c0.8-3.1,1.3-6.3,1.4-9.6
		c0.1-3.9-0.9-7.7-0.5-11.6c0.8-7.6,7-13,11.7-18.6c7.4-8.7,11.6-19.3,15.2-30c4.5-13.5,8.5-27.5,18.7-38l-2.5-1.5
		c-0.9,3.4,0.1,7,2.8,9.3c1.2,1,2.6,1.7,4.1,1.9c2.4,0.4,4.5-0.4,6.7,1.6c1.1,1,2.1,3.1,2.9,4.5c7.1,12,14.5,24.1,22.9,35.2
		c0.9,1.5,2.2,2.7,3.7,3.6c2.1,1.1,4.5,0.5,6.7,1.2c8,2.5,2.6,15.9,2,22c-1.6,14.4,0.6,28.9,2.2,43.2c0.2,1.9,3.3,2,3,0
		c-1.6-13.7-3.6-27.5-2.4-41.3c0.7-7.2,7.3-24.7-4.4-27.4c-0.9-0.2-1.6-0.1-2.5-0.2c-2.7-0.4-4.4-0.9-6.1-3.2
		c-2.1-2.8-3.9-5.7-5.9-8.5c-3.9-5.7-7.6-11.5-11.2-17.4c-2.8-4.5-5.2-10.8-9.3-14.3s-14.6-0.4-12.4-9.4c0.2-0.8-0.3-1.7-1.1-1.9
		c-0.5-0.1-1,0-1.4,0.4c-18.4,18.9-17,48.2-33.9,68c-4,4.7-8.7,9-11.1,14.7c-2.8,6.4-0.6,12.7-1.1,19.4c-0.7,8.9-4.7,17.6-8.1,25.8
		c-3.2,7.4-7.4,14.3-12.5,20.5c-4.4,5.7-7.7,12-8.7,19.3s0.4,14.7,1.5,21.9C43.6,485.2,46.6,484.3,46.3,482.4L46.3,482.4z"/>
	<path d="M170.6,418.7c0.2,4.5,1.6,8.8,4,12.5c1.1,1.7,1.9,2.6,1.8,4.9c-0.1,1.3-0.4,2.6-0.5,3.9c-0.2,3.4-0.3,6.9-0.2,10.3
		c0.1,7.1,0.1,13.9-1.5,20.8c-1.4,6.2-3.1,12.1-2.8,18.6c0.1,2.4,3.8,2.4,3.7,0c-0.4-7,1.9-13.5,3.3-20.3c1.2-6,1.2-12,1.1-18.1
		c-0.1-3.1-0.1-6.2,0-9.4c0.2-2.8,1.3-6.3,0.6-9.1c-0.4-1.6-1.4-2.4-2.4-3.7c-2.5-3.2-3.1-6.4-3.4-10.4
		C174,416.3,170.3,416.3,170.6,418.7L170.6,418.7z"/>
	<path class="st1" d="M250,116.2c4-2.2,8.7-2.7,12.8-4.6c0.3-0.1,0.5-0.2,0.7-0.4c0.1-0.2,0.2-0.3,0.2-0.5c0.6-1.7,0.9-3.5,0.9-5.4
		c0-0.2,0-0.5-0.1-0.7c-0.1-0.3-0.3-0.5-0.5-0.6c-1.7-1.3-3.9-1.3-6-1.3l-11.3-0.1c-0.3,0-0.7,0.1-0.9,0.3c-0.2,0.3-0.3,0.6-0.3,0.9
		c0,4.2,2.4,8.1,4.7,11.6"/>
	<path d="M250.9,117.7c3.2-1.7,6.7-2.3,10.1-3.5c1.9-0.7,3.5-1.2,4.4-3.1c2.3-4.6,1.1-9.1-4.1-10c-2.9-0.6-6.1-0.2-9.1-0.3
		c-2,0-6.2-0.9-7.8,0.7c-3.4,3.4,2.4,11.8,4.2,14.6c1.2,1.9,4.3,0.1,3-1.8c-1.9-2.9-5.4-7.4-4.3-11.2l-1.2,1.2
		c2.7-0.7,6.2-0.2,9-0.1c3.1,0,7.8-0.9,7.5,3.4c-0.2,3.3-4.1,3.6-6.8,4.3c-2.3,0.6-4.6,1.5-6.8,2.6
		C247.1,115.7,248.9,118.7,250.9,117.7L250.9,117.7z"/>
	<path class="st2" d="M223.4,127.3l7-2.8c0.2-0.1,0.3-0.2,0.5-0.3c0.1-0.2,0.1-0.4,0.1-0.6c-0.4-1.7-0.9-3.4-1.5-5
		c-0.8-2.6-0.9-5.5-2.2-7.9c0.1,1.7-0.1,3.4-0.4,5c0,0.3-0.1,0.5-0.3,0.7c-0.4,0.3-1,0.2-1.3-0.3c-0.3-0.4-0.4-0.9-0.3-1.4
		c0-0.5,0-1-0.2-1.4c-0.4-0.7-1-1.1-1.7-1.3c-0.7-0.2-1.4-0.4-2.1-0.8c-1.1-0.9-1.7-2.3-1.6-3.8c0.1-1.4,0-2.8-0.3-4.2
		c-0.1-0.3-0.2-0.5-0.4-0.8c-0.3-0.2-0.6-0.3-1-0.4c-1.2-0.2-2.4-0.2-3.5-0.1c-0.1,0-0.2,0-0.3,0.1c-0.1,0.1-0.1,0.2-0.1,0.4
		c0.1,2.3,1.1,4.6,0.1,6.6c-0.3,0.5-0.7,1-1.1,1.4c-0.6,0.6-1.1,1.3-1.5,1.9c-0.8,1.7-1.4,3.5-1.5,5.4l-0.5,3.9
		c-0.2,0.7-0.2,1.5,0,2.2c0.5,1.4,2,2,3.3,2.5l4.5,1.6c0.7,0.3,1.5,0.5,2.3,0.6c1.8,0.2,3.5-0.6,5.1-1.4"/>
	<path d="M223.8,128.8c2.5-1,8-1.7,8.6-4.8c0.4-1.9-1.3-4.7-1.8-6.5c-0.5-2.5-1.2-5-2.2-7.5c-0.6-1.4-2.8-0.6-2.8,0.8
		c0,0.2-0.1,2.7,0.4,2.7c0,0-0.1-0.7-0.2-0.8c-0.8-0.6-1.5-1.2-2.3-1.8c-1.2-0.9-2.1-2-2.9-3.3c-0.3-0.8,0.1-2.1-0.1-3
		c0-1-0.4-2-1-2.8c-1.2-1.2-4.8-1.7-6.3-1c-1.9,1-1,2.1-1.1,4c-0.2,4.5-3.5,8.3-4.2,12.8c-0.4,2.5-1.5,5.9,0.2,8.2s5.1,2.8,7.4,3.6
		c3.6,1.2,5.9,0.9,9.3-0.7c1.7-0.8,0.2-3.4-1.5-2.6c-5.4,2.5-12.9,0-12.7-6.7c0.1-3.7,1.8-5.7,3.5-8.6c0.6-0.9,1-1.9,1.2-3
		c0.1-0.8-0.5-3.7,0.1-4.1c1.3-0.9,2.4,6.5,2.9,7.5c1.1,1.9,3.6,1.9,4.7,3.8c0.7,1.2,0.1,2.4,1.7,3.1c3.9,1.6,3.6-5.3,3.6-7.2
		l-2.8,0.8c1.2,3,2.1,6,2.7,9.2c0.3,1.4,0.8,1.8-0.3,3.1c-0.7,0.8-4.3,1.7-5.3,2.1C221.3,126.6,222,129.5,223.8,128.8L223.8,128.8z"
		/>
	<path class="st3" d="M7.3,483.9"/>
	<path d="M7.3,486.6c3.4,0,3.4-5.3,0-5.3S3.9,486.6,7.3,486.6z"/>
	<path d="M319.1,92.7l-0.7-1.9c-0.2-0.6-1.1-0.3-0.9,0.3l0.7,1.9C318.4,93.6,319.3,93.3,319.1,92.7z"/>
	<path d="M317.9,91.5c4.9-0.7,9.7,0.7,14.6,0.6c0.3,0,0.5-0.3,0.5-0.6c0-0.3-0.2-0.5-0.5-0.5c-4.9,0.1-9.7-1.3-14.6-0.6
		C317.2,90.4,317.2,91.6,317.9,91.5z"/>
	<path class="st4" d="M332.7,91.5c0.6,0.3,0.5,1.2,0,1.6c-0.5,0.3-1.2,0.5-1.8,0.4c-4-0.1-8-0.4-12-0.7"/>
	<path d="M332.3,91.9c0.9,1-3.6,0.9-3.6,0.9c-1.1,0-2.2-0.1-3.3-0.2c-2.2-0.1-4.4-0.3-6.6-0.4c-0.8,0-0.8,1.2,0,1.2
		c2.4,0.2,4.7,0.3,7.1,0.5c1.9,0.3,3.8,0.3,5.7,0.2c1.6-0.3,2.6-1.6,1.4-3C332.6,90.5,331.8,91.3,332.3,91.9L332.3,91.9z"/>
	<path d="M171.4,490.4c-1.2,7.7,4,14.7,10.8,17.8c8.1,3.7,17.6,3.3,26.3,3.5c9.7,0.3,19.4,0.3,29.1,0c4.8-0.1,9.7-0.3,14.5-0.7
		c4-0.3,8.1-1.1,10.7-4.4c6.5-8.6-7.8-15.9-14.2-18c-2.3-0.7-3.2,2.8-1,3.5c3.5,1.1,6.7,2.8,9.5,5.1c2.3,1.9,5,4.4,2.6,7.3
		c-2.2,2.7-6.3,2.7-9.5,2.9c-4.3,0.3-8.6,0.5-12.9,0.6c-8.5,0.3-17.1,0.2-25.6,0.1c-4.2-0.1-8.3-0.2-12.5-0.4
		c-3.8-0.1-7.6-0.5-11.3-1.4c-6.5-1.7-14.2-7.3-13-15c0.2-1-0.3-2-1.3-2.3C172.7,488.9,171.7,489.5,171.4,490.4L171.4,490.4z"/>
	<path d="M43.4,484.8c3.6,7,6,14.5,7,22.3c0.4,3.3,0.9,7-2,9.4c-2.2,1.8-5.3,2.5-8.1,2.8c-8.3,1.2-16.7,1.3-25.1,0.3
		c-2-0.2-4.1-0.5-6.1-0.9c-1.6-0.2-3.1-1.1-3.8-2.6c-1.6-3.6-2.2-7.6-1.6-11.5c0.4-2.3,0.9-4.6,1.6-6.8c0.4-1.9,1-3.7,1.7-5.5
		c0.5-1.1,1.3-2.1,1.8-3.3c0.7-1.6,1-3.4,1-5.2c0-2.4-3.6-2.4-3.7,0c0.1,1.4-0.2,2.9-0.8,4.1c-0.6,1.2-1.3,2.3-1.8,3.5
		c-0.7,1.9-1.3,3.9-1.8,5.8c-0.7,2.2-1.2,4.4-1.5,6.6c-0.6,4.4-0.1,8.8,1.5,12.9c0.7,1.9,2,3.5,3.8,4.5c1.9,0.8,3.9,1.3,5.9,1.4
		c9.3,1.4,18.8,1.5,28.2,0.3c3.4-0.4,6.9-1.1,9.9-2.9c3.2-1.9,5.1-5.5,4.9-9.2c-0.2-4.9-1-9.7-2.4-14.4c-1.3-4.8-3.2-9.4-5.5-13.8
		C45.5,480.8,42.3,482.6,43.4,484.8L43.4,484.8z"/>
</g>
</svg>
