<?xml version="1.0" encoding="utf-8"?>
<!-- Generator: Adobe Illustrator 24.0.2, SVG Export Plug-In . SVG Version: 6.00 Build 0)  -->
<svg version="1.1" id="Discord" xmlns="http://www.w3.org/2000/svg" xmlns:xlink="http://www.w3.org/1999/xlink" x="0px" y="0px"
	 viewBox="0 0 280.1 208.5" style="enable-background:new 0 0 280.1 208.5;" xml:space="preserve">
<style type="text/css">
	.st0{fill:#7D7DD8;}
	.st1{fill:#FFFFFF;}
</style>
<path id="Purple" class="st0" d="M235.2,148.9c-15.5,13.5-30.8,16.6-50,22c-14.2,4-28.4,4.1-43.1,3.9c-7.7-0.1-15.4-0.3-23.1-0.9
	C96.9,172,75.2,167,54.5,159c9.2,3.1,19.2,6.2,30,8.9c10,2.5,19.5,4.5,28.5,6c0.8,1.2,7.2,9.8,3.5,18.3c-2.8,6.4-8.8,10.8-15.4,13
	s-13.7,2.4-20.6,2c-18.8-0.9-37.2-5.2-54.4-12.8c-9.6-4.2-19.6-10.3-22.7-20.3c-0.9-3.3-1.3-6.6-1.4-10C0.7,142-0.1,119.5,5.4,98
	c9.6-37.5,38-70.7,70.4-89.7c4.3-2.3,8.9-3.9,13.7-4.8c5.4-0.9,32.8-3.8,33.4,1.6c0.6,5.9-22,13-27.5,15.3
	c-5.1,2.2-12.4,5.4-16.8,11.9l2.5-1.7c5.1-1.6,32-9.8,54.3-10.4c7.1-0.2,13,0.2,13,0.2c8.3,0.5,16.5,1.5,24.6,3
	c2.5,0.4,5.1,0.7,11.9,2.2c6.1,1.3,15.8,2.8,20.9,6.7c-5-6.5-8.5-7.5-13.3-9.7c-5-2.3-31.6-13.1-31.1-18.8
	c0.5-5.3,28.3-1.4,33.3-0.5c4,0.7,10.5,3.8,13.5,5.7c32.1,19.9,57.7,52,66.8,90c5.1,21,4.3,43,3.2,64.6c0,3.3-0.5,6.6-1.3,9.8
	c-2.9,9.7-12,15.7-20.9,19.8c-15.8,7.3-32.8,11.6-50.2,12.4c-6.4,0.3-13,0.2-19.1-2s-11.7-6.5-14.3-12.7s-1.8-13.7,3.3-17.9
	c12-1.7,23.7-5,34.8-9.9C219.2,159.3,227.5,154.5,235.2,148.9z"/>
<path id="Outline" d="M234.5,148.1c-8.2,6.9-17.6,12.1-27.8,15.4c-4.9,1.6-9.9,3-14.9,4.4c-5.8,1.7-11.7,3.1-17.6,4.2
	c-12.9,2.1-26.2,1.7-39.2,1.4c-13-0.3-26-1.5-38.8-3.8c-14.1-2.6-28-6.5-41.4-11.7l-0.6,2c19,6.5,38.6,11.5,58.4,14.9l-0.6-0.5
	c3.3,4.7,5.8,10.7,3.8,16.4c-2.5,7.5-10.3,12.2-17.5,14.1c-8.8,2.3-18.2,1.5-27.1,0.6c-9.1-1-18.2-2.8-27-5.4
	c-8.3-2.3-16.4-5.5-24-9.6c-6.3-3.5-12.6-8.3-15.3-15.2c-1.6-4.2-1.7-8.8-1.9-13.2c-0.2-4.8-0.5-9.5-0.6-14.3
	c-0.3-9.3-0.1-18.7,0.6-28C4.3,102.9,9,86.5,16.7,71.5C24,57.6,33.3,44.9,44.5,33.9c5.4-5.5,11.3-10.5,17.4-15.1
	c3.1-2.3,6.2-4.5,9.4-6.5c3-2.1,6.2-3.8,9.5-5.2c4.7-1.8,9.7-2.8,14.8-3.3c5.1-0.6,10.3-0.8,15.5-0.8c2.3,0,4.5,0.1,6.8,0.5
	c1.2,0.2,3,0.5,3.8,1.4c0.1,0.1,0.2,0.3,0.1,0.2c0,0.3,0,0.6-0.1,0.8c-0.3,0.7-0.8,1.2-1.3,1.7c-1.7,1.5-3.7,2.7-5.7,3.7
	c-9.5,4.9-20.4,7-29.3,13c-3,2-5.6,4.5-7.7,7.4c-0.6,0.9,0.6,2,1.5,1.5c0.8-0.6,1.7-1.2,2.6-1.7c0.4-0.2,0.8-0.3,1.3-0.4
	c1.1-0.3,2.2-0.7,3.2-1c3.3-1,6.7-1.9,10-2.7c9.2-2.4,18.6-4.2,28-5.4c8.4-1,16.9-1.2,25.4-0.6c9.3,0.7,18.5,1.9,27.6,3.6
	c4.8,0.8,9.5,1.8,14.2,2.9s9.9,2.2,13.9,5.2c1.1,0.8,2-0.8,1.3-1.7c-2.3-3.2-5.3-5.8-8.8-7.7c-2.1-1.1-4.4-2-6.5-2.9
	c-4.9-2.1-9.8-4.3-14.6-6.7c-2.7-1.3-5.3-2.7-7.9-4.3c-2-1.1-3.9-2.6-5.5-4.3c-0.4-0.4-0.7-1-0.9-1.5c-0.1-0.3,0-0.5,0.4-0.7
	c1.4-1,3.6-1,5.3-1.1c5.7-0.2,11.4,0.1,17.1,0.8c4.9,0.6,9.7,1,14.3,2.9c7.5,3,14.3,7.8,20.6,12.7c6.8,5.2,13.2,11,19,17.2
	c11.7,12.4,21.1,26.8,27.8,42.5c3.5,8.2,6.2,16.8,7.9,25.5c2,10.4,3,21,3,31.6c0.1,10.5-0.1,21.2-1,31.7c-0.3,4.6-1.8,9-4.5,12.8
	c-2.6,3.3-5.7,6-9.3,8.2c-8.1,5.1-17.4,8.5-26.5,11.1c-9.9,2.9-20.2,4.7-30.6,5.2c-9.4,0.5-19.7-0.1-27.2-6.6
	c-6-5.2-9.4-14.9-4.4-21.9c0.5-0.8,1.1-1.5,1.9-2c0.9-0.2,1.8-0.4,2.7-0.4c1.9-0.3,3.9-0.7,5.8-1.1c4.4-0.9,8.8-2.1,13.1-3.4
	c9.6-3.1,18.8-7.2,27.4-12.4c3.6-2.1,7-4.4,10.3-6.8c1.1-0.8,0-2.7-1.1-1.9c-15.9,11.6-34.3,19.6-53.7,23.2l-3,0.5
	c-0.9,0-1.9,0.2-2.7,0.5c-1.6,0.8-2.9,3.1-3.6,4.6c-1.6,3.6-2,7.6-1.1,11.5c1.9,8.6,9.5,14.7,17.7,17c5.1,1.3,10.4,1.9,15.6,1.6
	c5.3-0.2,10.5-0.7,15.7-1.5c10.6-1.6,21-4.5,30.9-8.5c8.1-3.3,16.7-7.3,22.5-14.1c2.9-3.3,4.8-7.3,5.6-11.6c1-5.3,0.9-10.9,1.1-16.3
	c0.9-21.4,0.6-43.1-5.8-63.8c-5.3-17.1-13.8-33-24.9-47c-11-13.9-24.3-25.7-39.3-35.2c-5.4-3.5-11.4-5.9-17.8-6.9
	c-5.7-0.9-11.4-1.4-17.1-1.7c-2.8-0.2-5.6-0.1-8.3,0.2c-1.8,0.2-4,0.4-5.3,1.7c-3.2,3,2.4,7,4.5,8.5c9.2,6.4,20,10,30.1,14.8
	c3.6,1.8,6.8,4.5,9.2,7.7l1.3-1.7c-3.5-2.6-8-3.9-12.2-4.9c-4.5-1.1-9-2-13.6-2.9c-8.8-1.7-17.8-3.1-26.7-3.9
	c-8.7-0.8-17.4-0.9-26.1-0.1c-9.9,1-19.6,2.7-29.2,5.1c-4,1-8.1,2-12.1,3.2c-1.3,0.4-2.7,0.8-4,1.2c-0.4,0.1-0.9,0.3-1.3,0.4
	C80,30,78.9,30.6,78,31.3l1.5,1.5c4.3-6.1,11.3-9.6,18.1-12.2c5.6-2.1,11.3-4.1,16.7-6.8c2.6-1.2,5-2.6,7.2-4.4
	c1.3-1.1,2.8-2.9,2.3-4.8c-0.4-1.6-2.1-2.4-3.5-2.8c-2.4-0.6-4.8-0.9-7.2-0.9c-6-0.1-11.9,0.1-17.8,0.8C89,2.1,83,3.7,77.3,6.2
	c-3.8,1.9-7.4,4.1-10.8,6.6c-3.6,2.5-7.1,5.1-10.5,7.8c-7.1,5.7-13.6,12-19.6,18.7c-12,13.3-21.5,28.8-28,45.6
	c-7.4,19.6-8.8,40.5-8.3,61.2c0.1,5.5,0.4,10.9,0.7,16.4c0.3,4.9,0.4,9.9,2.5,14.4c3.4,7.7,10.8,12.8,18.1,16.5
	c9.1,4.5,18.7,7.9,28.5,10.3c10.3,2.6,20.8,4.1,31.3,4.6c9.6,0.4,19.9-0.3,28.1-6c3.5-2.3,6.3-5.6,8.1-9.4c1.7-3.9,1.8-8.2,0.4-12.2
	c-0.8-2.6-2.1-5.1-3.7-7.3c-0.6-0.7-1.3-0.7-2.1-0.9L108,172c-2.5-0.5-5.1-1-7.6-1.5c-10.7-2.2-21.2-4.9-31.7-8
	c-4.7-1.4-9.3-2.9-13.9-4.5c-1.3-0.4-1.8,1.6-0.6,2.1c24.4,9.4,50.2,14.6,76.3,15.5c13.3,0.5,26.8,0.9,40-0.7
	c6.3-0.9,12.4-2.2,18.5-3.9c5.2-1.4,10.4-2.8,15.6-4.5c11.5-3.6,22.1-8.9,31.3-16.8C237,148.7,235.5,147.2,234.5,148.1z"/>
<g id="Holes">
	<path class="st1" d="M105.6,82.1c-10.3,0-18.6,9.1-21.7,20c-2.6,8.9-0.3,19.8,6.7,25s17,3.4,24.2-1.8c5.6-4,9.7-9.9,11.5-16.5
		c1.8-6.8,0.9-14.6-3.1-20.2S112,82,105.6,82.1"/>
	<path d="M105.6,80.5C95.6,80.6,87.8,88.4,84,97c-3.9,8.9-4,20.1,2.3,28c6.9,8.7,19.1,8,27.8,2.5c9.1-5.8,15.3-16.5,14.6-27.4
		c-0.4-5.8-2.5-12.1-7.3-15.7C116.9,81,111,80.4,105.6,80.5c-0.9,0-1.6,0.7-1.6,1.5c0,0.9,0.7,1.6,1.6,1.6c4.2-0.1,8.7,0.2,12.5,2.3
		c4.1,2.3,6.2,6.8,7.1,11.2c2,9.8-2.5,19.6-10,25.8c-6.7,5.6-17.7,8.5-24.8,2c-6.3-5.8-7.3-15.8-4.7-23.5c2.9-8.7,10-17.7,19.9-17.7
		c0.9,0,1.6-0.7,1.6-1.6C107.1,81.2,106.4,80.5,105.6,80.5L105.6,80.5z"/>
	<path class="st1" d="M178.3,82.1c-10.3,0-18.6,9.1-21.7,20c-2.6,8.9-0.3,19.8,6.7,25s17,3.4,24.2-1.8c5.6-4,9.6-9.9,11.5-16.5
		c1.8-6.8,0.9-14.6-3.1-20.2S184.7,82,178.3,82.1"/>
	<path d="M178.3,80.6c-10,0.1-17.8,7.8-21.6,16.5c-3.9,8.9-4,20.1,2.3,28c6.9,8.7,19.1,8.1,27.8,2.5c9.1-5.8,15.3-16.5,14.6-27.4
		c-0.4-5.8-2.5-12.1-7.3-15.7C189.7,81.1,183.7,80.5,178.3,80.6c-0.9,0-1.6,0.7-1.6,1.6c0,0.9,0.7,1.6,1.6,1.6
		c4.2-0.1,8.7,0.2,12.5,2.3c4.1,2.3,6.2,6.8,7.1,11.2c2,9.8-2.5,19.6-10,25.8c-6.7,5.6-17.6,8.5-24.8,2c-6.3-5.8-7.3-15.8-4.7-23.5
		c2.9-8.7,10-17.7,19.9-17.7c0.9,0,1.6-0.7,1.6-1.6C179.8,81.3,179.2,80.6,178.3,80.6L178.3,80.6z"/>
</g>
</svg>
