<?xml version="1.0" encoding="utf-8"?>
<!-- Generator: Adobe Illustrator 24.0.2, SVG Export Plug-In . SVG Version: 6.00 Build 0)  -->
<svg version="1.1" id="Halo" xmlns="http://www.w3.org/2000/svg" xmlns:xlink="http://www.w3.org/1999/xlink" x="0px" y="0px"
	 viewBox="0 0 565.9 525.1" style="enable-background:new 0 0 565.9 525.1;" xml:space="preserve">
<style type="text/css">
	.st0{stroke:#000000;stroke-width:2;stroke-miterlimit:10;}
	.st1{fill:#FFFFFF;stroke:#000000;stroke-width:2;stroke-miterlimit:10;}
</style>
<g id="Black">
	<path class="st0" d="M179.3,369.4c1.4,1.7,2.7,3.4,3.8,5.2c1.4,2.6,3.6,3.4,6.8,3.7c9.8,0.9,19.1-1,26.7-5.7
		c5.1-3.1,8.6-8.4,12-13.1c2-2.8,2.5-6.3,3.5-9.6c0.3-1.4,0-2.9-0.7-4.2c-1.6,1.7-2.9,3.7-4.8,5.1c-3.5,2.6-7.4,5-11.2,7.3
		c-0.9,0.5-2,0.7-3,0.6c-1-0.3-1.9-0.7-2.7-1.3c0.6-0.7,1-1.9,1.8-2.1c3.2-0.8,5.4-2.3,6.3-5c0.2-0.9,0.3-1.9,0.3-2.8
		c-1.2,0-2.4-0.1-3.5,0c-1,0.2-1.9,0.4-2.9,0.8c0.4-1.9,0.7-3.3,1.1-5.2c-1.6,0.6-3,1.2-4.5,1.7c-3,1-3.7,0.6-3.8-2.2
		c0-3.2,0.4-6.5-1.9-9l-4,3.2c-0.7-1.4-1.5-2.9-2.2-4.3c-0.3-0.5-0.1-1.5-0.5-1.6c-3.7-1.3-1.8-3.7-1.7-5.7s1.3-2.7,3.4-1.6
		c8,3.9,16.1,7.5,23.9,11.7c6.3,3.4,12.1,7.4,18.2,11.1c3,1.8,6.2,1,9.3-0.1c1-0.4,2-0.9,3.2-1.5c0.3,0.6,0.6,1.2,0.9,1.8
		c1.4,4.6,1.5,4.8,6.6,3.6c11.8-2.8,24.1-3,36-0.6c2,0.4,4.1,0.4,6.2,0.7c2.7,0.4,4.4-0.4,5.1-2.8c0.5-1.6,1.6-1.8,3.4-1.1
		c4.2,1.5,7.8,0.9,11.6-1.6c11.5-7.5,23.4-14.5,36.6-19.7c3-1.1,5.5-3,8.5-4.4c-1,2.7-0.4,5.9-4.1,7.7c-0.9,0.4-0.8,2.3-1,3.5
		c-0.8,4.9-0.8,4.9-6.5,3.8c-0.4-0.1-0.9-0.1-1.3-0.1c-0.2,2.1,0.4,4.7-0.8,6s-4.3,1-7,1.5c-0.1,1.1,0.5,3-0.4,4
		c-0.7,0.9-3,0.8-4.8,1.2c-0.1,2.1,2.2,5.6,4.8,6.7c0.8,0.2,1.5,0.5,2.2,0.9c0.6,0.7,1.1,1.5,1.5,2.3c-1,0.4-2.2,1.2-2.9,1
		c-3.2-1-6.7-1.9-9.4-3.6c-3.8-2.3-6.9-5.4-10.5-8.2c0.1,1,0.2,1.9,0.4,2.9c1.9,6.8,5.6,13,10.5,18c9.2,9.3,21,11.5,34.2,10.4
		c5.6-0.5,9.3-6.1,6.8-10.5c-1.9-3.3-0.5-5.7,1.7-8.1c1.2-1.3,2.6-2.5,3.9-3.8c2.9-2.8,4.4-5.9,4.1-9.7c-0.2-2.8,0.6-5.6,1-9.2
		c5.1,7.7,4.4,13-1.7,18.7c-1.1,1-2.3,2-3.3,3.1c-2.3,2.6-4.4,5.1-2.4,8.9c0.9,1.7,0.2,4.3-0.4,6.4s-0.6,3.4,1.1,4.9
		c6.5,5.6,13,11.2,19.5,16.8c2,1.7,4.7,2.4,7.2,1.9c2.6-0.3,5.3,0.2,7.9,0.4c0.2,0.4,0.3,0.7,0.5,1.1c-1.5,1.9-2.9,3.9-4.7,5.7
		c-10.9,11.3-21.9,22.5-32.9,33.7c-6,6.1-12.4,12-18.4,18.1c-10.2,10.4-20.3,20.8-30.2,31.3c-2.2,2.3-4.3,3.7-7.8,3.3
		c-1.5-0.1-3,0-4.5,0.1c-3,0.2-5.9-1.1-7.9-3.4c-4.3-4.6-9.3-8.8-13.9-13.2c-1-1-1.6-2.2-1.7-3.6c-0.7-10.2-1.2-20.3-1.9-30.5
		c-0.6-8.1-1.9-9.1-11.3-8.9c-4,0.1-8.1,0.3-12.1,0.5c-3.2,0.2-4.6,1.7-4.6,4.5c0.1,10.5,0.1,21,0.2,31.4c0.2,3.1-1.3,6.1-3.9,7.7
		c-4.8,3.5-9.5,7.1-12.7,12c-0.9,1.4-3.6,2.1-5.7,2.8c-1.1,0.4-2.5,0.1-3.8,0.2c-4.5,0.2-8.1-0.7-11-4.1c-4.1-4.9-8.9-9.4-13.4-14
		c-10.3-10.6-20.5-21.3-30.8-31.9c-5.5-5.6-11.4-10.9-16.8-16.5c-7.1-7.3-13.9-14.7-20.9-22.1c-0.4-0.5-0.7-1-1-1.5
		c-1.7-3.2-0.9-4.1,3.1-4c1.7,0.1,3.5,0.1,5.2,0.1c3,0.1,6-1.2,7.9-3.5c3.7-3.8,7.6-7.5,11.7-10.9c3.5-3,6-6.3,4.7-10.8
		C179.1,370.9,179.1,370.1,179.3,369.4z M304.4,376.1c-0.5,0.1-0.8,0.1-0.9,0.2c-0.4,0.4-0.7,0.8-1,1.2c-5.4,7.6-5.1,15.6-2.5,23.8
		c1.5,4.7,3.4,9-1.6,13.1c-0.7,0.8-1.1,1.7-1.3,2.7c-0.5,1.6,0,3,2.1,3.5c8,1.9,13.4,6.6,18.2,12.1c4.3,5,8.8,5.8,15.5,3.5
		c4.7-1.6,9-4.2,12.5-7.8c2.4-2.5,3.5-5.1,2.8-8.5c-1.4-8-1.2-16.2,0.6-24.1c0.7-4.2,1-8.6,0.9-12.9c0-2.3-1.8-3.5-4.6-4
		c-3.4-0.7-6.6-2-10.3-3.2c-0.5,0.5-1.5,2.2-3,2.5s-3.4-0.6-5.3-1c-0.5,2-1,3.9-1.7,5.8c-1.4,3.4-4.2,1.6-7.3,0.7
		c-1.5,4.8-2.9,9.4-4.4,14.6C305.3,391.8,307.1,383.3,304.4,376.1z M235.7,383.7l-3.9-7.2l-4.7,3.5l-4.5-5.4
		c-1.7,2.5-3.5,4.7-7.4,3.6c-0.7,0-1.3,0.2-1.9,0.5c-3.7,1.7-5.2,5.5-3.3,9.8c2.1,4.8,2.4,9.6,2.4,14.6c0,5.9-0.3,11.9,0,17.8
		c0.1,2,0.9,3.9,2.3,5.3c3.5,3.3,7.3,6.1,11.4,8.5c6.7,3.7,13,3.8,18.3-2.7c3.9-4.7,8.4-8.9,15-11.1c4.8-1.6,5.1-2.5,2-6
		c-3.4-3.8-3.3-7.4-1.7-11.8c2.8-7.6,2.9-15.4-1.2-22.8c-0.8-1.4-2.2-2.5-3.8-4.3c-2.4,15.2-4.6,20.1-9.5,21.4
		c-0.2-4.1,1.8-8.7-3.4-11.8c-0.4-0.3-0.3-1.1-0.5-1.7c-0.3-0.8-0.7-1.6-1.1-2.5L235.7,383.7z"/>
	<path class="st0" d="M485.9,320.3c3.3,8.7-2.9,14.5-8.5,20.4S466,352.3,460.1,358c-3.6,3.5-5.4,3.9-9.7,1.1
		c-5.6-3.6-10.8-7.7-16.1-11.6c-9.9-7.4-19.7-14.9-29.4-22.5c-1.9-1.5-3.2-3.6-4.6-5.5c-0.4-0.6-0.6-1.4-0.6-2.2
		c0.5-4.3-0.9-6.7-6-8c-7.2-1.8-14.5-3.2-21.8-4.6c-5.9-1.2-6.5-2.3-4.5-7.2c1.8-4.2,4.5-8,8.1-10.9c3.4-2.7,5.3-7,4.8-11.3
		c-0.4-8.7-2.4-17.2-5.9-25.2c-1.8-3.9-0.4-7,2.8-9.6c14.1-11.6,28.3-23,42.4-34.5c4.8-3.9,9.4-7.9,14.1-11.8
		c0.9-0.6,1.9-1.1,2.9-1.4c0.5,0.9,1.4,1.8,1.5,2.8c2.7,22.4,5.3,44.8,7.8,67.3c0.6,5.6,1.2,11.2,2.1,16.8c0.2,1.3,1,2.5,2,3.3
		c5.5,4,11.3,7.9,16.9,11.8c5.1,3.6,10,7.3,15,10.9c2.9,2.1,4.3,4.8,4,8.1C485.8,315.8,485.9,318,485.9,320.3z"/>
	<path class="st0" d="M78.6,330c0-4.9,0-9.9,0-14.8c-0.1-3.3,1.5-6.5,4.2-8.5c7.8-6,15.5-12.1,23.6-17.8c5.7-4,8.4-8.3,8.8-14.8
		c0.7-14.5,2.6-29,4.1-43.4c1-9.3,2.1-18.5,3.1-27.7c0-0.3,0-0.6,0.1-0.9c1-2,2.1-4,3.2-6c1.8,1.2,3.7,2.3,5.3,3.6
		c13.2,10.8,26.3,21.6,39.5,32.4c2.8,2.3,5.8,4.5,8.7,6.8c5,3.9,5.6,8.1,3,13.5c-3.4,6.6-5,13.9-4.7,21.4c0.3,5.5,2.9,10.7,7.1,14.3
		c3.7,3.4,6.7,7,7.5,11.8c0.6,3.3-0.4,4.8-4.3,5.4c-5.4,0.8-10.8,1.5-16,2.5c-2.5,0.6-4.9,1.6-7.2,2.8c-2.6,1.2-3.9,2.7-3.4,5.7
		c0.6,3.7-2,7-5.1,9.4c-7.1,5.6-14.6,10.9-21.7,16.4c-3.7,2.8-6.9,6.1-10.6,8.9c-4.4,3.3-9.1,6.4-13.6,9.6c-1.7,1.2-3.1,1.1-4.7-0.5
		c-8.6-8.8-17.3-17.5-25.8-26.3c-0.8-1.1-1.5-2.3-2.1-3.5L78.6,330z"/>
	<path class="st0" d="M500.8,61.7c3.8-2.3,7.2-4.5,10.6-6.5c0.6-0.3,1.3-0.9,1.8-0.8c6,1.2,9-3.3,13.3-5.2c7.5-3.3,15-6.6,22.6-9.7
		c1.2-0.4,2.5-0.3,3.6,0.3c0.5,0.3,0.5,1.8,0.3,2.6c-4.1,16-10.3,31.5-20.4,45.4c-8.2,11.4-18,22-27.3,32.8
		c-1.9,2.1-4.9,3.5-7.4,5.2c-0.5,0.3-1,0.8-1.5,1.2c-3.5,3.8-3.5,3.8-9.2,3.4c0.2,0.9,0.3,1.9,0.1,2.9c-0.3,1.1-0.8,2.6-1.7,3
		c-1.6,0.7-3.5,0.9-3.8,2.8l-5.2-0.7c0.3-0.3,0-0.1,0,0c1.9,5.4-2,8.8-5.9,12c-6.6,5.4-13.5,10.5-20.2,15.8
		c-9.2,7.3-18.4,14.7-27.5,22.2c-1.9,1.6-3.5,3.5-5.4,5c-1.5,1.3-3.2,2.3-5.1,2.9c-2.1,0.6-3.6,1.2-4.9,2.8c-0.7,0.9-2.9,1-4.9,1.6
		c0.2,0.7,0.3,1.3,0.3,2c0.1,2.6-2.3,4.1-4.9,3.3c-3.1-0.9-5.3,0.2-5.3,3c0,3.2-2.4,5-5.6,7.2c0-2.1,0.1-3.6,0-5.1
		c-1.2-13,0.1-25.9,1.5-38.8c0.2-3.3,1.9-6.4,4.5-8.4c13.2-10.2,26.3-20.5,39.4-30.8c5.4-4.2,10.4-8.8,15.6-13
		c7.3-5.9,14.8-11.6,22.1-17.5c6.2-5,8.8-11.5,9.9-18.5c0.5-3.2,0.8-6.5,1.1-9.7c0.4-4.2,2.2-7.6,6.9-9.6c1.6-0.6,3.1-1.3,4.5-2.2
		C495.7,60.9,498.5,60.6,500.8,61.7z"/>
	<path class="st0" d="M166.7,216.8c-3.1-2.6-6.1-5.3-9.4-7.8c-7.1-5.5-14.5-10.7-21.5-16.3c-4.1-3.2-7.7-6.9-11.8-10.1
		c-6.5-5.1-13.5-9.9-19.8-15.2c-9.6-7.9-18.3-16.6-28.4-23.9c-4.3-3.1-2.6-4.9-1.3-7.6c0.1-0.2,0-0.6,0-1.1l-5.2,1.6v-0.8
		c-1.6-0.2-3.1-0.5-4.7-0.6c-1.8-0.2-4.1-3.2-4.3-5.6s-0.1-2.3-3.4-2.4l2.2-6.1c-0.8,0-1.6,0.2-2.4,0.4c-3.5,1.9-5.8,0.7-8.2-1.8
		c-9.3-9.8-17.3-20.8-23.6-32.7c-4.6-8.6-7.7-17.7-11.3-26.7c-0.7-2-0.9-4.1-0.7-6.1c0.2-1.1,1-2,2-2.4c1.1-0.1,2.1,0.4,2.8,1.2
		c1.5,3.2,4.3,3.8,7.8,3.2c0.6-0.1,1.2,0,1.7,0.2c11.1,4.6,22.2,9.1,33.2,13.9c2.3,1,4.3,2.1,7.2,2c5.8-0.2,10.3,3.4,10.7,8.5
		c0.7,7.8,1.9,15.5,6.6,22.5c0.6,1,1.3,1.9,2.1,2.7c8.8,7.3,17.4,14.8,26.4,21.8c16.7,13,33.7,25.9,50.7,38.7
		c2.5,1.7,3.9,4.5,3.6,7.5c-0.1,7,0.8,14,1,21c0.2,6,0,12.1-0.1,18.1c-0.1,1.2-0.4,2.5-0.8,3.6L166.7,216.8z"/>
	<path class="st0" d="M351.1,62.4c1,0.4,1.9,0.9,2.8,1.4c10.8,7.3,21.5,14.5,32.2,21.9c8.3,5.8,16.5,11.8,24.8,17.5
		c6.1,4.2,12.3,8.2,18.5,12.3c4.2,2.8,4.5,4.3,0.7,7.6c-6.1,5.4-12.3,10.7-18.6,15.9c-6.6,5.4-13.3,10.6-20,15.9c-1,0.7-2,1.4-3,2
		c-2,1.1-3.6,1-4.8-1.1c-3.5-6.4-8.1-12-13.6-16.7c-1-0.8-1.5-2.1-1.3-3.4c3.1-12.1,0.6-23.5-4.9-34.7c-3.8-7.6-7.5-15.3-11.1-23
		c-1.5-3.2-2.8-6.5-3.8-9.8c-0.4-1.5,0.3-3.2,0.7-4.8C349.8,63.2,350.6,62.9,351.1,62.4z"/>
	<path class="st0" d="M204.8,66.9c-1.3,3.8-2.3,7.7-3.9,11.5c-4.3,9.7-9.2,19.2-13.1,29c-3.9,9.5-4.1,19.3-2.1,29.3
		c0.3,2.1-0.4,4.3-1.9,5.9c-5.1,5.1-10.7,9.8-13.3,16.4c-1.1,2.8-2.6,2.8-5.1,0.8c-9.7-7.7-19.4-15.3-29-23
		c-2.8-2.3-5.6-4.7-8.1-7.3c-3.5-3.5-3.2-5.5,0.8-8.5c8.8-6.5,17.7-13,26.5-19.6c14.3-10.6,28.4-21.4,42.7-32
		c1.8-1.2,3.6-2.2,5.5-3.2L204.8,66.9z"/>
	<path class="st0" d="M311.3,123.8L287.1,137l-1.3-1.3c1-1.2,2.1-2.3,3.3-3.4c4.3-3.1,10.2-4.7,13-9.5c2.4-4.1,2-4.9-3.4-5.1
		c-2.7,0-5.3-0.2-7.9-0.6c-1-0.2-1.7-1.5-2.6-2.3c0.9-0.7,1.8-1.7,2.8-1.9c2.7-0.5,5.5-0.6,8.2-0.8c0.3,0,0.5-0.3,0.9-0.5
		c-0.2-0.4-0.4-0.7-0.7-1c-7.4-6-14.6-12.2-23.8-16.2c-1.4-0.6-3.2-0.7-4.5-1.4c-1-0.7-1.8-1.6-2.5-2.6c1.2-0.5,2.5-1.7,3.5-1.5
		c2.7,0.3,5.3,1.1,7.7,2.4c6.6,4,12.9,8.3,19.3,12.4c1.8,1.2,3.8,2.3,5.9,3c3.9,1.2,6.4-0.3,6.3-3.9c-0.1-2.6-0.6-5.1-1.5-7.5
		c-1.2-3.2-0.5-6.7,1.8-9.2c4.7,5.9,3.6,13,5,20.4c4.9-4.3,8.5-8.2,9.1-13.5c0.9-7.7-1.9-14-9.2-19.1c-7.1-5-6.8-7.1-2.2-14
		c4-6,7.5-12.2,11.3-18.3c0.7-1.1,1.6-2.2,2.4-3.3l1.3,0.3c-0.3,2-0.1,4.3-1,6.1c-2.7,6.1-5.8,12-8.7,18c-1.9,3.9-1.7,4.7,1.9,7.8
		c2.4,1.9,4.7,4,6.8,6.3c5.6,6.6,4,13.4,0.3,20.2c-1,1.9-2.1,4.1-2.1,6.1c0.2,2,1.2,3.8,2.7,5.1c4.8,3.8,10.3,7,15.1,10.7
		c4.5,3.4,8.6,7.2,15,8.1c0.8,0.1,1.5,0.7,3.2,1.5c-6.4,2.8-12.3,1.6-17,1.8c-2-2.4-3.5-4.2-5-5.9c-0.9-1.1-1.7-2.3-2.7-3.4
		c-1.6-2-3.4-3.9-5.4-5.7c-2.4-2-5.3-1.7-7,0.2c-2,2.3-1.6,4.6,1.2,6.4c3.1,1.9,6.1,4,9.4,5.6c2.9,1.4,4.8,4.1,5.2,7.3
		c0.6,3.8,2.9,6.4,6.6,8.3c5.9,3.1,11.9,6.1,17.9,9c4,1.8,5.3,5.1,6.8,8.3c0.4,0.8-0.7,2.2-1.1,3.4c-3.4-3.1-6.2-6.2-9.6-8.6
		c-2.5-1.6-5.4-2.6-8.3-3c-3.4-0.6-6.5-1.4-8.9-3.6c-2.1-1.9-4.2-3.6-6.4-5.4c-2-1.6-3.5-3.3-2.9-6c0-0.9-0.4-1.8-1.1-2.4
		c-4-3.2-8.3-5.7-14.2-5.2c-2.5,0.2-4.1,1.1-4.5,3.3c-1,5.6-1.8,11,3.3,15.9c4.3,4.1,4.1,8.5,0.6,12.4c-0.9,0.8-1.9,1.6-2.9,2.2
		l-0.9-0.4c0.1-0.9,0.3-1.8,0.6-2.6c1.2-2.6,0.2-5.7-2.2-7.2c-11.5-8.4-10.3-12.2-4.2-23c0.5-0.8,1.3-1.5,1.5-2.3
		C311.4,126.6,311.4,125.2,311.3,123.8z"/>
	<path class="st0" d="M226.4,131.5c-0.3,1.7-0.7,3.4-1.3,5c-3.8,7.7-4.5,16.1-4.7,24.1c-0.4,11.8,2.2,23.5,7.5,34.1
		c4.3,8.6,9.8,16.5,16.2,23.7c4.7,5.1,9.7,10,15,14.6c3.5,3.1,4.3,6.3,4,10.7c-0.4,9-0.3,18,0.4,26.9c0.4,6.5,1.7,13,2.6,19.4
		c0.2,0.8,0.3,1.6,0.1,2.3c-0.6,0.9-1.3,1.7-2.1,2.4c-0.7-0.6-1.7-1.1-2-1.8c-1.3-2.9-2.4-5.9-3.3-9c-3.2-11.6-5.9-23.4-5.3-35.4
		c0.2-3.6-0.8-6.4-4.5-8.9c-9.6-6.5-17.9-14.8-24.4-24.4c-7.1-10.8-11-23.3-11.5-36.2c-0.8-15,3.3-29.2,9-43.2
		c0.7-1.7,2.1-3.1,3.1-4.7L226.4,131.5z"/>
	<path class="st0" d="M182.3,360.6c-11.5-6.8-16.1-19.8-11.9-32.4c0.4,0.6,0.8,1.2,1,1.9c0.2,2.2,0.8,4.4,0.4,6.5
		c-1.2,7.1,2.7,12.3,7.9,17.2c1.1,0.9,2,2.1,2.7,3.4C182.8,358.1,182.4,359.3,182.3,360.6z"/>
	<path class="st0" d="M254.1,319.6c-6.2-0.3-12.5-0.4-18.7-1.1c-2.4-0.4-4.6-1.6-6.2-3.3c-5.1-5.7-11.1-10.6-17.7-14.5
		c-4.6-2.7-7.1-6.7-8.8-11.1c-0.4-1.1-0.4-2.4-0.6-4.4c2.6,1.3,4.2,2.3,6,3.1c4.7,2.1,9.9,3.5,14.1,6.2c5.2,3.4,10.3,7.2,14,11.7
		s8.6,7,13.6,9.7c1.6,0.8,3.1,1.8,4.6,2.6L254.1,319.6z"/>
	<path class="st0" d="M357.6,284.2c-0.1,0.8-0.2,1.7-0.5,2.4c-4.4,7-8.9,14-17.8,18c-3.2,1.4-5.5,4.5-7.9,7.1
		c-3.9,4.2-8.2,7.4-14.9,7.5c-3.9,0.1-7.8,0.4-11.8,0.6c-0.9,0-1.7-0.3-2.3-0.9c1.5-0.9,2.8-2.1,4.4-2.6c5.5-1.9,10.4-5.2,14.1-9.7
		c5.7-6.4,11.7-12.5,20.9-15.5c3.7-1.2,7.1-3.4,10.6-5C354,285.3,355.6,284.9,357.6,284.2z"/>
	<path class="st0" d="M532.1,429.8l1.6,0.3c-0.1,1.1-0.3,2.3-0.5,3.4c-2.4,7.9-5,15.8-7.3,23.8c-3.1,10.7-6.1,21.5-9,32.3
		c-0.4,1.5,0,3,1,4.1c5.7,5,11.7,9.8,17.7,14.6c0.6,0.4,1.2,0.7,1.8,0.9c3.1,1.1,4.5,0.6,5.4-2.1c5.5-16.3,11-32.7,16.3-49
		c2.2-6.7,4-13.4,5.6-20.2c0.9-3.8,0-4.9-4.2-6.3c-2.2-0.7-4.4-1.3-6.6-1.7c-7.1-1.5-13.8-4.6-19.5-9.2
		c-10.2-7.6-20.4-15.1-30.7-22.6c-7.6-5.6-15.3-11.1-22.9-16.7c-2.5-1.8-2.5-3.6-0.3-5.8c6.5-6.3,12.7-12.8,19.5-18.9
		c3.4-3.1,4.2-6.2,3.8-10.2c-1.1-11.7-1.9-23.5-2.8-35.2c-0.1-3-0.5-5.9-1.1-8.8c-0.4-1.7-1.4-3.2-2.8-4.2
		c-10-7.3-20.3-14.3-30.3-21.7c-4.6-3.5-5.5-10.1-2-14.7c0.9-1.2,2.2-2.2,3.5-3c5.4-2.9,7-6.3,6.3-11.8c-3.4-23.3-6.2-46.6-9.4-69.8
		c-0.7-5.1,0.8-9.2,5.1-12.9c10.6-9.1,21.6-17.9,31.6-27.5c20.9-19.8,39.6-41,51.5-66c5.6-11.7,9.2-24.3,10.6-37.2
		c0.4-4.1-0.7-4.6-5.1-2.9c-7.3,2.9-14.7,5.6-22.1,8.5C517.8,46.4,499,53.8,480.1,61c-5.5,2.1-7.6,5.1-7.8,10.2
		c-0.4,8.6-2.8,16.9-9.9,23.5c-5,4.7-10.4,9-15.5,13.6c-2.4,2.2-4.8,2-7.4,0.4c-8.4-5.4-16.7-10.9-25-16.3c-9.3-6-18.6-12-27.9-18
		c-6.4-4.1-12.8-8.2-19.1-12.3c-7-4.6-13.7-9.3-20.9-13.7c-2.5-1.4-4.5-3.5-5.8-6c-2.6-5.6-5.3-11.2-8.1-16.7
		c-6.3-12.4-17.3-20-32.7-22.8c-12.3-2.3-24.7-2-37-0.7c-7.4,0.7-14.7,2.2-21.7,4.7c-15.6,5.8-22.5,17.8-27.6,30.7
		c-2.4,6-4.2,11.7-11,16.1c-13.2,8.4-25.4,18-38.1,27.1c-8.8,6.3-17.5,12.6-26.4,18.7c-7.5,5.2-15.2,10.3-22.7,15.5
		c-1.7,1.1-3.1,0.8-4.7-0.3c-15-9.9-23.3-22.7-23.3-39.1c-0.1-1.1-0.6-2.1-1.5-2.7c-2.5-1.5-5.1-2.8-7.8-3.8c-10-3.7-20-7.4-30-10.9
		C34.1,53,20,48,5.9,43c-4.4-1.5-5.3-0.7-4.7,3.4c2.4,16.4,8.8,31.8,18,46.2c10.9,16.8,23.8,32.2,38.4,45.9
		C68.4,148.8,78.8,159.6,92,168c2.2,1.3,3.4,3.7,3,6.2c-1.1,10.5-1.9,21.1-3,31.6c-1.5,14.2-3.1,28.3-4.8,42.5
		c-0.4,3.6,0.4,6.6,3.8,9c1.3,1,2.6,2,3.9,2.9c5.7,4.3,5.7,13.9,0.1,18.3c-3.2,2.4-6.4,4.8-9.6,7.2c-5.1,3.9-10.3,7.6-15.1,11.7
		c-3,2.6-6.5,5.2-6.7,9.4c-0.6,13.5-1.3,27.1-1.8,40.6c0,1.6,0.6,3.1,1.7,4.3c3.9,4.3,8.1,8.4,12,12.7c3.2,3.5,6.2,7.1,9.3,10.7
		c1.6,1.8,1.1,3.7-0.6,5.1c-4.1,3.5-8.3,6.9-12.6,10.2c-9.1,7-18.1,14-27.3,21c-9.9,7.5-19.1,16-33.3,18.1c-4.3,0.6-4.6,1.6-3.6,5.3
		c3.6,13.2,7.2,26.4,11.1,39.5c3,9.8,6.5,19.6,10.1,29.3c1.6,4.3,3.6,4.5,7.4,1.4c4.4-3.5,8.8-7,13.3-10.2c3.8-2.7,5.2-6,3.9-10
		c-4.4-13.4-8.9-26.8-13.3-40.2c-1.3-4.1-2.6-8.2-3.6-12.4c-0.4-1.7-0.8-3.8,2.3-5.1c6.2,19.2,11.7,38.3,19.8,57
		c1.7-1.9,3.2-4,4.3-6.3c5.5-10.6,12.4-20.3,22-28.5c4.9-4.2,9.6-8.5,14.3-12.9c6.5-6,12.7-12.3,19.3-18.1c5.3-4.7,6.5-4.3,11.5,0.8
		c14.3,14.9,28.7,29.7,43.2,44.5c10,10.2,20.1,20.4,30.3,30.5c9.1,9.1,18.1,18.2,27.4,27.2c1.6,1.6,3.6,2.5,5.8,2.8
		c8.1,0.3,16.2,0,24.3,0c2.8,0,3.7-1.1,4-3.4c0.7-4.5,1.7-9,3.1-13.3c0.7-1.9,2.9-3.5,4.3-5.2c1.1-1.4,2.8-2.9,2.8-4.4
		c0.4-13,0.4-26.1,0.5-39.1c0.1-6.1,0-12.3,0.4-18.4c0.2-3.5,4.7-4.9,7.6-2.4c1.3,1.2,2.1,2.9,2.3,4.7c0.6,6.8,0.9,13.6,1.2,20.5
		c0.5,11.2,0.7,22.3,1.3,33.5c0.1,2,1.7,3.9,2.9,5.7c1.5,2.2,3.8,4.1,4.7,6.4c1.4,3.5,1.9,7.3,2.8,10.9c0.5,2.2,0.6,4.7,4.5,4.6
		c8.2-0.1,16.4,0,24.6-0.2c1.6-0.1,3.2-0.7,4.5-1.8c4.5-4.1,8.8-8.3,13.1-12.5c9.6-9.5,19.2-19,28.9-28.4
		c7.1-6.9,14.3-13.7,21.4-20.6c7.5-7.4,15-15,22.4-22.4c1.4-1.4,2.9-2.8,4.2-4.4c5.7-6.6,12.1-12.7,19-18c1.1,0.7,1.9,1.2,2.7,1.8
		c9.6,8,19.5,15.8,28.7,24.1c8,7.2,16,14.5,23,22.5c5,5.8,8.3,12.7,12.4,19.1c1,1.3,2.1,2.6,3.2,3.8
		C519.6,467.6,524.4,448.3,532.1,429.8z"/>
</g>
<path id="Mouth_R" class="st1" d="M304.4,376.1c2.7,7.2,0.8,15.7,8.7,22.2c1.6-5.1,3-9.7,4.4-14.6c3.1,0.9,5.9,2.7,7.3-0.7
	c0.7-1.9,1.3-3.8,1.7-5.8c2,0.4,3.9,1.4,5.3,1s2.5-2.1,3-2.5c3.6,1.2,6.8,2.5,10.3,3.2c2.8,0.5,4.6,1.7,4.6,4
	c0.1,4.3-0.2,8.6-0.9,12.9c-1.8,7.9-2,16.1-0.6,24.1c0.6,3.3-0.4,6-2.8,8.5c-3.5,3.6-7.8,6.2-12.5,7.8c-6.7,2.3-11.3,1.5-15.5-3.5
	c-4.8-5.5-10.2-10.2-18.2-12.1c-2.1-0.5-2.6-1.9-2.1-3.5c0.2-1,0.6-1.9,1.3-2.7c4.9-4,3.1-8.4,1.6-13.1c-2.6-8.1-2.9-16.2,2.5-23.8
	c0.3-0.4,0.6-0.8,1-1.2C303.7,376.2,304,376.2,304.4,376.1z"/>
<path id="Mouth_L" class="st1" d="M235.7,383.7l4.6-2.3c0.4,1,0.8,1.7,1.1,2.5c0.2,0.6,0.1,1.4,0.5,1.7c5.2,3.1,3.2,7.7,3.4,11.8
	c4.9-1.3,7.1-6.1,9.5-21.4c1.6,1.7,3,2.9,3.8,4.3c4.1,7.4,4,15.2,1.2,22.8c-1.6,4.4-1.7,8,1.7,11.8c3.2,3.6,2.8,4.4-2,6
	c-6.6,2.2-11.1,6.3-15,11.1c-5.3,6.5-11.6,6.4-18.3,2.7c-4.1-2.4-7.9-5.3-11.4-8.5c-1.4-1.4-2.2-3.3-2.3-5.3c-0.3-5.9,0-11.9,0-17.8
	c0-5-0.2-9.8-2.4-14.6c-1.9-4.4-0.4-8.1,3.3-9.8c0.6-0.4,1.2-0.5,1.9-0.5c3.9,1.1,5.7-1.1,7.4-3.6l4.5,5.4l4.7-3.5L235.7,383.7z"/>
<path id="Outline" class="st1" d="M532.1,429.8c-7.7,18.5-12.5,37.8-20.4,57.3c-1.2-1.2-2.2-2.5-3.2-3.8
	c-4.1-6.4-7.4-13.3-12.4-19.1c-6.9-8-14.9-15.3-23-22.5c-9.3-8.3-19.1-16.1-28.7-24.1c-0.7-0.6-1.6-1.1-2.7-1.8
	c-6.9,5.3-13.3,11.4-19,18c-1.3,1.5-2.8,2.9-4.2,4.4c-7.5,7.5-14.9,15-22.4,22.4c-7,6.9-14.3,13.7-21.4,20.6
	c-9.7,9.4-19.2,18.9-28.9,28.4c-4.3,4.2-8.6,8.5-13.1,12.5c-1.3,1.1-2.8,1.8-4.5,1.9c-8.2,0.2-16.4,0.1-24.6,0.2
	c-3.9,0-3.9-2.4-4.5-4.6c-0.9-3.7-1.4-7.4-2.8-10.9c-0.9-2.3-3.2-4.2-4.7-6.4c-1.2-1.8-2.8-3.8-2.9-5.7c-0.7-11.2-0.9-22.3-1.3-33.5
	c-0.3-6.8-0.6-13.6-1.2-20.5c-0.2-1.8-1-3.4-2.3-4.7c-2.9-2.5-7.3-1-7.6,2.4c-0.4,6.1-0.3,12.3-0.4,18.4c-0.2,13-0.2,26.1-0.5,39.1
	c0,1.5-1.7,3-2.8,4.4c-1.4,1.8-3.6,3.3-4.3,5.2c-1.4,4.3-2.5,8.8-3.1,13.3c-0.4,2.3-1.2,3.4-4,3.4c-8.1,0-16.2,0.3-24.3,0
	c-2.2-0.3-4.2-1.3-5.8-2.8c-9.3-9-18.3-18.1-27.4-27.2c-10.1-10.1-20.3-20.3-30.3-30.5c-14.5-14.8-28.9-29.6-43.2-44.5
	c-5-5.2-6.1-5.5-11.5-0.8c-6.7,5.9-12.8,12.1-19.3,18.1c-4.7,4.4-9.4,8.7-14.3,12.9c-9.6,8.2-16.6,17.9-22,28.5
	c-1.2,2.3-2.6,4.4-4.3,6.3c-8.1-18.7-13.6-37.8-19.8-57c-3.1,1.3-2.7,3.4-2.3,5.1c1,4.1,2.3,8.3,3.6,12.4
	c4.4,13.4,8.8,26.8,13.3,40.2c1.3,4,0,7.3-3.9,10c-4.6,3.3-9,6.8-13.3,10.2c-3.8,3.1-5.9,2.9-7.4-1.4c-3.6-9.7-7.1-19.5-10.1-29.3
	c-4-13.1-7.5-26.3-11.1-39.5c-1-3.7-0.7-4.7,3.6-5.3c14.2-2.1,23.4-10.6,33.4-18.1c9.1-7,18.2-14,27.3-21c4.3-3.3,8.5-6.7,12.6-10.2
	c1.7-1.4,2.2-3.3,0.6-5.1c-3-3.6-6-7.2-9.3-10.7c-3.9-4.3-8.1-8.4-12-12.7c-1.1-1.2-1.7-2.7-1.7-4.3c0.5-13.5,1.2-27.1,1.8-40.6
	c0.2-4.2,3.6-6.8,6.7-9.4c4.8-4.1,10-7.9,15.1-11.7c3.2-2.4,6.4-4.8,9.6-7.2c5.6-4.4,5.6-14-0.1-18.3c-1.3-1-2.6-2-3.9-2.9
	c-3.3-2.4-4.2-5.4-3.8-9c1.7-14.1,3.3-28.3,4.8-42.5c1.1-10.5,1.9-21.1,3-31.6c0.3-2.5-1-5-3.2-6.1c-13.3-8.4-23.6-19.1-34.5-29.5
	c-14.6-13.7-27.4-29.2-38.3-46C10,78.2,3.6,62.8,1.2,46.4c-0.6-4.1,0.3-4.9,4.7-3.3c14.1,4.9,28.2,9.9,42.3,15
	c10,3.6,20,7.2,29.9,10.9c2.7,1,5.3,2.3,7.8,3.8c0.9,0.6,1.4,1.6,1.5,2.7c0,16.4,8.4,29.2,23.3,39.1c1.6,1,3,1.4,4.7,0.3
	c7.6-5.2,15.2-10.2,22.7-15.5c8.9-6.2,17.6-12.5,26.4-18.7c12.7-9.1,24.9-18.7,38.1-27.1c6.8-4.3,8.6-10,11-16.1
	c5.1-12.9,12-24.9,27.6-30.7c7-2.4,14.3-4,21.8-4.7c12.3-1.3,24.7-1.6,37,0.7c15.5,2.9,26.4,10.5,32.7,22.8
	c2.8,5.5,5.5,11.1,8.1,16.7c1.2,2.5,3.3,4.6,5.8,6c7.2,4.3,13.9,9.1,20.9,13.7c6.3,4.2,12.7,8.3,19.1,12.3c9.3,6,18.6,12,27.9,18
	c8.4,5.4,16.7,10.9,25,16.3c2.5,1.7,4.9,1.8,7.4-0.4c5.1-4.6,10.5-9,15.5-13.6c7.1-6.6,9.5-14.9,9.9-23.5c0.3-5,2.3-8.1,7.8-10.2
	c18.9-7.1,37.7-14.6,56.5-21.9c7.3-2.8,14.8-5.6,22.1-8.5c4.4-1.7,5.5-1.2,5.1,2.8c-1.4,12.9-5,25.5-10.6,37.2
	c-11.9,25-30.6,46.2-51.5,66c-10,9.5-21,18.4-31.6,27.5c-4.3,3.6-5.8,7.7-5.1,12.9c3.2,23.3,6,46.6,9.4,69.8
	c0.8,5.5-0.9,8.9-6.3,11.8c-5.2,2.7-7.2,9-4.5,14.1c0.7,1.4,1.7,2.6,3,3.5c9.9,7.4,20.3,14.4,30.3,21.7c1.4,1,2.4,2.5,2.8,4.2
	c0.6,2.9,1,5.9,1.1,8.8c0.9,11.7,1.7,23.5,2.8,35.2c0.4,4-0.4,7.1-3.8,10.2c-6.8,6.1-12.9,12.7-19.5,18.9c-2.3,2.2-2.3,3.9,0.3,5.8
	c7.6,5.6,15.3,11.1,22.9,16.7c10.3,7.5,20.5,15,30.7,22.6c5.7,4.5,12.4,7.7,19.5,9.2c2.2,0.4,4.4,1,6.6,1.7c4.2,1.4,5.1,2.5,4.2,6.3
	c-1.7,6.8-3.5,13.5-5.6,20.2c-5.3,16.4-10.9,32.7-16.3,49c-0.9,2.7-2.3,3.3-5.4,2.1c-0.6-0.2-1.3-0.5-1.8-0.9
	c-5.9-4.8-12-9.6-17.7-14.6c-1-1.1-1.4-2.7-1-4.1c2.9-10.8,5.9-21.5,9-32.3c2.3-8,4.9-15.9,7.3-23.8c0.3-1.1,0.4-2.2,0.5-3.4
	L532.1,429.8z M179.3,369.4c-0.2,0.8-0.3,1.6-0.3,2.4c1.3,4.5-1.1,7.8-4.7,10.8c-4.1,3.4-8,7.1-11.7,10.9c-2,2.3-4.9,3.6-7.9,3.5
	c-1.7,0-3.5,0-5.2-0.1c-4-0.1-4.8,0.8-3.1,4c0.3,0.6,0.6,1.1,1,1.5c6.9,7.4,13.8,14.9,20.9,22.1c5.5,5.6,11.4,10.9,16.8,16.5
	c10.4,10.6,20.6,21.3,30.8,31.9c4.5,4.7,9.3,9.2,13.4,14c2.9,3.4,6.5,4.4,11,4.1c1.3-0.1,2.7,0.2,3.8-0.2c2-0.7,4.8-1.4,5.7-2.8
	c3.1-4.9,7.8-8.6,12.7-12c2.6-1.7,4.1-4.6,3.9-7.7c-0.1-10.5-0.1-21-0.2-31.4c0-2.8,1.4-4.3,4.6-4.5c4-0.3,8.1-0.5,12.1-0.5
	c9.5-0.1,10.7,0.8,11.3,8.9c0.7,10.2,1.2,20.3,1.9,30.5c0.2,1.4,0.8,2.7,1.8,3.6c4.6,4.5,9.6,8.6,13.9,13.2c1.9,2.3,4.9,3.6,7.9,3.4
	c1.5-0.1,3-0.2,4.5-0.1c3.5,0.4,5.6-1,7.8-3.3c9.9-10.5,20-20.9,30.2-31.3c6-6.1,12.4-12,18.4-18.1c11-11.2,22-22.4,32.9-33.7
	c1.7-1.8,3.1-3.8,4.7-5.7c-0.2-0.4-0.3-0.7-0.5-1.1c-2.6-0.2-5.4-0.8-7.9-0.4c-2.6,0.5-5.2-0.2-7.2-1.9c-6.5-5.6-13-11.2-19.5-16.8
	c-1.7-1.4-1.7-3-1.1-4.9s1.3-4.6,0.4-6.4c-1.9-3.8,0.1-6.2,2.4-8.9c1-1.1,2.2-2.1,3.3-3.1c6.1-5.6,6.8-11,1.7-18.7
	c-0.4,3.6-1.2,6.4-1,9.2c0.2,3.9-1.3,6.9-4.1,9.7c-1.3,1.3-2.7,2.4-3.9,3.8c-2.2,2.4-3.6,4.8-1.7,8.1c2.5,4.4-1.2,10-6.8,10.5
	c-13.3,1.2-25-1-34.2-10.4c-5-5-8.6-11.2-10.6-18c-0.2-1-0.4-1.9-0.4-2.9c3.6,2.9,6.8,5.9,10.5,8.2c2.7,1.7,6.1,2.6,9.4,3.6
	c0.7,0.2,1.9-0.6,2.9-1c-0.4-0.8-0.9-1.6-1.5-2.3c-0.7-0.4-1.4-0.7-2.2-0.9c-2.6-1.1-4.9-4.5-4.8-6.7c1.8-0.4,4.1-0.3,4.8-1.2
	c0.9-1,0.4-2.9,0.4-4c2.7-0.5,5.8-0.3,7-1.5s0.6-3.8,0.8-6c0.4,0,0.8,0,1.3,0.1c5.6,1,5.6,1,6.5-3.8c0.2-1.2,0.2-3.1,1-3.5
	c3.7-1.8,3-5,4.1-7.7c-3,1.4-5.6,3.3-8.5,4.4c-13.3,5.1-25.1,12.2-36.6,19.7c-3.8,2.5-7.4,3.1-11.6,1.6c-1.8-0.6-3-0.5-3.4,1.1
	c-0.7,2.4-2.4,3.1-5.1,2.8c-2.1-0.3-4.2-0.3-6.2-0.7c-11.9-2.4-24.2-2.2-36,0.6c-5.1,1.2-5.2,1-6.6-3.6c-0.2-0.6-0.5-1.2-0.9-1.8
	c-1.2,0.5-2.1,1.1-3.2,1.5c-3,1.1-6.2,1.9-9.3,0.1c-6.1-3.7-11.9-7.7-18.2-11.1c-7.8-4.2-15.9-7.9-23.9-11.7c-2.1-1-3.3-0.5-3.4,1.6
	s-2,4.5,1.7,5.7c0.4,0.1,0.3,1.1,0.5,1.6c0.7,1.5,1.5,2.9,2.2,4.3l4-3.2c2.3,2.5,1.9,5.8,1.9,9c0,2.8,0.7,3.2,3.8,2.2
	c1.4-0.5,2.8-1,4.5-1.7c-0.4,1.9-0.7,3.3-1.1,5.2c0.9-0.3,1.9-0.6,2.9-0.8c1.2-0.1,2.3,0,3.5,0c0,0.9-0.1,1.9-0.3,2.8
	c-0.9,2.7-3.1,4.2-6.3,5c-0.8,0.2-1.2,1.4-1.8,2.1c0.8,0.6,1.7,1,2.7,1.3c1,0.1,2.1-0.1,3-0.6c3.8-2.3,7.6-4.7,11.2-7.3
	c1.9-1.4,3.3-3.4,4.8-5.1c0.8,1.2,1,2.7,0.7,4.2c-0.9,3.3-1.5,6.8-3.5,9.6c-3.4,4.7-6.9,9.9-12,13.1c-7.6,4.8-16.9,6.7-26.7,5.7
	c-3.2-0.3-5.4-1.1-6.8-3.7C181.9,372.7,180.7,371,179.3,369.4z M485.9,320.3c0-2.3-0.2-4.6,0-6.8c0.3-3.4-1.1-6-4-8.1
	c-5-3.7-10-7.3-15-10.9c-5.6-4-11.3-7.8-16.9-11.8c-1-0.8-1.8-2-2-3.3c-0.8-5.6-1.4-11.2-2.1-16.8c-2.6-22.4-5.2-44.8-7.8-67.3
	c-0.1-1-1-1.9-1.5-2.8c-1,0.4-2,0.9-2.9,1.4c-4.8,3.9-9.4,7.9-14.1,11.8c-14.1,11.5-28.3,23-42.4,34.5c-3.2,2.6-4.6,5.8-2.8,9.6
	c3.5,8,5.5,16.5,5.9,25.2c0.4,4.3-1.4,8.6-4.8,11.3c-3.5,2.9-6.3,6.7-8.1,10.9c-2,4.9-1.4,6,4.5,7.2c7.3,1.5,14.6,2.8,21.8,4.6
	c5.1,1.3,6.5,3.8,6,8c-0.1,0.8,0.1,1.6,0.6,2.2c1.4,1.9,2.6,4,4.6,5.5c9.7,7.6,19.5,15,29.4,22.5c5.3,4,10.5,8,16.1,11.6
	c4.3,2.8,6.1,2.4,9.7-1.1c5.9-5.7,11.7-11.4,17.3-17.3S489.3,329,485.9,320.3z M78.6,330l-1.2,0.2c0.5,1.3,1.3,2.4,2.1,3.5
	c8.6,8.8,17.3,17.5,25.8,26.3c1.6,1.6,3,1.7,4.7,0.5c4.6-3.1,9.3-6.2,13.6-9.6c3.7-2.8,7-6.1,10.6-8.9c7.2-5.5,14.7-10.8,21.7-16.4
	c3-2.4,5.7-5.6,5.1-9.4c-0.5-3,0.8-4.5,3.4-5.7c2.3-1.2,4.7-2.1,7.2-2.8c5.3-1.1,10.7-1.7,16-2.5c3.9-0.6,4.9-2.1,4.3-5.4
	c-0.9-4.8-3.8-8.4-7.5-11.8c-4.2-3.6-6.8-8.8-7.1-14.4c-0.3-7.4,1.3-14.8,4.7-21.4c2.7-5.4,2-9.6-3-13.5c-2.9-2.3-5.9-4.4-8.7-6.8
	c-13.2-10.8-26.3-21.6-39.5-32.4c-1.6-1.3-3.5-2.4-5.3-3.6c-1.1,2-2.1,4-3.2,6c-0.1,0.3-0.1,0.6-0.1,0.9c-1,9.2-2.2,18.5-3.1,27.7
	c-1.5,14.5-3.4,28.9-4.1,43.4c-0.3,6.5-3.1,10.9-8.8,14.8c-8.1,5.7-15.8,11.9-23.6,17.8c-2.7,2-4.3,5.1-4.2,8.5
	C78.5,320.1,78.6,325,78.6,330z M500.8,61.7c-2.2-1.2-5.1-0.8-7.9,0.9c-1.5,0.8-3,1.6-4.5,2.2c-4.7,1.9-6.5,5.3-6.9,9.6
	c-0.3,3.3-0.6,6.5-1.1,9.7c-1.1,7-3.7,13.5-9.9,18.5c-7.3,5.9-14.8,11.6-22.1,17.5c-5.3,4.3-10.3,8.8-15.6,13
	c-13.1,10.3-26.2,20.6-39.4,30.8c-2.6,2-4.3,5.1-4.5,8.4c-1.4,12.9-2.7,25.8-1.5,38.8c0.1,1.5,0,3,0,5.1c3.2-2.3,5.6-4,5.6-7.2
	c0-2.8,2.2-4,5.3-3c2.6,0.8,5-0.7,4.9-3.3c0-0.7-0.2-1.3-0.3-2c2-0.6,4.2-0.7,4.9-1.6c1.3-1.7,2.8-2.3,4.9-2.8
	c1.9-0.6,3.6-1.6,5.1-2.9c2-1.5,3.5-3.4,5.4-5c9.1-7.4,18.3-14.8,27.5-22.2c6.7-5.3,13.6-10.4,20.2-15.8c3.9-3.2,7.8-6.6,5.9-12
	c0-0.1,0.2-0.3,0,0l5.2,0.7c0.3-1.9,2.1-2.1,3.8-2.8c0.9-0.4,1.4-1.9,1.7-3c0.1-1,0.1-1.9-0.1-2.9c5.7,0.4,5.7,0.4,9.2-3.3
	c0.4-0.5,0.9-0.9,1.5-1.2c2.5-1.7,5.6-3.1,7.4-5.2c9.3-10.8,19.1-21.4,27.3-32.8c10-13.9,16.3-29.3,20.4-45.3
	c0.2-0.9,0.3-2.4-0.3-2.6c-1.1-0.5-2.4-0.6-3.6-0.3c-7.6,3.1-15.1,6.4-22.6,9.7c-4.3,1.9-7.3,6.3-13.3,5.2c-0.5-0.1-1.3,0.4-1.8,0.8
	C508,57.3,504.6,59.4,500.8,61.7z M166.8,216.8l1.1-0.3c0.4-1.2,0.7-2.4,0.8-3.6c0.1-6,0.3-12.1,0.1-18.1c-0.2-7-1.1-14-1-21
	c0.2-3-1.2-5.8-3.6-7.5c-17-12.8-34-25.6-50.7-38.7c-9.1-7-17.7-14.5-26.4-21.8c-0.8-0.8-1.5-1.7-2.1-2.7c-4.8-7-6-14.6-6.6-22.5
	c-0.4-5.1-4.9-8.7-10.7-8.5c-2.9,0.1-4.8-0.9-7.2-2c-11-4.8-22.1-9.3-33.2-13.9c-0.5-0.2-1.1-0.3-1.7-0.2c-3.5,0.6-6.2,0-7.8-3.1
	c-0.7-0.8-1.7-1.3-2.8-1.2c-1,0.4-1.8,1.3-2,2.4c-0.2,2.1,0.1,4.2,0.7,6.1c3.6,9,6.7,18.1,11.3,26.7c6.3,11.9,14.2,22.9,23.5,32.7
	c2.4,2.5,4.6,3.7,8.2,1.8c0.8-0.2,1.5-0.4,2.3-0.4l-2.1,6.1c3.3,0.2,3.3,0.2,3.4,2.4s2.5,5.4,4.3,5.6c1.6,0.1,3.1,0.4,4.7,0.6v0.8
	l5.2-1.6c0,0.6,0.1,0.9,0,1.1c-1.3,2.8-2.9,4.5,1.3,7.6c10.1,7.3,18.8,16,28.4,23.9c6.4,5.3,13.3,10.1,19.8,15.2
	c4.1,3.2,7.7,6.9,11.8,10.1c7.1,5.5,14.4,10.8,21.5,16.3C160.6,211.5,163.6,214.2,166.8,216.8L166.8,216.8z M351.1,62.4
	c-0.6,0.5-1.4,0.8-1.5,1.2c-0.4,1.6-1.1,3.3-0.7,4.8c1,3.4,2.2,6.7,3.8,9.8c3.6,7.7,7.4,15.3,11.1,23c5.5,11.2,8,22.6,4.9,34.7
	c-0.1,1.3,0.4,2.5,1.3,3.4c5.5,4.7,10.1,10.3,13.6,16.7c1.1,2.1,2.7,2.2,4.8,1.1c1-0.6,2-1.3,3-2c6.7-5.3,13.5-10.5,20-15.9
	c6.3-5.2,12.5-10.6,18.6-15.9c3.8-3.4,3.5-4.9-0.7-7.6c-6.2-4.1-12.4-8.1-18.5-12.3c-8.3-5.8-16.5-11.8-24.8-17.5
	c-10.7-7.4-21.4-14.7-32.2-21.9C353,63.3,352.1,62.8,351.1,62.4z M204.8,66.9l-1.1-0.7c-1.9,1-3.7,2-5.5,3.2
	c-14.2,10.7-28.4,21.4-42.7,32.1c-8.8,6.6-17.6,13-26.5,19.6c-4.1,3-4.4,5-0.8,8.5c2.6,2.6,5.3,5,8.1,7.3c9.6,7.7,19.3,15.3,29,23
	c2.5,2,4.1,2,5.1-0.8c2.6-6.6,8.1-11.4,13.3-16.4c1.5-1.6,2.2-3.7,1.9-5.9c-2-9.9-1.8-19.8,2.1-29.3c4-9.8,8.9-19.3,13.1-29
	C202.5,74.6,203.5,70.7,204.8,66.9z M311.3,123.8c0.1,1.5,0.1,2.9-0.1,4.4c-0.2,0.8-1,1.6-1.5,2.3c-6.1,10.8-7.3,14.6,4.2,23
	c2.5,1.5,3.4,4.6,2.2,7.2c-0.3,0.9-0.4,1.7-0.6,2.6l0.9,0.4c1-0.7,2-1.4,2.9-2.2c3.5-3.9,3.7-8.3-0.6-12.4
	c-5.1-4.9-4.3-10.3-3.3-15.9c0.4-2.2,2.1-3.1,4.5-3.3c5.9-0.5,10.2,2,14.2,5.2c0.7,0.6,1.1,1.4,1.1,2.4c-0.6,2.6,1,4.3,2.9,6
	c2.2,1.8,4.3,3.6,6.4,5.4c2.4,2.2,5.5,3,8.9,3.6c2.9,0.4,5.8,1.4,8.3,3c3.4,2.4,6.1,5.4,9.6,8.6c0.4-1.2,1.5-2.5,1.1-3.4
	c-1.5-3.1-2.8-6.4-6.8-8.3c-6.1-2.8-12-5.9-17.9-9c-3.6-1.9-6-4.5-6.6-8.3c-0.4-3.2-2.3-5.9-5.2-7.3c-3.3-1.7-6.3-3.7-9.4-5.6
	c-2.8-1.8-3.2-4-1.2-6.4c1.6-1.9,4.5-2.2,7-0.2c1.9,1.7,3.7,3.6,5.4,5.7c1,1.1,1.8,2.3,2.7,3.4c1.5,1.8,3,3.5,5,5.9
	c4.6-0.3,10.6,0.9,17-1.8c-1.7-0.8-2.4-1.4-3.2-1.5c-6.4-0.9-10.5-4.7-15-8.1c-4.9-3.7-10.3-7-15.1-10.7c-1.6-1.2-2.5-3.1-2.7-5.1
	c0-2,1.1-4.2,2.1-6.1c3.6-6.8,5.3-13.6-0.3-20.2c-2.1-2.3-4.3-4.4-6.8-6.3c-3.6-3.1-3.9-3.9-1.9-7.8c3-6,6-12,8.7-18
	c0.8-1.9,0.7-4.1,1-6.1l-1.3-0.3c-0.8,1.1-1.7,2.1-2.4,3.3c-3.8,6.1-7.3,12.3-11.3,18.3c-4.6,6.9-4.8,9,2.2,14
	c7.3,5.1,10.1,11.4,9.2,19.1c-0.6,5.3-4.2,9.2-9.1,13.5c-1.4-7.5-0.2-14.5-5-20.4c-2.3,2.5-3,6.1-1.7,9.3c0.9,2.4,1.4,5,1.5,7.5
	c0.1,3.6-2.4,5.2-6.3,3.9c-2.1-0.7-4-1.8-5.9-3c-6.5-4.3-12.7-8.6-19.4-12.6c-2.4-1.2-5-2.1-7.7-2.4c-1-0.2-2.3,1-3.5,1.5
	c0.7,1,1.5,1.9,2.5,2.6c1.3,0.7,3.1,0.8,4.5,1.4c9.2,4,16.4,10.2,23.8,16.2c0.3,0.3,0.5,0.6,0.7,1c-0.4,0.2-0.6,0.5-0.9,0.5
	c-2.8,0.3-5.5,0.3-8.2,0.8c-1.1,0.2-1.9,1.3-2.8,1.9c0.9,0.8,1.6,2.1,2.6,2.3c2.6,0.4,5.3,0.6,7.9,0.6c5.3,0.2,5.7,1,3.4,5.1
	c-2.8,4.8-8.6,6.4-13,9.5c-1.2,1-2.3,2.1-3.3,3.4l1.3,1.3L311.3,123.8z M226.4,131.5l-1.4-0.4c-1.1,1.6-2.4,3-3.1,4.7
	c-5.7,14-9.8,28.2-9,43.2c0.5,12.9,4.5,25.4,11.6,36.2c6.4,9.7,14.7,18,24.4,24.4c3.7,2.5,4.7,5.2,4.5,8.9
	c-0.6,12.1,2,23.8,5.3,35.4c0.9,3.1,2,6.1,3.3,9c0.3,0.7,1.3,1.2,2,1.8c0.8-0.7,1.5-1.5,2.1-2.4c0.2-0.7,0.2-1.5-0.1-2.3
	c-0.9-6.5-2.2-12.9-2.6-19.4c-0.7-8.9-0.8-17.9-0.4-26.9c0.3-4.4-0.5-7.5-4-10.7c-5.3-4.6-10.3-9.5-15-14.6
	c-6.4-7.1-11.9-15.1-16.2-23.7c-5.3-10.6-7.9-22.3-7.5-34.1c0.2-8,1-16.4,4.7-24.1C225.7,134.9,226.2,133.2,226.4,131.5L226.4,131.5
	z M357.6,284.2c-2.1,0.7-3.7,1.2-5.2,1.9c-3.6,1.6-6.9,3.7-10.6,5c-9.2,3.1-15.1,9.2-20.9,15.5c-3.8,4.4-8.6,7.8-14.1,9.6
	c-1.6,0.5-2.9,1.8-4.4,2.6c0.6,0.6,1.5,0.9,2.3,0.9c3.9-0.2,7.8-0.5,11.8-0.6c6.6-0.1,11-3.4,14.9-7.5c2.4-2.6,4.7-5.6,7.9-7.1
	c8.9-4,13.4-10.9,17.8-18C357.4,285.8,357.6,285,357.6,284.2z M254.1,319.6l0.4-1c-1.5-0.9-3.1-1.8-4.6-2.6
	c-5.1-2.7-10-5.2-13.6-9.7s-8.8-8.4-14-11.7c-4.1-2.7-9.4-4.1-14.1-6.2c-1.8-0.8-3.5-1.8-6-3.1c0.3,2,0.2,3.3,0.6,4.4
	c1.7,4.4,4.2,8.4,8.8,11.1c6.6,3.9,12.5,8.8,17.7,14.5c1.7,1.8,3.8,2.9,6.2,3.3C241.6,319.2,247.9,319.3,254.1,319.6z M182.3,360.6
	c0.1-1.4,0.6-2.5,0.2-3.4c-0.7-1.3-1.6-2.4-2.7-3.4c-5.2-4.9-9.1-10.1-7.9-17.2c0.4-2.1-0.2-4.3-0.4-6.5c-0.2-0.7-0.6-1.3-1-1.9
	C166.1,340.9,170.8,353.9,182.3,360.6z"/>
</svg>
