<?xml version="1.0" encoding="utf-8"?>
<!-- Generator: Adobe Illustrator 24.0.2, SVG Export Plug-In . SVG Version: 6.00 Build 0)  -->
<svg version="1.1" id="Rocket_League" xmlns="http://www.w3.org/2000/svg" xmlns:xlink="http://www.w3.org/1999/xlink" x="0px"
	 y="0px" viewBox="0 0 781.3 495" style="enable-background:new 0 0 781.3 495;" xml:space="preserve">
<style type="text/css">
	.st0{fill:#FFCC2A;}
</style>
<rect id="Select" class="st0" width="781.3" height="495"/>
<g id="Car">
	<path d="M438.7,391.6c3.1-12.2,3.3-25,0.6-37.3c-2.7-12.4-8-24-15.7-34c-4.4-5.7-9.5-10.8-15.2-15.1l-1.3,4.8
		c18,0.5,35.9,4.1,52.7,10.4c8.5,3.2,16.6,7.4,24.7,11.3c8.2,4,16.6,7.6,25.6,9.1c8.8,1.5,17.7,0.8,25.9-2.8
		c7.1-3.3,13.3-8.2,18.3-14.3c5.7-6.8,10.1-14.5,14.1-22.4c4.1-8.2,8.1-16.4,12.3-24.5c8.7-16.5,18-32.7,28.1-48.4
		c1.3-2,2.5-3.9,3.8-5.9c1.8-2.8-2.7-5.4-4.5-2.6c-10.1,15.5-19.5,31.3-28.2,47.6c-4.4,8.1-8.6,16.2-12.6,24.5
		c-3.9,7.9-7.7,15.8-12.8,23.1c-4.2,6.4-9.8,11.8-16.2,15.9c-6.8,4.2-14.8,6.1-22.8,5.4c-8.7-0.7-17.1-3.8-25-7.4
		c-8.3-3.8-16.3-8.1-24.7-11.6c-16.7-6.8-34.3-10.9-52.2-12.1c-2.2-0.2-4.4-0.3-6.5-0.3c-1.2,0-2.2,0.8-2.5,1.9s0.2,2.3,1.2,2.9
		c9.3,7.2,16.9,16.5,22,27.1c5.2,10.5,8,22,8.2,33.7c0.1,6.6-0.7,13.2-2.3,19.6C432.9,393.5,437.9,394.8,438.7,391.6L438.7,391.6z"
		/>
	<path d="M608.3,220c-3.9,5.5-5.5,12.1-6.3,18.7c-0.9,7.2-1.1,14.6-1.4,21.9c-0.5,14.8-0.8,29.9,2.3,44.4c2.6,12.3,8,24.3,17.1,33.2
		c4.3,4.3,9.5,7.7,15.1,10c6.8,2.7,14.2,3.6,21.3,4.5c14,1.7,28.3,3.4,42.3,1.2c13.1-1.9,25.2-8.1,34.3-17.7
		c9.7-10.3,14.6-24,19.3-37.1c5-13.9,8.9-28.2,10.2-42.9c2.3-24.6-3.8-51.3-21.7-69.2c-2.1-2.1-4.4-4.1-6.8-5.9
		c-1.2-0.7-2.8-0.3-3.5,0.9s-0.3,2.8,0.9,3.5c18.5,14.1,26.6,38.2,26.4,60.7c-0.1,14-3,27.9-7.1,41.3c-2.1,6.8-4.5,13.5-7.2,20.1
		c-2.3,6.3-5.2,12.3-8.8,17.9c-6.7,10-16.6,17.5-28,21.1c-13,4-26.8,3.4-40.2,2c-6.6-0.7-13.3-1.4-19.8-2.6
		c-6.2-1-12.2-3.3-17.5-6.8c-9.2-6.3-15.7-16.3-19.1-26.8c-4.4-13.3-4.8-27.4-4.7-41.3c0.1-7.5,0.3-14.9,0.8-22.4
		c0.4-6.3,0.7-12.6,2.7-18.7c0.9-2.7,2.1-5.3,3.8-7.7c0.7-1.2,0.3-2.8-0.9-3.5C610.6,218.3,609,218.8,608.3,220L608.3,220z"/>
	<path d="M735.4,184.5c5.2-10.1,11-19.9,17.4-29.3c1.6-2.3,3.2-4.5,4.8-6.8s3.4-4.4,4.9-6.8c2.7-4.3,4.4-9.7,2.3-14.7
		c-2.1-5.2-7.6-7-12.5-8.9c-5.3-2.1-10.7-3.9-16.3-5.4c-10.9-2.9-22.3-4.3-33.6-3.1c-12.2,1.3-24,5.4-34.4,12.1l3.9,2.2
		c0.9-7,1.6-14.5-1.9-21c-3-5.7-8.5-9.4-14.4-11.8c-1.4-0.4-2.8,0.4-3.2,1.8c-0.3,1.4,0.4,2.8,1.8,3.2c4.7,1.9,9.1,5.2,11.4,9.8
		c2.8,5.5,1.8,12.2,1,18c-0.3,2,2.4,3.2,3.9,2.2c8.5-5.5,18.1-9.2,28.2-10.9c10.3-1.6,20.8-1.1,30.9,1.2c5.3,1.2,10.5,2.7,15.6,4.5
		c2.5,0.9,5.1,1.9,7.6,2.9c1.9,0.8,4.1,1.6,5.7,3c3.2,3,1.9,7.8,0,11.1c-1.3,2.2-2.8,4.3-4.4,6.3c-1.6,2.2-3.2,4.4-4.7,6.6
		c-6.9,10-13.2,20.4-18.7,31.1c-0.7,1.2-0.3,2.8,0.9,3.5C733.1,186.2,734.7,185.8,735.4,184.5L735.4,184.5z"/>
	<path d="M658.4,93.8l7.6-22l3.7-10.8l1.8-5.2c0.5-1.8,1.1-3.5,1.8-5.2c0.7-1.3,2.3-1.3,3.6-1.4c2-0.2,3.9-0.5,5.9-0.7
		c3.5-0.4,7-0.5,10.5-0.4s7,0.7,10.4,1.7c3.2,1,6.3,2.5,9.7,2.9s7.1-0.1,10.6-0.6l11.2-1.5l22.9-3c3-0.4,6.9-0.3,9.7-1.8
		s3.5-4.7,4.5-7.6l7.6-22c1-2.9,2.3-6,0.4-8.8c-1.6-2.4-4.7-3.7-7.4-4.5C767,1.1,760.6,2.1,755,4c-12.6,4.4-22.4,15.1-35.9,16.9
		c-7.3,0.9-14.9,0.3-22.3,0.2c-7.7-0.1-15.3-0.3-23-0.4c-7.6-0.1-15.3-0.6-22.8-1.6c-7.4-1.1-14.7-2.4-22.1-3
		c-29.8-2.4-59.2,4.9-89,5.1c-3.7,0-7.3,0-11-0.2l2.5,3.3L535,9.8c0.3-1.1-0.2-2.3-1.2-2.9c-9.1-4.8-18.9-0.2-26.9,4.7
		c-8.4,5.2-17,10.9-26.9,12.5c-5.3,0.9-10.9,0.3-16.3,0.3L446,24.3c-5-0.1-10.4-0.6-14,3.5c-3.2,3.6-3.5,8.5-2.8,13.1
		c1.5,9.8,5.7,24.3,18.1,23.8l-2.2-3.9c-2.5,4.4-8.9,4.1-13.3,3.9l2.6,2.6c-0.3-5.4-4.7-9.7-10.1-9.9c-2.7,0.1-5.3,1.2-7.2,3
		c-2.3,1.8-5,5.4-8.2,4.7l1.9,2.5c0.7-5.9-5.4-9.9-10.7-9.1c-2.8,0.5-5.3,1.8-7.4,3.8c-1.9,1.8-4.1,6.2-7.2,5l1.9,2.5
		c-0.4-6.2-6.8-10.8-12.8-8.5c-5.8,2.2-7.9,8.9-13.3,11.7c-3.4,1.7-7.2,2.7-10.7,4c-3.9,1.4-7.7,2.8-11.5,4.3
		c-7.8,3.1-15.5,6.4-23.1,9.9c-3,1.4-0.4,5.9,2.6,4.5c13-6,26.3-11.3,39.8-15.9c2.9-0.9,5.6-2.1,8.1-3.8c2-1.6,3.8-3.5,5.4-5.6
		c1.4-1.7,3-4,5.3-4.4c2.5-0.3,4.8,1.4,5.1,3.9l0,0c0,1.1,0.8,2.1,1.9,2.5c5.2,2,8.5-2.6,11.7-5.9c1.5-1.5,3.7-3,5.9-2.9
		c2-0.1,3.7,1.6,3.8,3.6c0,0.2,0,0.3,0,0.5c0,1.2,0.8,2.2,1.9,2.5c5.4,1.1,8.9-2.5,12.7-5.7c1.6-1.3,3.4-2.4,5.5-1.7
		c2,0.6,3.4,2.4,3.5,4.4c0,1.4,1.2,2.6,2.6,2.6c6.4,0.3,14.2-0.2,17.7-6.4c0.7-1.3,0.3-2.8-1-3.6c-0.4-0.2-0.8-0.3-1.2-0.3
		c-9.4,0.3-12-12.5-13.1-19.6c-0.6-3.7-0.3-9.2,4.1-10.3c2.2-0.6,4.9-0.2,7.1-0.2l8.2,0.1l15,0.2c4.5,0,9,0.2,13.4-0.7
		c8.2-1.6,15.8-5.8,22.8-10.1c7.3-4.5,17.3-12.3,26.2-7.6l-1.2-2.9l-3.6,14.5c-0.4,1.4,0.5,2.8,1.9,3.2c0.2,0.1,0.4,0.1,0.6,0.1
		c29.1,1.6,57.8-5.2,86.8-5.4c7.4-0.1,14.8,0.4,22.2,1.5c7.1,1,14.2,2.3,21.3,2.9c14.6,1.2,29.3,0.9,43.9,1.2
		c7.2,0.1,14.6,0.6,21.7-1.3c6.2-1.7,11.8-5,17.3-8.4c5.2-3.2,10.5-6.5,16.4-8.3c2.8-0.9,5.8-1.3,8.8-1.2c1.4,0.1,2.9,0.3,4.2,0.7
		s3.5,1,4.3,2.2s-0.3,3.1-0.7,4.3l-1.8,5.2L769.5,30c-1.1,3.3-2,7-3.5,10.1c-0.8,1.5-2,1.5-3.6,1.8c-2.1,0.3-4.2,0.5-6.3,0.8
		l-22.5,2.9l-9.8,1.2c-3.6,0.5-7.5,1.2-11.1,0.4s-7-2.6-10.6-3.4c-3.8-0.8-7.6-1.2-11.4-1.2c-3.9,0.1-7.9,0.4-11.8,0.9
		c-2.9,0.3-6.6,0.3-8.9,2.4c-2.5,2.4-3.2,6.9-4.3,10L661.5,68l-8.3,24.2C652.3,95.6,657.3,97,658.4,93.8L658.4,93.8z"/>
	<path d="M315,90.8c-10.9,6.7-23.3,10.3-34.7,16.2c-10.5,5.4-20.1,12.3-29.2,19.8c-9,7.5-17.4,15.6-25.8,23.7
		c-8.7,8.3-17.3,16.9-26.9,24.2c-11.2,8.4-24.6,13-35.7,21.5c-1.2,0.7-1.6,2.3-0.9,3.5c0.6,1.1,2.4,1.8,3.5,0.9
		c9.8-7.6,21.6-11.8,31.8-18.7s19.2-15.7,28.1-24.2c16.8-16,33.4-32.9,53.8-44.3c12.4-6.9,26.3-10.7,38.5-18.1
		C320.4,93.5,317.8,89.1,315,90.8L315,90.8z"/>
	<path d="M164.1,195.9c-27.1-3.4-54.9-4.5-81.8,1.5c-12.3,2.7-24.1,7-35.3,12.8c-5.5,2.9-10.8,6.2-15.6,10.1
		c-4.8,3.9-8.9,9.2-9.1,15.6c-0.1,1.9,0.3,3.8,1.2,5.4c1,1.5,2.7,2,4.4,2.4c2.7,0.7,4,3.3,5.3,5.5c3.7,6.5,6.9,13.2,9.7,20.1
		c0.4,1.3,1.8,2.1,3.2,1.8c1.4-0.4,2.2-1.8,1.8-3.2c-2.5-6.1-5.2-12.1-8.3-17.9c-1.3-2.7-2.9-5.2-4.7-7.6c-0.8-1.1-1.9-2-3-2.7
		c-1.2-0.6-2.5-1-3.8-1.3c-0.6-0.2-0.2,0.1-0.3-0.2c-0.2-0.6-0.3-1.3-0.2-2c0-1.3,0.3-2.6,0.8-3.8c1-2.5,2.6-4.8,4.7-6.6
		c4.2-4,9.5-7.1,14.6-10c21.5-12,46.4-16.9,70.8-17.5c15.3-0.2,30.6,0.7,45.8,2.7c1.4,0.2,2.6-1.3,2.6-2.6
		C166.7,197.2,165.6,196,164.1,195.9L164.1,195.9z"/>
	<path d="M43.3,266.7c-9.6,9.9-15.4,22.8-16.5,36.6l3.9-2.2c-7.2-3.1-15.9-4.7-22.2,1.1c-2.8,2.5-4.1,6.3-3.6,10
		c0.5,3.4,2.5,6.3,3,9.7c0.4,2.9-1.2,5.4-2.6,7.9c-1.7,2.8-3.3,5.7-3.4,9.1c-0.1,3.9,2.2,7.4,5.3,9.6c1.6,1.1,3.3,2,5.1,2.5
		c0.9,0.3,1.8,0.5,2.7,0.7c0.5,0.1,0.9,0.2,1.4,0.2c0.2,0,0.3,0.1,0.5,0.1c0.9,0-0.3-0.1-0.2-0.4c-0.1,0.3,0.4,1.3,0.5,1.6l0.5,1.8
		l1.1,3.6l2.2,7.2l4.5,14.7c0.9,3.2,6,1.8,5-1.4L23,355l-0.9-2.9c-0.2-1.1-0.6-2.1-1.1-3.1c-1.1-1.9-3-1.9-4.9-2.3
		c-3-0.6-6.2-1.7-8-4.3c-1.7-2.4-1.2-4.8,0-7.1c1.4-2.7,3.2-5.2,4.3-8.1c1-3.1,0.9-6.5-0.4-9.5c-0.9-2.7-2.7-5.8-1.9-8.6
		c0.8-2.8,3.6-4.7,6.4-5.3c3.9-0.9,8.1,0.4,11.6,1.9c1.3,0.7,2.9,0.2,3.6-1.1c0.2-0.3,0.3-0.7,0.3-1.1c1-12.4,6.3-24,15-32.9
		C49.3,268,45.6,264.3,43.3,266.7z"/>
	<path d="M26.3,378.2c-3,3.3-4.6,7.5-4.5,11.9c0.1,2.3,0.8,4.5,1.1,6.7c0.2,2.2,0,4.5-0.6,6.6c-0.6,2.2-0.8,4.5-0.8,6.8
		c0.1,2.1,0.6,4.2,1.5,6.1c1.6,3.7,4.5,6.8,8.1,8.6c3.9,1.9,8.2,2.3,12.4,1.3c2-0.6,3.9-1.4,5.8-2.4c0.5-0.2,1.4-0.7,2-0.6
		c-0.1,0,0-0.1,0,0c0.2,0.2,0.5,0.9,0.6,1.2c3.2,8,9.3,14.9,18.3,15.8c4.1,0.4,7.9-1.1,11.3-3.2c3-1.7,6.1-4.1,9.7-3.8
		c2.2,0.2,4.4,1.2,6.5,1.8c2.3,0.7,4.6,1.2,6.9,1.7c4.7,0.9,9.6,1.7,14.4,2.2s9.4,0.9,14.2,1.2c4.5,0.3,9.1,0.7,13.6,0.6
		c4.5,0,9.1-0.6,13.5-1.6c2.2-0.5,4.4-1.3,6.5-2.2c2.1-0.9,4.1-2,6.3-2.7c4.3-1.5,9-1.7,13.3-3.2c4.1-1.3,8.1-3.5,10.8-6.9
		c2.8-3.3,4-7.6,3.4-11.8c-0.7-3.7-3.1-6.6-4.4-10c-0.7-1.3-0.8-2.8-0.4-4.2l-2.5,1.9c14.5-0.2,28.4-6.2,38.6-16.6
		c2.3-2.4-1.3-6-3.7-3.7c-9.2,9.4-21.7,14.9-34.9,15.1c-1.2,0-2.2,0.8-2.5,1.9c-1.1,3.7,0.3,7.2,2.1,10.5c1.5,2.8,3.4,5.7,2.7,9
		c-1.7,8.1-11,10.3-17.9,11.6c-2.3,0.4-4.5,0.9-6.7,1.7c-2.1,0.8-4.1,1.8-6.2,2.7c-3.9,1.6-8,2.6-12.1,2.9
		c-8.7,0.8-17.5-0.1-26.2-0.8c-9-0.8-17.9-1.8-26.6-4.2c-4.2-1.2-8.3-2.9-12.7-1.7c-3.6,0.9-6.5,3.3-9.8,5c-3,1.7-6.6,2-9.9,0.9
		c-3.3-1.3-6.2-3.6-8-6.6c-1-1.5-1.9-3.2-2.6-4.9c-0.8-2.1-1.9-4-4.2-4.6c-2.2-0.6-4.3,0.3-6.2,1.2c-1.6,0.9-3.3,1.6-5.1,1.9
		c-6.9,1.1-13.4-3.5-14.5-10.4v-0.1c-0.6-4.3,1.5-8.4,1.4-12.6s-1.9-7.9-0.7-12c0.5-1.7,1.3-3.2,2.5-4.5
		C32.2,379.3,28.6,375.7,26.3,378.2L26.3,378.2z"/>
	<path d="M279.8,475.2c3.6,2.2,7.5,3.8,11.5,5c3.9,1.3,7.8,2.7,11.7,4c7.6,2.8,15.5,5,23.5,6.6c14.9,2.9,30.2,1.5,44.4-3.9
		c7.6-2.8,14.6-7.1,20.7-12.5c2.5-2.2-1.2-5.9-3.7-3.7c-9.8,9-23.1,14-36.2,15.7c-7.2,0.9-14.5,0.8-21.7-0.3
		c-7.7-1.4-15.3-3.4-22.7-6c-4.2-1.4-8.4-2.9-12.7-4.3c-4.2-1.4-8.4-2.7-12.2-5.1C279.6,468.9,277,473.4,279.8,475.2L279.8,475.2z"
		/>
	<path d="M230.8,383.8l9.9-2.3l-3.2-1.8c1.4,7.2,2.8,14.3,4.2,21.5c0.7,3.4,1.3,6.8,2.3,10.1c1,3.3,2.1,6.4,3.3,9.6
		c2.3,6.6,5.1,13,8.3,19.3c3.2,5.8,6.8,11.5,10.7,16.9c4.3,6.2,8.6,12.7,14.1,17.9c2.4,2.3,6.1-1.3,3.7-3.7
		c-4.7-4.5-8.3-9.9-12-15.1c-3.9-5.4-7.6-11-10.9-16.8c-3.2-5.9-5.9-12-8.2-18.3c-2.5-6.2-4.4-12.5-5.7-19l-4.6-23.7
		c-0.4-1.4-1.8-2.2-3.2-1.8l-10,2.2C226.2,379.5,227.5,384.5,230.8,383.8L230.8,383.8z"/>
	<path d="M433,390.8c-2.4,12.4-4.8,25.1-10.4,36.6c-2.8,5.8-6.5,11.2-10.2,16.6c-3.2,4.9-6.7,9.6-10.4,14.1c-4.2,5-9.2,9.4-14.7,13
		c-2.8,1.7-0.2,6.2,2.6,4.5c10.6-6.6,18.5-16.4,25.5-26.6c3.8-5.3,7.4-10.9,10.6-16.6c3-5.9,5.4-12,7.2-18.4
		c2-7.2,3.5-14.5,4.9-21.8c0.3-1.4-0.5-2.8-1.8-3.2C434.9,388.6,433.5,389.4,433,390.8L433,390.8z"/>
	<path d="M339.6,189.3c11.6-14.2,22.3-29,32.1-44.5c0.7-1.2,0.3-2.8-0.9-3.5c-5.6-2.5-11.9-2.8-17.9-3.6c-6.3-0.8-12.5-1.5-18.8-2.1
		c-12.4-1.3-24.8-2.2-37.3-2.8c-6.3-0.3-12.6-0.6-18.9-0.7c-3.2-0.1-6.3-0.2-9.5-0.2c-3-0.1-6,0.5-8.7,1.7c-2.5,1.3-4.9,2.9-7.1,4.6
		c-2.4,1.7-4.7,3.4-7,5.2c-4.7,3.6-9.2,7.3-13.7,11.2c-10.3,8.9-20.1,18.2-30,27.4c-1,1-1,2.6,0,3.7c3.1,2.9,7.1,3.7,11.2,4.3
		c5,0.7,9.9,1.4,14.9,2c9.8,1.3,19.6,2.5,29.4,3.8c9.8,1.2,19.6,2.4,29.4,3.5c9.6,1.1,19.4,2.7,29,1.8c9.1-0.8,18.5-4.1,24.3-11.5
		c1-1,1-2.6,0-3.7c-1-1-2.6-1-3.7,0c-11,13.9-31.4,10.2-46.6,8.5c-18.9-2.1-37.7-4.4-56.5-6.9c-5.2-0.7-10.4-1.4-15.6-2.1
		c-2.3-0.3-4.7-0.6-7-1.1c-1.9-0.3-3.7-1.1-5.2-2.3v3.7c16.9-15.7,33.5-32.1,52.7-45c2.2-1.5,4.4-3,7-3.4c2.9-0.2,5.8-0.2,8.7,0
		c6.1,0.1,12.1,0.3,18.2,0.6c12.2,0.5,24.4,1.4,36.6,2.5c6.8,0.6,13.6,1.4,20.4,2.2c3.3,0.4,6.6,0.8,10,1.3c3.1,0.3,6.2,1,9.1,2.1
		l-0.9-3.5c-9.5,15.1-20,29.6-31.3,43.4c-1,1-1,2.6,0,3.7C337,190.3,338.6,190.3,339.6,189.3L339.6,189.3z"/>
	<path d="M362.6,200c6.7-12.7,13.2-25.5,20.1-38c6-10.8,12.9-21.2,23.1-28.5s22.2-11.5,33.9-15.8c6.8-2.4,13.5-4.9,20.4-7
		c6.6-2.2,13.4-3.8,20.3-4.9c1.6-0.2,3.2-0.2,4.7,0c1.6,0.3,3.2,0.9,4.6,1.7c2.9,1.4,5.8,3,8.6,4.6c11,6.4,21,14.3,29.8,23.5
		c0.2,0.2,0.4,0.4,0.6,0.6l0.2,0.3c-0.1-0.2-0.1-0.4,0.1-0.6c0.1,0.1-1.1,0.9-1.2,1c-1.4,0.9-2.9,1.8-4.4,2.7
		c-2.9,1.7-5.9,3.2-8.9,4.6c-6.2,2.8-12.5,5.4-18.7,8.2s-12.3,5.8-18.3,9c-12,6.3-23.7,13.2-35.4,20.1s-23.5,13.8-35.7,20.2
		c-5.8,3-11.5,6.5-18.3,6c-6.5-0.5-12.4-3.8-18.1-6.7c-3-1.6-6.1-3-9.2-4.2c-1.4-0.4-2.8,0.4-3.2,1.8c-0.3,1.4,0.5,2.8,1.8,3.2
		c6.6,2.5,12.4,6.4,19,8.9c6.7,2.5,13.8,3.2,20.6,0.4c6.5-2.7,12.8-6.3,19-9.7s12.3-6.9,18.5-10.5c12.1-7.1,24.1-14.3,36.4-21
		c6.2-3.4,12.5-6.7,18.9-9.8s12.8-5.8,19.3-8.6c6.4-2.7,12.7-5.9,18.6-9.5c1.5-0.8,2.8-1.9,3.8-3.3c0.9-1.7,0.7-3.7-0.5-5.2
		c-2-2.7-4.8-5.1-7.3-7.4c-9.8-9-20.7-16.6-32.6-22.6c-3.5-1.7-6.9-3.1-10.8-2.8c-3.7,0.3-7.3,0.9-10.9,1.9
		c-7.1,1.7-14.2,3.7-21.1,6.2c-6.7,2.3-13.3,4.6-19.9,7.1c-6.3,2.3-12.4,4.9-18.3,8c-5.9,3-11.3,6.8-16.1,11.3
		c-4.6,4.5-8.7,9.6-12.2,15.1c-3.6,5.5-6.6,11.3-9.7,17.1l-10.7,20.3l-5.2,10c-1.5,2.9,2.9,5.6,4.5,2.6L362.6,200L362.6,200z"/>
	<path d="M332.6,307.8L355,294c7.2-4.4,14.2-9,21.5-13.2c11.7-6.8,25.5-11.8,38.9-7.6c6.2,2,11.8,5.5,17.3,8.9
		c3,1.9,6.8,4.7,10.4,2.5c1.7-1.1,2.3-3.3,2.6-5.2c0.7-4.5,0.7-9.8-0.9-14.2c-0.9-2.7-3.1-4-5.3-5.7c-2.9-2.2-5.9-4.3-9-6.2
		c-12.5-7.8-26.2-13.5-40.6-17c-14.7-3.6-29.8-5.1-44.9-4.4c-16.2,0.7-32.2,3.5-47.8,8.1c-15.4,4.7-30.3,10.8-44.5,18.4
		c-14,7.4-27.5,15.8-40.3,25.2c-6.5,4.6-12.8,9.4-19,14.4c-3.1,2.5-6.1,4.9-9.2,7.5c-2.9,2.2-5.2,5-6.9,8.2
		c-1.5,3.2-1.8,6.7,0.1,9.7c0.6,1,1.8,1.5,2.9,1.2c10-1.4,19-6.5,27.8-11.1c9.1-4.9,18.7-9,28.6-12.1c9.8-3.1,20-4.6,30.2-4.6
		c10.3,0.1,20.3,2.6,30.2,5.2c11.3,3,22.7,6.1,34.4,6.2c3.3,0,3.3-5.1,0-5.2c-20.9-0.3-40.2-10.1-61-11.3
		c-21-1.2-41.7,5.7-60.3,14.9c-10.1,5-19.8,11.3-31.1,12.9l2.9,1.2c-1.5-2.5,0-5.2,1.6-7.3c2.1-2.8,5-4.9,7.7-7.1
		c5.8-4.7,11.7-9.4,17.7-13.9c12.2-9.2,25-17.6,38.3-25.2c26.7-15.1,56.2-26.2,86.8-29.4c28.6-2.9,58.2,1.2,84,14.4
		c6.4,3.2,12.4,7,18.1,11.3c1.1,0.8,2.2,1.8,3.4,2.6c0.2,0.1,0.3,0.5-0.1-0.1c0.1,0.1,0.2,0.3,0.2,0.4s0.3,0.7,0,0
		c0.1,0.3,0.2,0.5,0.3,0.8c0.6,1.9,0.9,3.9,0.9,5.9c0,1.1,0,2.3,0,3.4c0,0.9-0.1,1.9-0.4,2.8c-0.1,0.3-0.2,0.7-0.3,0.9
		c-0.2,0.6,0.2-0.5,0,0c0,0.1-0.2,0.3-0.2,0.4c0-0.1,0.4-0.5,0.5-0.5c0.1,0.1-0.3,0.1-0.3,0.1c-0.8-0.2-1.6-0.6-2.3-1
		c-5.7-3.5-11.2-7.1-17.4-9.7c-5.5-2.3-11.4-3.3-17.3-2.9c-7.2,0.5-14.2,2.3-20.8,5.4c-7.2,3.3-13.8,7.6-20.5,11.8l-21.3,13.1
		l-10.7,6.6C327.2,305.1,329.8,309.5,332.6,307.8L332.6,307.8z"/>
	<path d="M192.7,396.1l-5.3-22.9l-2.5-11c-0.8-3.3-1.3-6.8-2.6-9.9c-1.1-2.9-3.5-5.1-6.5-6s-6.4-0.9-9.5-1.2
		c-6.9-0.6-13.9-0.8-20.7,0.8c-3.2,0.8-6.4,2-9.3,3.6c-3.1,1.7-6,3.8-9.1,5.6c-5.5,3.2-11.9,5.5-18.2,5.9
		c-4.7,0.2-10.5-0.6-13.6-4.6c-3.6-4.7-1.4-11.3,2.2-15.4c4.8-5.5,11.8-8.7,17.5-13.2c5.8-4.4,10.8-9.9,14.6-16.1
		c0.5-0.8,0.2-1.9-0.7-2.4c-0.2-0.1-0.5-0.2-0.8-0.2c-20.6-2-40.4,8.5-50.4,26.5c-2.6,4.8-4.4,10-5.4,15.4l2.1-1.2
		c-7.5-2.1-14.9-4.2-22.4-6.4c-3.7-1.1-7.4-2.2-11.1-3.3c-0.7-0.1-1.3-0.4-1.9-0.7c-0.4-0.4-0.2-0.9,0-1.5c0.4-1.5,1-3,1.6-4.4
		c4.6-11.1,12.2-20.6,22-27.4c2.4-1.7,4.9-3,7.4-4.5c2.3-1.3,4.3-4.2,2.1-6.7c-1.7-1.9-4.7-2-7.1-1.7c-3.2,0.4-6.3,1-9.4,1.8
		c-12,3.2-23.4,9.7-31,19.8c-8,10.7-11.1,25.6-6,38.2c0.3,0.9,1.2,1.4,2.1,1.2c0.9-0.3,1.4-1.2,1.2-2.1c-4.4-10.8-2.4-23.2,3.8-32.9
		c6.4-10.2,17.2-16.9,28.6-20.3c2.9-0.9,5.9-1.6,8.9-2.1c1.3-0.3,2.6-0.4,4-0.4c0.5,0,2,0.1,2.3,0.7s-1.1,1.3-1.5,1.6
		c-1.3,0.7-2.5,1.4-3.8,2.1c-2.5,1.5-4.9,3.2-7.2,5.1c-9.1,7.4-16.1,17-20.2,28c-1.2,3-2.6,6.9,1.1,8.8c1.7,0.7,3.4,1.3,5.2,1.7
		l6.2,1.9c8,2.3,16.1,4.6,24.2,6.9c0.9,0.2,1.9-0.3,2.1-1.2c3.3-18.9,17.5-33.9,36.1-38.3c5.4-1.3,10.9-1.6,16.4-1.1l-1.5-2.6
		c-3.4,5.6-7.7,10.5-12.8,14.5c-5.2,4.2-11.2,7.3-16.2,11.7c-4.7,4.1-8.3,10.1-7.4,16.6c0.8,5.6,5.2,9.4,10.4,11
		c5.6,1.6,11.6,0.9,17.1-0.7c3.4-1,6.6-2.3,9.7-3.9c3.1-1.7,6-3.8,9.1-5.6c6.1-3.6,12.6-5.1,19.7-5.2c3.5,0,7,0.1,10.4,0.5
		c1.7,0.1,3.3,0.3,4.9,0.5c1.6,0.1,3.1,0.4,4.5,1.1c3,1.6,3.6,5.4,4.3,8.4l3,12.9l5.9,25.7C189.9,399.1,193.2,398.2,192.7,396.1
		L192.7,396.1z"/>
	<path d="M44.6,359.6c2.4,8.8,5.6,17.3,9.5,25.5c0.8,1.6,2,3.1,4,2.9c0.9-0.2,1.7-0.6,2.4-1.1c0.7-0.3,1.5-0.3,2.2-0.1
		c3.8,1,5.3,5.3,7.6,8c2.4,3,5.9,5,9.7,5.5c1.9,0.3,4.1,0,4.4-2.3c0.2-2-0.6-4.2-1.3-6c-0.7-1.8-1.7-3.8-2.3-5.8
		c-0.7-2.1-1.2-4.3-1.7-6.5c-0.4-2.1-0.8-4.3-1.3-6.4c-0.4-2-0.8-4.1-2.1-5.7c-1.3-1.5-3.6-2.3-5.6-2.9l-7.6-2.5L46.9,357
		c-2.1-0.7-3,2.6-0.9,3.3c8.1,2.7,16.3,5.2,24.4,8c1.6,0.5,2.8,1.1,3.4,2.8c0.5,1.8,0.9,3.7,1.3,5.5c0.6,3.9,1.6,7.8,2.8,11.6
		c0.7,1.8,1.5,3.5,2.2,5.3c0.3,0.8,0.6,1.6,0.8,2.5c0,0.4,0.1,0.8,0.2,1.1v0.2c0.6-0.3,0.8-0.5,0.4-0.5c-0.2,0-0.4-0.1-0.7-0.1
		c-3.3-0.5-6.3-2.3-8.2-5c-2-2.8-3.6-6.1-6.9-7.7c-1.4-0.8-3-1.1-4.6-0.9c-0.9,0.1-1.7,0.4-2.4,0.8c-0.3,0.2-0.6,0.4-0.9,0.5
		c0.2-0.1,0.3,0.1,0.2-0.1c-0.2-0.2-0.2-0.3-0.3-0.4c-1-1.9-1.9-3.9-2.7-6c-0.9-2-1.7-4.1-2.5-6.1c-1.6-4.4-3.1-8.8-4.3-13.2
		c-0.3-0.9-1.2-1.4-2.1-1.2C44.9,357.8,44.3,358.8,44.6,359.6L44.6,359.6z"/>
	<path d="M27.7,399.5c4.4-4.5,10.7-8.8,17.3-7.6c2.8,0.4,5.3,1.8,7.2,3.8c2.4,2.7,2.3,6.3,1.9,9.7c-0.6,4.6-1.5,9.1-2.7,13.6
		c-0.2,0.9,0.3,1.9,1.2,2.1s1.8-0.3,2.1-1.2c1.2-4.5,2.1-9.2,2.7-13.8c0.5-4,0.5-8.3-1.9-11.7c-4.3-6-12.5-7.4-19.2-4.9
		c-4.2,1.7-8,4.3-11,7.6C23.8,398.7,26.2,401.1,27.7,399.5L27.7,399.5z"/>
	<path d="M55,418.9c3.9-6.3,10.5-11.9,17.8-13.4c1.9-0.5,3.8-0.4,5.7,0.3c1.7,0.9,3.2,2.2,4.4,3.8c2.2,2.7,3.7,6,4.3,9.4
		c0.7,3.9,0.3,7.9-1.1,11.6c-0.2,0.9,0.3,1.9,1.2,2.1c0.9,0.2,1.9-0.3,2.1-1.2c3-7.9,1.8-16.7-3.2-23.4c-2.8-3.8-6.5-6.6-11.4-6.3
		c-4.5,0.2-8.8,2.3-12.5,4.7c-4.1,2.8-7.6,6.4-10.2,10.7C50.9,419,53.9,420.7,55,418.9L55,418.9z"/>
	<path d="M42.3,267.9c2.8,5.3,6.4,10.1,10.7,14.3c1.9,1.9,4.5,4.7,7.4,4.4c1.4-0.3,2.6-0.8,3.8-1.6c1.2-0.7,2.4-1.5,3.6-2.2
		c8.8-5.8,17-12.4,24.5-19.7c15.4-14.5,29.1-30.8,45.1-44.7c8.8-7.8,18.6-14.4,29.2-19.6c2-0.9,0.3-3.9-1.7-3
		c-18.6,8.9-34,23.1-48.3,37.8s-28.1,30.1-44.8,42.2c-2.3,1.7-4.6,3.2-7,4.7c-1.3,0.8-2.5,1.6-3.8,2.3c-0.6,0.4-1.4,0.4-2,0
		s-1.2-0.9-1.8-1.4c-4.9-4.3-8.9-9.4-11.9-15.2C44.2,264.2,41.3,266,42.3,267.9L42.3,267.9z"/>
	<path d="M352.4,346c7-7.1,16.2-11.7,26.1-12.9c9.1-0.9,19.9,0.9,25.3,9c3,4.5,4.9,9.9,6.5,15.1c1.6,5.4,2.6,10.9,3.1,16.4
		c0.9,11.5-0.9,22.7-4.2,33.6c-1.7,5.5-3.5,11.1-5.7,16.5c-2,5-5.1,9.4-8.9,13.1c-7.4,7.2-16.7,13.2-26.6,16.1
		c-4.9,1.4-10.6,2.5-15.7,1.4s-9-5.2-11.8-9.2c-6.3-9-7.8-20.1-8.5-30.8c-0.7-11.4-1.6-23.2,1.3-34.3c2.8-10.2,7.7-19.8,14.2-28.1
		C349,349.9,350.7,347.9,352.4,346c1.5-1.7-1-4.2-2.5-2.5c-7.7,8.4-13.8,18.1-17.9,28.7c-2,5.2-3.3,10.6-3.8,16
		c-0.5,6.3-0.5,12.6-0.1,18.9c0.5,11.9,1,24.1,6.4,34.9c2.3,4.8,5.7,9,9.9,12.3c2.3,1.8,4.9,3,7.8,3.6c3,0.4,5.9,0.4,8.9,0
		c11.1-1.4,21.2-6.7,29.9-13.4c4.5-3.3,8.5-7.3,11.8-11.9c3.4-4.9,5.3-10.8,7.2-16.4c4-11.5,7.2-23.4,7.2-35.7
		c0-12-2.5-23.8-7.4-34.8c-2.2-5-5.1-9.3-9.9-12.2c-4.4-2.6-9.4-4-14.5-4.2c-10.6-0.5-21.1,2.7-29.7,9c-2.1,1.6-4.1,3.3-6,5.1
		C348.3,345.1,350.8,347.6,352.4,346L352.4,346z"/>
	<path d="M742.1,274.6c5.8-18.2,4-37.9-5.1-54.7c-2.1-3.8-4.9-7.5-8.9-9.3c-3.9-1.7-8.3-1.9-12.4-0.6c-8.8,2.6-14.3,10.4-17.9,18.4
		c-8.1,18.2-10.2,38.7-8.9,58.5c0.3,5.2,0.9,10.3,1.9,15.3c1.3,5,3,9.9,5.3,14.5c1.8,4,3.6,8.4,7.8,10.4c3.9,1.8,8.5,1.2,12.4-0.5
		c8-3.3,14.1-10.4,18.1-17.9c4.6-8.7,6.6-18.4,8-28.1c0.3-2.5,0.7-4.9,0.9-7.4c0.1-0.9-0.9-1.7-1.7-1.7c-0.9,0-1.7,0.8-1.7,1.7
		c-2.1,16.7-4.9,36-19.3,46.9c-3.1,2.4-6.8,4.4-10.7,4.6c-1.8,0.2-3.6-0.2-5.1-1.1c-1.6-1.1-3-2.7-3.8-4.5
		c-2.1-4.1-3.9-8.4-5.4-12.7c-1.5-4.6-2.4-9.3-2.8-14.2c-1.8-18.4-0.8-37.4,5.2-55c2.6-7.7,6.2-16.3,13-21.2
		c3.1-2.3,6.9-3.5,10.7-3.4c3.9,0.1,7.6,2.1,9.9,5.2c2.5,3.3,4.4,7,5.9,10.9c1.6,4.1,2.8,8.4,3.6,12.8c1.5,8.6,1.3,17.4-0.5,25.9
		c-0.5,2.1-1,4.2-1.7,6.2C738.1,275.8,741.4,276.7,742.1,274.6L742.1,274.6z"/>
	<path d="M366.8,408c4.5-3.4,8.8-7.1,10.5-12.6c0.9-2.9,0.9-5.9,0.1-8.8c-0.4-1.5-0.8-2.9-1.2-4.4c-0.4-1.5-0.7-2.8-2.3-3.5
		c-1.4-0.6-2.8-1-4.3-1.5s-3-1.1-4.5-1.6c-1.2-0.4-2.5-0.1-3.4,0.7c-1.3,1-2.5,2.2-3.8,3.3c-1.1,0.9-2.2,1.9-3.2,3
		c-1,1.2-1.6,2.6-1.7,4.1c-0.5,3-0.7,6.1-0.4,9.1c0.3,3.1,1.5,6,3.7,8.2c1.1,1,2.5,1.8,4,2.2l5.1,1.8c2.1,0.8,3-2.6,0.9-3.3
		l-3.4-1.2c-1.1-0.3-2.3-0.8-3.3-1.3c-1.8-1-2.7-3.2-3.2-5.1c-0.5-2.3-0.6-4.8-0.2-7.1c0.1-1.2,0.3-2.4,0.5-3.6
		c0.3-1.3,1.2-1.9,2.1-2.8s1.8-1.7,2.8-2.5l1.4-1.2c0.3-0.2,0.9-0.9,1.2-1c0.4,0.1,0.8,0.2,1.2,0.4l1.7,0.6l3.9,1.4
		c0.6,0.1,1.2,0.3,1.7,0.6c0,0-0.3-0.4-0.2-0.1c0.1,0.3,0.2,0.6,0.2,0.9c0.3,1.3,0.7,2.5,1,3.8c0.8,2.3,0.9,4.7,0.5,7
		c-1.2,5.2-5.1,8.5-9.2,11.6c-0.8,0.5-1.1,1.5-0.6,2.4C364.9,408.3,366,408.5,366.8,408L366.8,408z"/>
	<path d="M703.2,276c-0.3-4.2-0.6-8.6,0.5-12.8c0.5-1.9,1.3-3.7,2.4-5.4c0.8-1.2,2.2-2.7,3.8-2.1c0.9,0.4,1.7,0.9,2.4,1.5
		c0.3,0.2,1.1,0.6,1.3,0.9c0,0-0.1-0.4,0,0.1c0,0.4,0,0.8,0,1.1l-0.3,7.1c-0.1,2.1,0,4.5-0.6,6.5c-0.7,1.9-1.6,3.7-2.8,5.4
		c-0.6,0.9-1.3,1.8-2,2.7c-0.7,0.8-1.1,0.9-1.8,0c-1.4-1.8-2.2-4.3-2.8-6.5c-0.6-2.1-4-1.2-3.3,0.9c0.7,2.6,1.8,5.1,3.3,7.4
		c1.5,2.1,4.4,3,6.5,1.1c1.8-1.9,3.3-4,4.6-6.3s2.1-4.9,2.1-7.6c0.2-3,0.3-6.1,0.4-9.2c0.1-1.3,0.4-2.9-0.1-4.1s-1.9-2-2.9-2.8
		c-2-1.4-4.2-2.6-6.6-1.6c-2.2,0.9-3.8,3-5,5.1c-3,5.7-2.9,12.1-2.4,18.3C699.9,278.2,703.3,278.2,703.2,276L703.2,276z"/>
	<path d="M730.5,182.7c-3,2.8-4.9,6.4-6.8,10c-1.8,3.4-3.7,7-6.6,9.6c-7.7,6.8-19.1,3.3-27.8,1.1c-32.3-8-66-8.9-98.7-2.7l1.9,2.5
		c8-13,17.7-24.8,28.9-35.2c5.7-5.3,11.6-10.2,17.1-15.7c4.8-4.8,9.5-9.8,14.6-14.4c5.7-5,11.8-9.4,18.9-12.1
		c2.1-0.8,1.2-4.1-0.9-3.3c-13.2,4.9-23,15.2-32.7,25c-5.5,5.6-11.3,10.8-17.2,16c-12.3,11.1-23,23.9-31.7,38
		c-0.5,0.8-0.1,1.9,0.7,2.4c0.4,0.2,0.8,0.3,1.2,0.2c21.1-3.9,42.7-4.9,64.1-2.8c10.7,1,21.3,2.8,31.7,5.3
		c9.5,2.3,20.3,5.7,29.5,0.3c8.3-4.9,9.6-15.3,16.2-21.7C734.5,183.6,732.1,181.2,730.5,182.7L730.5,182.7z"/>
	<path d="M447.3,62.5c11.7-1.3,23.5-2,35.3-2.1c2.5,0,5,0.1,6-2.6c0.9-2.3,0.5-5.3,0.3-7.7c-0.2-2.8-0.7-5.6-1.1-8.4
		c-0.3-2.5-0.9-4.9-1.7-7.3c-2-5.1-7-8.3-12.5-8c-2.2,0.2-2.2,3.6,0,3.4c3.9-0.3,7.6,1.9,9.2,5.5c0.8,2.1,1.3,4.2,1.6,6.4
		c0.4,2.4,0.7,4.8,1,7.2c0.2,2.3,0.6,4.9,0.2,7.2c-0.2,0.9-0.6,0.8-1.5,0.8h-4c-5.1,0.1-10.2,0.3-15.4,0.6
		c-5.8,0.4-11.6,0.9-17.4,1.5c-0.9,0-1.7,0.8-1.7,1.7C445.5,61.7,446.3,62.4,447.3,62.5L447.3,62.5z"/>
	<path d="M481.4,31.2c6.8-0.4,13.5-0.4,20.3,0.1c3.3,0.3,6.7,0.8,9.9,1.7c2.7,0.6,5.3,1.7,7.7,3.2c2.3,1.5,3.7,4,3.7,6.7
		c0,3.2-1.5,6.2-3,9c-1.2,2.4-2.6,4.8-5.1,6s-5.6,1.1-8.4,1c-8.1-0.3-16.1-0.8-24.1-1.5c-2.2-0.2-2.2,3.3,0,3.4
		c7.8,0.7,15.6,1.2,23.4,1.5c3.2,0.1,6.5,0.2,9.6-0.9c3.2-1.2,5.2-3.6,6.9-6.5c3.2-5.8,6.5-13.2,1.7-19.1c-4-5-11.5-6.5-17.4-7.4
		c-8.3-1.2-16.7-0.9-25.1-0.7C479.2,27.9,479.2,31.3,481.4,31.2L481.4,31.2z"/>
	<path d="M520.5,88.3c12.9-2.6,26-4.2,39.1-4.7c3.3-0.1,6.6-0.2,9.9-0.2c3.1-0.1,6.2,0.1,9.2,0.5c5.7,1,11,3.5,15.4,7.2
		c5.1,4.2,9.1,9.5,12.8,15l1.5-2.6c-7,0.6-13.5,3.1-20.3,4.6s-13.8,2.1-20.8,3l-21.3,2.6c-1.6,0.2-3.3,0.5-4.9,0.6
		c-1.4,0.1-2.5-2-3.3-3c-2.1-2.6-4.2-5.3-6.2-8c-4.3-6-8.3-12.3-11.8-18.9c-1-2-4-0.2-3,1.7c3.3,6,6.9,11.9,10.8,17.5
		c2,2.8,4.1,5.5,6.2,8.2c1.1,1.3,2.2,2.7,3.3,4c0.9,1.2,2.4,1.9,4,1.9c1.8-0.1,3.6-0.4,5.3-0.7l5.5-0.7l11.1-1.4
		c7.3-0.9,14.6-1.7,21.8-2.9c4-0.7,7.9-1.6,11.8-2.7c3.8-1.2,7.7-2,11.7-2.4c1,0,1.7-0.8,1.7-1.8c0-0.3-0.1-0.6-0.2-0.8
		c-6.7-10-15.1-19.8-27.2-23.1c-6.4-1.7-13.2-1.3-19.7-1.2c-6.9,0.2-13.8,0.7-20.8,1.4c-7.7,0.8-15.3,2-22.8,3.5
		C517.4,85.5,518.3,88.8,520.5,88.3L520.5,88.3z"/>
	<path d="M536.7,80.8c0.3-3.6-0.7-7.1-1.9-10.5c-1-2.9-2-6.1-4.5-8.1s-5.8-2.5-8.9-2.8c-3.7-0.3-7.5-0.4-11.2-0.6
		c-2.2-0.1-2.2,3.3,0,3.4c3.2,0.2,6.4,0.3,9.6,0.5c2.7,0.2,5.9,0.3,8.2,1.9c2.1,1.5,2.8,4.4,3.7,6.8c1,3.1,1.9,6.1,1.7,9.4
		C533,83,536.4,83,536.7,80.8L536.7,80.8z"/>
	<path d="M531,65.6l12.3-1.6c4-0.5,8-1.2,12.1-1.6c1.4-0.1,2.2,0,2.4,1.5c0,1.4,0.3,2.8,0.7,4.1c1.3,3.1,4.9,3,7.3,5
		c2.6,2.1,3.9,5.5,5.1,8.5c0.8,2,4.1,1.2,3.3-0.9c-1.2-3.1-2.5-6.2-4.7-8.7c-1-1.2-2.3-2.2-3.8-2.9c-1.2-0.6-3.4-0.9-4.1-2.2
		c-0.6-1.1-0.4-2.8-0.6-4c-0.3-1.6-1.3-2.9-2.8-3.5c-1.8-0.7-3.8-0.2-5.7,0.1l-6.5,0.8l-15.1,2c-0.9,0-1.7,0.8-1.7,1.7
		S530,65.6,531,65.6L531,65.6z"/>
	<path d="M519.3,83.8c-7.8-4.2-15.9-7.9-24.1-11.2c-4-1.6-8.2-2.9-12.4-3.9c-2.2-0.6-4.5-1-6.7-1.1c-2.1,0.1-4.2,0.7-6,1.7
		c-4.2,2.5-8.2,5.5-11.6,9c-1.6,1.5,0.8,4,2.4,2.4c2.9-2.8,6.1-5.4,9.5-7.6c1.5-1.2,3.3-1.9,5.3-2.2c2.1,0,4.2,0.3,6.3,0.9
		c7.9,2,15.6,4.9,23,8.5c4.3,2,8.5,4.2,12.7,6.3C519.5,87.7,521.3,84.8,519.3,83.8L519.3,83.8z"/>
	<path d="M473.8,67.5c-10.4-4.8-22-6.2-33.2-4c-2.2,0.4-1.3,3.8,0.9,3.3c10.3-2,21-0.7,30.6,3.7C474.1,71.5,475.9,68.5,473.8,67.5
		L473.8,67.5z"/>
	<path d="M524.7,44.5c4.6,0.6,9.2,0.7,13.8,0.4l-1.7-2.2l-1.8,5.2c-0.5,1.6-1.1,3.2-1.9,4.7c-0.9,1.3-1.7,2.7-2.3,4.2
		c-0.4,1-0.7,2.5-1.6,3.1c-0.8,0.5-1.1,1.5-0.6,2.4c0.5,0.8,1.5,1.1,2.4,0.6c1.3-1,2.2-2.4,2.7-3.9c0.2-0.7,0.5-1.4,0.8-2
		c0.4-0.8,0.9-1.6,1.5-2.3c0.9-1.6,1.7-3.3,2.2-5.1l2.1-5.8c0.2-0.9-0.3-1.9-1.2-2.1c-0.1,0-0.3-0.1-0.4-0.1
		c-4.6,0.3-9.2,0.1-13.8-0.5c-1,0-1.7,0.8-1.7,1.8C523.1,43.7,523.8,44.4,524.7,44.5z"/>
	<path d="M551.5,60.9l3-11.6c0.5-1.9,0.9-3.8,1.5-5.7c0.2-0.8,0.3-1.1,1.1-1.4c0.9-0.3,1.7-0.6,2.6-0.8c7.1-2,14.6-1.4,21.8-1.2
		l23.7,0.7c3.9,0.1,7.8,0.1,11.7,0.5c3.8,0.4,7.6,1.1,11.3,2.2c8.4,2.2,17.1,3.3,25.9,3.3c2.2,0,2.2-3.5,0-3.4
		c-8,0.1-16.1-0.9-23.8-2.9c-3.9-1.1-7.8-1.9-11.8-2.4c-3.9-0.5-7.9-0.5-11.9-0.6l-24.9-0.7c-7.6-0.2-15.4-0.7-22.8,1.3
		c-1.8,0.5-4.1,0.9-5.3,2.4s-1.5,4-2,5.9L548.1,60C547.6,62.1,550.9,63,551.5,60.9L551.5,60.9z"/>
	<path d="M652.7,45.2c-1.1,9-4.9,17.4-9.3,25.2c-2.3,4-4.8,8-7.4,11.9c-2.6,4-5.1,8.2-8,12c-3.2,4.2-7.3,7.7-11.3,11
		c-0.7,0.7-0.7,1.8,0,2.4s1.8,0.6,2.4,0c3.9-2.9,7.4-6.3,10.6-10c3.1-4,5.9-8.2,8.5-12.4c5.2-7.9,10.2-15.8,13.8-24.6
		c2.1-4.9,3.4-10.1,4.1-15.4c0-0.9-0.8-1.7-1.7-1.7C653.5,43.6,652.8,44.3,652.7,45.2L652.7,45.2z"/>
	<path d="M617.4,108.5l13.8,4.7c4.3,1.5,8.7,2.5,13.2,3.7c4.3,1.1,8.6,2.4,12.8,3.9c3.3,1.2,6.8,2.7,8.8,5.8c1.2,1.9,4.2,0.1,3-1.7
		c-2.1-3.4-5.6-5.3-9.2-6.7c-4.3-1.7-8.7-3.1-13.1-4.2c-4.7-1.2-9.4-2.3-14-3.8l-14.3-4.9C616.2,104.5,615.3,107.8,617.4,108.5
		L617.4,108.5z"/>
	<path d="M647.7,116.1c1.2-3.7,2.3-7.6,3.8-11.2c1.5-3.8,3.4-7.6,5.2-11.3c0.9-2-2-3.8-3-1.7c-1.8,3.9-3.8,7.7-5.4,11.7
		c-1.5,3.8-2.6,7.7-3.9,11.6C643.7,117.3,647,118.2,647.7,116.1L647.7,116.1z"/>
	<path d="M168,411.2c-5.7,2.3-11.5,4.1-17.4,5.4c-5.7,1.5-11.6,2.2-17.5,2.1c-5-0.2-11.4-1.3-14.8-5.5c-1.7-2-2.1-4.7-2.6-7.2
		c-0.5-2.8-1.4-5.5-2.5-8c-3-6.6-6.1-13.1-9.2-19.7l-1.9,2.5c6.9,2.5,14.3,0.7,20.8-2c7-3,13.8-6.4,20.4-10.2c3.1-1.7,6.1-4,9.6-5
		c0.5-0.1,1.6-0.5,2-0.3c0.4,0.3,0.5,1.4,0.6,1.8c0.5,1.7,1,3.4,1.6,5.1c2.3,6.7,5.2,13.1,7.6,19.7c1.3,3.6,2.4,7.3,3.2,11.1
		c0.4,1.9,0.6,3.8,0.7,5.7c0.1,1.2,0.3,3.2-0.9,3.8c-2,1-0.2,4,1.7,3c3.1-1.6,2.8-5.7,2.5-8.6c-0.4-3.7-1.1-7.3-2.2-10.9
		c-2.1-7.2-5.3-14-7.9-21c-0.7-1.8-1.3-3.6-1.9-5.4c-0.5-1.6-0.9-3.4-1.5-5c-1.6-4.1-6.3-2.6-9.3-1.2c-3.6,1.7-7,3.9-10.4,5.9
		s-7.3,3.9-11,5.7c-7.6,3.6-16.3,7.6-24.7,4.5c-1.5-0.6-2.5,1.3-1.9,2.5l8.5,18.3c1.3,2.7,2.3,5.6,2.8,8.6c0.5,2.6,1.1,5.4,2.6,7.7
		c3.3,4.8,9.5,6.7,15,7.3c6,0.7,12.1-0.1,18-1.3c7.2-1.4,14.2-3.5,20.9-6.2c0.9-0.3,1.4-1.2,1.2-2.1
		C169.8,411.6,168.9,411.1,168,411.2z"/>
	<path d="M103.1,377.6c-2.6-2.3-5.6-4-8.9-5c-1.5-0.4-3-0.6-4.5-0.9c-1.3-0.1-2.4-1.1-2.6-2.5c-0.5-2.1-1.1-5.9,1.2-7.1
		c1.4-0.5,2.9-0.7,4.4-0.6c1.9,0,3.8,0.2,5.7,0.5c0.9,0.2,1.8-0.3,2.1-1.2c0.2-0.9-0.3-1.9-1.2-2.1c-5.1-0.9-14.6-2.2-15.8,4.9
		c-0.2,1.4-0.2,2.7,0,4.1c0.1,1.4,0.4,2.9,0.9,4.2c1.5,3,4.7,3.1,7.6,3.7c3.3,0.7,6.3,2.2,8.8,4.4
		C102.3,381.5,104.7,379.1,103.1,377.6L103.1,377.6z"/>
	<path d="M46,357.5c-3.4-1.6-6.9-3-10.4-4.2c-0.8-0.3-1.7-0.6-2.5-0.8c-0.8-0.4-1.7-0.6-2.6-0.6c-2,0.1-2.5,2.1-2.6,3.8
		c-0.3,3.8,1.3,7.4,2.4,10.9c1.2,3.6,2.1,7.3,3,11.1c0.9,4.2,1.7,8.5,2.2,12.8c0,0.9,0.8,1.7,1.7,1.7s1.7-0.8,1.7-1.7
		c-1-8.6-2.8-17.1-5.5-25.4c-0.6-2-1.4-3.9-1.9-5.9c-0.3-1-0.3-2.1-0.3-3.2c0-0.2,0-0.4,0.1-0.6c0.2-0.7,0-0.6-0.7,0.1
		c0.5,0.2,1.1,0.4,1.7,0.5c4,1.3,8,2.9,11.9,4.6C46.2,361.4,48,358.4,46,357.5L46,357.5z"/>
	<path d="M242.9,381.7c-2.9-12.7,0.8-25.9,7.6-36.9c7.1-11.5,17.6-20.7,28.4-28.7c3.1-2.3,6.3-4.6,9.5-6.8c3.2-2.2,6.5-4.2,10.3-4.5
		c2.3-0.1,2.3-3.6,0-3.4c-3.6,0.3-7,1.6-10,3.6c-3.1,1.9-6.1,4.1-9,6.3c-5.9,4.2-11.5,8.7-16.9,13.6c-10.4,9.6-19,21.2-22.7,34.9
		c-2.1,7.5-2.3,15.3-0.6,22.8C240,384.7,243.4,383.8,242.9,381.7L242.9,381.7z"/>
	<path d="M407.4,305.8c-11.1-8.2-23.8-13.8-37.3-16.6c-3.8-0.8-7.7-1.4-11.6-1.7c-2.2-0.2-2.2,3.2,0,3.4
		c17.1,1.5,33.4,7.7,47.2,17.9c0.8,0.5,1.9,0.2,2.4-0.6C408.4,307.4,408.1,306.3,407.4,305.8L407.4,305.8z"/>
	<path d="M612.5,221.4c2.3-3.5,3.3-7.7,5.5-11.3c2.1-3.3,4.7-6.3,7.9-8.6c0.8-0.5,1.1-1.5,0.6-2.4c-0.5-0.8-1.5-1.1-2.4-0.6
		c-3.5,2.5-6.4,5.7-8.8,9.3c-2.4,3.8-3.5,8.1-5.9,11.8C608.3,221.5,611.3,223.2,612.5,221.4z"/>
	<path d="M25.7,403.9c2.5,2.3,4.8,5,6.6,7.9c0.9,1.4,1.7,3,2.3,4.5c0.7,1.8,1.2,3.8,1.4,5.7c0.3,0.9,1.2,1.4,2.1,1.2
		c0.9-0.3,1.4-1.2,1.2-2.1c-0.2-2.1-0.7-4.1-1.5-6c-0.7-1.7-1.6-3.4-2.6-5.1c-1.9-3.2-4.3-6.1-7.1-8.6
		C26.5,400,24.1,402.4,25.7,403.9L25.7,403.9z"/>
	<path d="M57.2,417.3c3.6,0.1,5.6,4.3,7.2,6.9c1.9,3.2,3.6,6.7,3.9,10.5c0.1,2.2,3.6,2.2,3.4,0c-0.3-4.7-2.3-8.9-4.7-12.8
		c-2.2-3.8-4.9-7.9-9.8-8.1C55,413.8,55,417.3,57.2,417.3L57.2,417.3z"/>
	<path d="M617.2,105.5c-2.6-1-5.3-1.5-8.1-1.6c-0.7,0-1.2,0.5-1.2,1.2s0.5,1.2,1.2,1.2l1.9,0.1l0.9,0.1l0.5,0.1c-0.1,0-0.1,0,0,0
		h0.3c0.6,0.1,1.2,0.2,1.8,0.4c0.3,0.1,0.6,0.2,0.9,0.3l0.4,0.2l0.2,0.1l0.2,0.1c0.6,0.3,1.3,0.1,1.6-0.4
		C618,106.6,617.8,105.8,617.2,105.5L617.2,105.5z"/>
</g>
</svg>
