<?xml version="1.0" encoding="utf-8"?>
<!-- Generator: Adobe Illustrator 24.0.2, SVG Export Plug-In . SVG Version: 6.00 Build 0)  -->
<svg version="1.1" id="Rust" xmlns="http://www.w3.org/2000/svg" xmlns:xlink="http://www.w3.org/1999/xlink" x="0px" y="0px"
	 viewBox="0 0 236.5 236.4" style="enable-background:new 0 0 236.5 236.4;" xml:space="preserve">
<style type="text/css">
	.st0{fill:#E2201B;}
</style>
<path id="Red" class="st0" d="M232.1,212.8c1.2,7.9-5,15.5-12.4,18.6s-15.8,2.8-23.8,2.4c-51.1-2.1-102.2-2.6-153.3-1.5
	c-8.3,0.2-17.1,0.3-24.4-3.7c-6.3-3.4-10.8-9.7-13.1-16.5s-2.8-14.1-2.5-21.3L4.2,30.8c-0.5-8.7-1-18.4,7-23.1
	C15.7,5,21.3,4.6,26.6,4.3c50.1-3,100.4-1.7,150.6-0.4l33.9,0.9c7.9,0.2,17.3,1.2,21.1,8.2c1.9,3.5,1.9,7.6,1.8,11.6l-2.4,138.1
	c-0.3,17.2-0.6,34.4,1.3,51.5"/>
<path id="Outline" d="M229.7,212.8c0.9,9.4-7.1,15.9-15.6,17.8c-9.1,2.1-19,0.8-28.2,0.4c-19.6-0.7-39.1-1.2-58.7-1.5
	c-19.9-0.3-39.8-0.3-59.7-0.1c-9.4,0.1-18.8,0.4-28.2,0.5c-9.1,0.1-18.7-0.7-25.4-7.7c-11.1-11.6-8.9-29.1-8.8-44l0.5-48.2l0.9-95.9
	c0-5.5-0.9-11.1,0.4-16.5C9.3,7.6,19.9,7,28.6,6.5C38.1,6,47.7,5.6,57.3,5.3c39.3-1.1,78.7-0.1,118,0.9L205.2,7
	c7.2,0.2,17.3-0.7,23.1,4.6c3.6,3.4,3.5,8.4,3.5,12.9c-0.1,5.3-0.2,10.5-0.3,15.8l-0.5,29.6c-0.7,38.5-2.1,77.1-1.8,115.6
	c0.1,9.6,0.5,19.1,1.5,28.6c0.3,3,5.1,3.1,4.8,0c-2.1-20.4-1.5-40.9-1.1-61.4l1.1-64.1c0.4-21,0.7-42.1,1.1-63.1
	c0.1-7.1-0.4-14.4-6.8-18.8c-5.7-3.9-12.9-4.2-19.5-4.4c-42.7-1.2-85.4-2.6-128.1-2.2C71.5,0.2,60.9,0.4,50.4,0.7
	c-10,0.4-20.3,0.4-30.2,1.7C13.6,3.3,6.9,6,3.8,12.3c-2.9,5.7-2.2,12.3-2,18.5c0.6,29.5-0.6,59-0.9,88.5l-0.5,55.4
	c-0.1,14.1-2,30.1,4.5,42.9c3.2,6.7,8.8,11.9,15.7,14.7c8.2,3.1,17.3,2.5,26,2.3c21.2-0.4,42.5-0.6,63.7-0.4s42.5,0.5,63.7,1.2
	c10.1,0.3,20.4,1.2,30.6,1c7.6-0.1,15.6-1.4,21.8-6.2c5.4-4.2,8.9-10.5,8.2-17.4C234.2,209.8,229.4,209.7,229.7,212.8L229.7,212.8z"
	/>
<g id="Rads">
	<path d="M34.1,152.6c2-16.5,1.9-33.3-0.3-49.8l42.2,9.6c0.5,0.1,0.9,0.3,1.2,0.6c0.2,0.3,0.3,0.7,0.3,1.1l1.2,27.1
		c0.1,0.8,0,1.6-0.4,2.3c-0.4,0.5-1,0.8-1.7,1c-13.5,4.8-27.6,7.6-41.9,8.3"/>
	<path d="M141.1,163.4c3.7-4.6,8.3-8.4,12.9-12.1l8.3-6.8c0.8-0.7,1.7-1.3,2.7-1.5c1.2-0.1,2.4,0.3,3.4,0.9c4.6,2.6,9,5.5,13.1,8.8
		l19.4,14.4c-1.6,1.9-3.9,3-5.8,4.6c-1,0.9-1.9,1.9-2.7,2.9c-8.4,9.8-17.5,19-26.6,28.2c-7-13.7-14.8-26.9-23.4-39.5"/>
	<path d="M111.9,78.3c-4.5-14.4-8-29.1-10.3-44c16.5,1.3,33.1,1.6,49.7,0.9c0.3,0,0.6,0,0.7,0.2c0.1,0.2,0.1,0.4,0,0.6
		c-2.1,13.6-4.7,27.1-7.6,40.5c-0.1,0.7-0.4,1.3-0.8,1.8c-0.5,0.3-1.1,0.5-1.7,0.5c-10.1,1.1-20.2,1.2-30.3,0.3"/>
	<path d="M111.2,101.8V86.6c2-0.6,4.1-0.9,6.1-0.6l5.7,0.2l18.3,0.7c0.4,0,0.8,0.1,1.1,0.2c0.8,0.4,0.9,1.5,0.9,2.3l-0.1,11.5
		c0,0.2,0,0.4-0.1,0.6c-0.2,0.2-0.4,0.2-0.7,0.2c-10.3,0.1-20.7-0.1-31-0.6"/>
	<path d="M85.3,143.9c0-10.6,0.4-21.1,1.2-31.6c4.4-0.1,8.9,0,13.3,0.3c0.3,0,0.6,0.1,0.8,0.2c0.2,0.2,0.3,0.4,0.3,0.7
		c0.7,3.6,0.1,7.3-0.3,10.9c-0.6,6.3-0.4,12.7,0.6,18.9c0.2,0.4,0,0.8-0.4,1c-0.1,0.1-0.3,0.1-0.4,0c-5.2,0.5-10.4,0.8-15.6,0.9"/>
	<path d="M112.9,123.7c3.6-3.2,7.2-6.4,11-9.4c3.7,3.2,7.2,6.6,10.6,10.1c0.2,0.2,0.3,0.4,0.3,0.7c-0.1,0.2-0.2,0.3-0.3,0.4
		l-11.3,9.7c-3.5-3.7-6.9-7.5-10.2-11.3"/>
	<path d="M125,147.6c1.3-2.5,3.5-4.3,5.7-6c5.7-4.6,11.2-9.6,16.4-14.8c0.3-0.4,0.8-0.5,1.2-0.3c0.1,0.1,0.2,0.2,0.3,0.3
		c3.2,2.9,6.1,6.1,8.5,9.7"/>
	<path d="M125.2,147.7c3,3.9,6.4,7.6,10.1,10.9c0.2,0.2,0.4,0.3,0.6,0.3c0.2,0,0.4-0.1,0.6-0.3c7.3-6.8,14.3-14,20.9-21.5"/>
</g>
</svg>
