<?xml version="1.0" encoding="utf-8"?>
<!-- Generator: Adobe Illustrator 24.0.2, SVG Export Plug-In . SVG Version: 6.00 Build 0)  -->
<svg version="1.1" id="Twitter" xmlns="http://www.w3.org/2000/svg" xmlns:xlink="http://www.w3.org/1999/xlink" x="0px" y="0px"
	 viewBox="0 0 286.4 224.4" style="enable-background:new 0 0 286.4 224.4;" xml:space="preserve">
<style type="text/css">
	.st0{fill:#B3FFFF;}
</style>
<path id="Fill" class="st0" d="M91.6,175.6c-6.5,5.4-14.1,9.5-22.2,12c-2.6,0.8-4.6,1.2-7.5,1.9c-7.2,1.5-17.4,3.7-30.3,6.1
	c23.4,22.6,71.1,30.5,103.4,26.5c22.1-2.8,44.1-8.6,63.4-19.7s35.8-28,43.9-48.7s7-45.5-5.2-64.2c-1.2-1.9-2.7-4-2.3-6.2
	c0.4-2.7,3.1-4.3,5.4-5.5l44.8-23.6c-9.7-3.1-18.4-5.7-28.6-5.9c-8.9-0.2-19.2,1.8-27.8,3.8c8.8-4.3,21.1-6.4,29.4-11.6
	c8.3-5.2,12.4-13.5,20.1-19.6c-21.2,0.4-42.4,3.6-62.7,9.6C211.1,12.2,197.8,0.2,179,1.3c-9.5,0.5-38.9,5.6-49,19.5
	c-8.4,11.5-14.4,23.5-12.4,36.1c-7.7,5.3-16.5,8.7-25.8,9.9c-14.5,1.8-39.3-3.1-53.5-6.9S11.5,50.2,1.2,39.8
	c2.4,5,8.6,17.8,13.6,25.5c0.9,1.4,2.1,3.1,2.1,3.1c3.5,5.2,5.3,8.3,7.2,10.9c2.9,4,6.4,8.9,11.1,15.3c-2.2-0.3-5.5-1.9-8.8-3.8
	c-3.6-2.2-4.8-3.5-8.4-6.6c-3-2.6-6.4-4.7-10.1-6.3c4,12.9,8.9,22,13.4,27c1.5,1.6,2.6,2.7,6.7,6.8c8.2,8,18.6,16.1,22.8,20.2
	c-4.6-1.7-13.2-6.9-19-10.5c-5.1-3.1-9.8-6.8-14-10.9c0,5.7,8.6,20,15.1,26.8c0,0,17.1,22.3,39.1,29.8
	C78.8,169.4,85.1,172.8,91.6,175.6"/>
<path id="Outline" d="M90.7,174.8c-6.2,5.1-13.3,8.9-20.8,11.4c-7.3,2.4-15.1,3.6-22.6,5.1c-5.3,1.1-10.7,2.1-16,3.1
	c-0.7,0.2-1.1,0.9-0.9,1.6c0.1,0.2,0.2,0.4,0.3,0.5c7.4,7.1,16.3,12.2,25.6,16.2c10.3,4.3,21.1,7.3,32.1,9.1
	c10.8,1.9,21.7,2.7,32.7,2.5c12-0.4,23.9-2,35.6-4.8c25.4-5.8,50.1-17.1,68.1-36.4c8.2-8.7,14.7-18.9,19-30
	c4.4-11.8,5.9-24.4,4.3-36.9c-0.8-6-2.4-12-4.7-17.6c-1.2-2.8-2.6-5.6-4.2-8.2c-1.5-2.5-4.6-5.8-2.4-8.7c0.9-1,2.1-1.9,3.3-2.5
	c1.7-1,3.5-1.8,5.2-2.7l10-5.3l20.4-10.7l10-5.3c0.6-0.4,0.8-1.2,0.4-1.8c-0.2-0.3-0.4-0.4-0.7-0.5c-9.4-3-18.8-5.8-28.7-6
	c-9.6-0.2-19.2,1.7-28.4,3.8l1,2.3c7.1-3.5,15-5.1,22.4-8.1c3.5-1.4,6.9-3.2,9.9-5.5c2.9-2.4,5.7-5.2,8.1-8.1
	c2.8-3.5,5.9-6.7,9.3-9.6c0.9-0.7,0.1-2.2-0.9-2.1c-21.4,0.4-42.6,3.6-63.1,9.6l1.5,0.9c-2.2-9.4-7.1-18.3-15.1-24
	c-7.3-5.2-16.3-6.8-25.1-5.9c-8,0.8-16,2.6-23.7,5.1c-8.2,2.7-17,6.6-22.7,13.4c-4.5,5.5-8.2,11.7-10.9,18.3
	c-2.8,6.4-3.7,13.4-2.8,20.2l0.6-1.4c-4,2.8-8.3,5.1-12.9,6.7c-8,2.8-16.5,3.9-24.9,3.2C70.3,65.1,61.6,63.9,53,62
	c-8.3-1.6-16.4-3.8-24.3-6.6C18.7,52,9.7,46.3,2.1,38.9c-0.5-0.5-1.3-0.6-1.8-0.1c-0.5,0.4-0.6,1.1-0.2,1.6C3.6,47.7,7.2,55,11.3,62
	c2.2,3.7,4.6,7.2,7,10.8c2,3.1,4.1,6.2,6.3,9.2c3.2,4.4,6.4,8.9,9.6,13.3l1.4-1.8c-2.8-0.6-5.4-1.7-7.8-3.3
	c-2.2-1.2-4.2-2.7-6.1-4.3c-3.9-3.6-8.3-6.7-13.1-9c-0.9-0.4-2.2,0.3-1.8,1.4c2.8,9.1,6.5,18.5,12.5,26c2.1,2.5,4.3,4.9,6.7,7.1
	c4.1,4,8.4,7.8,12.7,11.6c3.8,3.3,7.8,6.4,11.3,9.9l1.2-2.1c-5.8-2.2-11.1-5.7-16.3-8.9c-5.8-3.5-11.2-7.6-16.2-12.2
	c-0.5-0.5-1.3-0.5-1.8,0.1c-0.2,0.2-0.3,0.5-0.3,0.8c0,2.7,1.2,5.4,2.3,7.8c1.6,3.5,3.5,6.8,5.6,10c2.7,3.9,5.6,7.7,8.7,11.3
	c7.9,9.6,17.6,18.2,28.5,24.2c4.2,2.2,8.6,4,13,5.6c5.5,2.2,10.8,4.9,16.3,7.3c1.5,0.6,2.8-1.5,1.3-2.2c-4.7-2-9.2-4.3-13.9-6.3
	c-4-1.7-8.2-3-12.1-4.9c-6.8-3.4-13.1-7.7-18.8-12.7c-4.1-3.6-7.9-7.4-11.5-11.6c-0.7-0.9-1.4-1.7-2.1-2.6c-0.2-0.3,0.3,0.4,0,0
	c-0.6-0.6-1.1-1.3-1.7-1.9c-1.2-1.4-2.3-2.8-3.3-4.3c-2.5-3.5-4.8-7.2-6.8-11c-1.4-2.7-3-5.8-3.1-8.9l-2.1,0.9
	c5.1,4.8,10.7,9,16.7,12.6c5.4,3.3,11,6.9,17,9.2c1.2,0.5,2.1-1.3,1.2-2.1c-3-3-6.3-5.6-9.5-8.4c-4.2-3.6-8.4-7.2-12.3-11
	c-2.6-2.5-5.2-4.9-7.6-7.6c-2.5-2.9-4.6-6.2-6.4-9.6c-2.8-5.4-5-11.1-6.8-16.9L7.3,79c2.7,1.2,5.2,2.7,7.6,4.4
	c2,1.5,3.9,3.2,5.8,4.9c1.9,1.6,4,3,6.2,4.3c2.4,1.5,5.1,2.6,7.9,3.3c1,0.2,2.2-0.8,1.4-1.8C26.1,79.8,15.7,65.8,7.7,50.2
	c-1.9-3.6-3.7-7.3-5.4-11l-2,1.5C13.5,54,31.2,59.9,49,63.8c8.9,2,17.9,3.4,26.9,4.2c8.6,0.7,17.1,0.5,25.4-2c6-1.7,11.7-4.4,16.8-8
	c0.5-0.3,0.7-0.9,0.6-1.4c-1.9-12.4,4.4-24.1,11.4-33.8c5-7.1,12.8-11.2,20.9-14.1c7.5-2.7,15.3-4.6,23.2-5.6c7.9-1,15.9-0.5,23,3.4
	c9.2,5.1,14.7,14.4,17.1,24.4c0.2,0.7,0.9,1.1,1.5,0.9c20.3-5.9,41.3-9.2,62.4-9.6l-0.9-2.1c-6.1,4.9-10.3,11.6-16.1,16.6
	s-13.7,7.4-21,9.8C236,47.7,232,49.2,228,51c-1.3,0.6-0.4,2.6,1,2.3c9.1-2.1,18.4-4,27.8-3.7c9.7,0.2,18.9,3,28,5.9l-0.3-2.3
	l-40.4,21.2c-4.6,2.4-12.6,5.4-10.1,12.1c1.1,2.9,3.2,5.3,4.6,8c1.5,2.8,2.8,5.7,3.8,8.6c4,11.8,4.9,24.4,2.6,36.6
	c-2.4,12-7.4,23.3-14.8,33.1c-15.3,20.7-38.3,34-62.6,41.3c-12.4,3.8-25.2,6.2-38.2,7.3c-10.5,0.8-21,0.6-31.5-0.7
	c-11.1-1.3-22-3.7-32.5-7.2c-9.8-3.3-19.3-7.8-27.5-14.1c-1.9-1.4-3.7-3-5.4-4.6l-0.6,2.1c8.8-1.7,17.6-3.5,26.3-5.3
	c3.8-0.8,7.7-1.6,11.5-2.7c4.4-1.4,8.6-3.2,12.6-5.4c3.5-2,6.9-4.3,10.1-6.9C93.8,175.5,92,173.8,90.7,174.8L90.7,174.8z"/>
</svg>
