<?xml version="1.0" encoding="utf-8"?>
<!-- Generator: Adobe Illustrator 24.0.2, SVG Export Plug-In . SVG Version: 6.00 Build 0)  -->
<svg version="1.1" id="Twitch" xmlns="http://www.w3.org/2000/svg" xmlns:xlink="http://www.w3.org/1999/xlink" x="0px" y="0px"
	 viewBox="0 0 235.3 250.6" style="enable-background:new 0 0 235.3 250.6;" xml:space="preserve">
<style type="text/css">
	.st0{fill:#8337B5;}
	.st1{fill:#8867CE;}
	.st2{fill:#FFFFFF;}
</style>
<path id="Shade" class="st0" d="M34.6,8.2C16.5,25.3,9,40,4.3,50.8c-3.3,7.6-2,16.3-2.2,24.6c-0.5,18.1-0.8,36.3,0.5,54.4
	c0.7,10.5,2.5,20.7,8.1,29.6c7,11,34.9,16.2,43.7,16.8L34.6,8.2z"/>
<path id="Bevel" d="M33.5,7.1C23,17.3,13.7,28.7,6.9,41.8C4.2,47,1.6,52.4,0.9,58.3c-1,8.1-0.3,16.7-0.5,24.8
	c-0.4,18.4-1.1,37.4,1.7,55.7c1.1,7.6,3.3,15.7,7.9,22c2.8,3.8,7,6.3,11.1,8.3c10.5,4.8,21.8,7.7,33.3,8.5c0.8,0,1.5-0.7,1.5-1.5
	L38.6,29.1L36.1,8.2c-0.2-1.9-3.2-1.9-3,0l17.3,147.1l2.5,20.9l1.5-1.5c-9.3-0.8-18.5-2.8-27.3-6.2c-4.7-1.8-9.8-4-13.4-7.7
	c-5.1-5.4-7.3-13.9-8.5-21C2.3,122.9,3,105,3.3,88c0.1-7.8,0.2-15.7,0.2-23.5c0.1-7.2,1.9-13,5-19.3c6.7-13.7,16.2-25.5,27.1-36
	C37.1,7.9,34.9,5.8,33.5,7.1z"/>
<path id="Purple" class="st1" d="M16.6,84.6c1.3-15.7-0.5-30,1.1-44.7S26.7,9.5,40.8,5c4.1-1.3,8.4-1.6,12.7-1.8
	c57-3,108.8-2.6,165.6,2.6c1,0.1,4.7,0.6,6,1.4c1.2,1,2.1,2.4,2.4,4c4.5,16.1,4.9,33,5.2,49.7l0.9,39.5c0.1,6.5,0.6,13.2-1.6,19.3
	c-1.4,4-5.9,10.6-9.5,15.6c-10.3,14.2-19.4,27.5-33.2,38.4c-2,1.7-4.2,3.1-6.7,4.1c-2.3,0.6-4.6,0.9-7,0.8
	c-8.4,0.1-29.2,1.6-35.6,1.6c-23.3,0-89.7,68.7-93.6,69c-17,1.4,30.5-71.9,13.5-72.8c-12.3-0.6-25.8-1.9-34.1-10.8
	c-7.1-7.5-8.5-18.6-9.3-28.9C15,118.4,16.1,98.6,16.6,80"/>
<path id="Outline" d="M18,84.6c1.3-18.2-2.2-37.7,3.4-55.3c2.4-7.4,6.5-14.8,12.9-19.4c8-5.8,18.6-5.2,28.1-5.7
	c38.9-1.9,77.9-1.9,116.8,0.1c10,0.6,20,1.2,30.1,2.1c4,0.3,9.1,0,12.9,1.4c4.8,1.7,5.1,8.4,6,12.9c3.7,19.7,3.1,40.1,3.5,60.1
	c0.2,9.5,0.9,19.1,0.5,28.6c-0.3,9.3-4.5,16.1-9.7,23.5c-10.1,14.3-20.4,29-34.3,39.9c-4.4,3.4-8.5,4.4-14,4.5
	c-2.9,0.1-5.9,0.2-8.8,0.4c-6.5,0.3-13,0.7-19.6,1c-7.4,0.3-13,1.1-19.7,4.5c-18.3,9.4-34.3,24.1-49.5,37.6
	c-7,6.2-14,12.6-20.9,18.9c-1.8,1.6-7.8,8.6-10.2,8.2c-6.4-1.1,8.8-33.7,10.2-37.1c3.1-7.6,6.5-15.2,8.3-23.2
	c0.8-3.5,2.1-9.5-1.8-11.8c-0.8-0.4-1.6-0.6-2.5-0.7c-4.3-0.7-8.7-0.5-13.1-1.2c-7.9-1.3-15.9-4-21.1-10.4c-5.9-7.1-7.1-17-7.8-25.9
	c-0.8-9.7-0.8-19.3-0.7-29c0.2-9.5,0.5-19,0.8-28.5c0-1.8-2.7-1.8-2.8,0c-0.5,20.4-1.9,41,0.2,61.4c1.7,15.4,7.6,28.6,23.5,33.4
	c3.5,1,7,1.7,10.6,2.1c3.2,0.4,8-0.3,11,0.9c2.1,0.9,2,3.3,1.8,5.3c-0.7,8-4.6,16.1-7.6,23.5C51,215.4,47.1,224,44,232.9
	c-1.4,4.1-4.7,11.8-1.8,15.9c2.5,3.5,5.9,1.2,8.3-0.8c6.1-5,11.8-10.6,17.7-15.9c17-15.4,34.3-31.6,54-43.5
	c3.7-2.4,7.7-4.3,11.8-5.9c3.6-1.2,7.1-1.2,10.9-1.3c6.9-0.3,13.7-0.7,20.6-1.1c6.1-0.3,13.6,0.6,19.2-1.9
	c7.6-3.5,14.2-11.1,19.6-17.2c5.9-6.6,11.1-13.8,16.3-20.9c4.5-6.1,9.8-12.5,12.5-19.6c3.3-8.7,1.8-19,1.6-28
	c-0.5-21,0.1-42.3-2.4-63.2c-0.5-4.4-1.2-8.8-2.2-13.1c-0.6-2.8-1.1-6.9-3.2-9.2c-1.7-1.8-4.4-2.2-6.8-2.5
	c-4.9-0.7-9.9-0.9-14.8-1.3c-42-3.3-84.2-4.1-126.4-2.6C68.7,1.1,58.2,1.1,48,2.2c-7.5,0.8-14.1,3.5-19.4,9
	c-11.1,11.5-12.9,28.2-13,43.4c-0.1,10,0.3,20.1-0.4,30.1C15,86.4,17.8,86.4,18,84.6L18,84.6z"/>
<g id="Eyes">
	<path class="st2" d="M173.5,47c4.4,19.5,1.6,39.3-1.1,58.9c-0.4,2.5-0.4,5.4,2.3,7c2.4,1.4,6.1,1,8.9,0c6.8-2.5,10.1-7.9,12.4-13.1
		c7.6-16.9,9.3-35.2,3.5-52.4c-1.1-3.2-2.6-6.5-5.6-9.1c-3.5-2.9-8-4.1-12.5-3.4c-4.1,0.8-7.5,3.3-8.3,6.3c-0.7,2.6,0.4,4.1,0.5,7.1
		"/>
	<path class="st2" d="M114.9,46.8c4.4,19.5,1.6,39.3-1.1,58.9c-0.3,2.5-0.4,5.4,2.3,7c2.4,1.4,6.1,1,8.9,0
		c6.8-2.5,10.1-7.9,12.4-13.1c7.6-16.8,9.3-35.1,3.6-52.4c-1.1-3.2-2.5-6.5-5.5-9.1c-3.5-2.9-8-4.1-12.5-3.4
		c-4.1,0.8-7.5,3.3-8.3,6.3c-0.7,2.6,0.4,4.1,0.5,7.1"/>
	<path d="M172.7,47.3c3.3,14.9,2.5,30.2,0.7,45.3c-0.4,3.8-1,7.5-1.5,11.3c-0.3,2.4-0.9,5.1,0.1,7.4c2.6,5.5,10.8,3.5,14.9,1.1
		c4.6-2.6,7.6-7,9.8-11.8c3-6.4,5-13.2,6.2-20.1c1.2-6.8,1.3-13.8,0.4-20.7c-0.4-3.4-1.1-6.7-2.1-9.9c-0.7-3-1.9-5.8-3.5-8.5
		c-3.7-5.7-10.6-8.5-17.2-7c-2.9,0.6-5.5,2.4-7.3,4.8c-1.9,3-0.5,6-0.4,9.2c0,1.1,1.8,1.1,1.7,0c-0.1-2.6-1.4-5.3-0.2-7.8
		s3.9-3.9,6.4-4.5c5.9-1.4,12,1,15.4,6.1c1.5,2.6,2.7,5.3,3.4,8.2c0.9,3,1.6,6.1,2,9.3c0.9,6.3,0.8,12.8-0.1,19.1
		c-0.9,6.3-2.7,12.5-5.1,18.4c-1.9,4.7-4.3,9.5-8.5,12.6c-2.2,1.7-4.9,2.8-7.6,3.2c-2.5,0.3-5.9-0.1-6.9-2.9
		c-0.8-2.5,0.1-5.7,0.5-8.2c0.4-3.3,0.9-6.5,1.3-9.8c1.8-15,2.5-30.3-0.8-45.2C174.1,45.8,172.5,46.3,172.7,47.3L172.7,47.3z"/>
	<path d="M114.1,47c3.3,14.9,2.5,30.2,0.7,45.3c-0.4,3.8-1,7.5-1.5,11.3c-0.3,2.4-0.9,5.1,0.1,7.4c2.6,5.5,10.8,3.5,14.8,1.1
		c4.6-2.6,7.6-7,9.8-11.8c3-6.4,5.1-13.2,6.2-20.1c1.2-6.8,1.3-13.8,0.4-20.7c-0.4-3.4-1.1-6.7-2.1-9.9c-0.7-3-1.9-5.8-3.5-8.5
		c-3.7-5.7-10.6-8.5-17.2-7c-2.9,0.6-5.5,2.3-7.3,4.8c-1.9,3-0.5,6-0.4,9.2c0,1.1,1.7,1.1,1.7,0c-0.1-2.6-1.4-5.3-0.2-7.8
		s3.9-3.9,6.4-4.5c5.9-1.4,12,1,15.4,6.1c1.5,2.6,2.7,5.3,3.4,8.2c0.9,3,1.6,6.1,2,9.3c0.9,6.3,0.8,12.8-0.1,19.1
		c-1,6.3-2.7,12.5-5.1,18.4c-1.9,4.7-4.3,9.5-8.4,12.6c-2.2,1.7-4.9,2.8-7.6,3.2c-2.6,0.3-6-0.1-6.9-2.9c-0.8-2.5,0.1-5.7,0.5-8.2
		c0.4-3.3,0.9-6.5,1.3-9.8c1.8-15,2.5-30.3-0.8-45.2C115.5,45.5,113.9,46,114.1,47L114.1,47z"/>
</g>
</svg>
