<?xml version="1.0" encoding="utf-8"?>
<!-- Generator: Adobe Illustrator 24.0.2, SVG Export Plug-In . SVG Version: 6.00 Build 0)  -->
<svg version="1.1" id="Reddit" xmlns="http://www.w3.org/2000/svg" xmlns:xlink="http://www.w3.org/1999/xlink" x="0px" y="0px"
	 viewBox="0 0 311.1 298.5" style="enable-background:new 0 0 311.1 298.5;" xml:space="preserve">
<style type="text/css">
	.st0{fill:#FFFFFF;stroke:#000000;stroke-miterlimit:10;}
	.st1{fill:#E59520;}
</style>
<ellipse id="Circle" class="st0" cx="155.5" cy="149.2" rx="155.5" ry="149.2"/>
<g id="Left_Eye">
	<path class="st1" d="M118.9,109.4c-6.5,0.5-11.9,7.3-16,16.4s-5.3,22.5-2.2,32.8c3.7,12.3,12.9,17.3,20.3,13
		c7.8-4.6,13.6-19,13.2-33.7S127.1,110.2,118.9,109.4"/>
	<path d="M118.9,108.2c-5.1,0.5-9,4-11.9,8c-3.6,4.9-6.2,10.4-7.6,16.3c-1.5,6-1.9,12.2-1.3,18.4c0.6,5.7,2.1,11.6,5.5,16.3
		c2.6,3.6,6.3,6.5,10.8,7c4.3,0.5,8.2-1.7,11.1-4.7c3.7-3.9,6.1-9.1,7.7-14.2c1.9-6.2,2.6-12.7,2.2-19.2c-0.3-6.7-2.1-13.3-5.3-19.2
		C127.6,112.6,123.9,108.7,118.9,108.2c-1.6-0.2-1.5,2.2,0,2.4c3.9,0.4,6.8,3.8,8.7,6.9c2.6,4.5,4.3,9.5,5,14.6
		c1.6,10.9-0.2,23.3-6.4,32.6c-2.1,3.2-5.2,6.3-9.1,7c-3.7,0.6-7.2-1.2-9.8-3.8c-3.6-3.7-5.5-8.8-6.4-13.9c-1-5.5-1-11.2-0.1-16.7
		c1-6,3.1-11.8,6.3-17.1c2.6-4.3,6.5-9.2,11.8-9.7C120.4,110.4,120.5,108,118.9,108.2L118.9,108.2z"/>
</g>
<g id="Right_Eye">
	<path class="st1" d="M191.9,104.3c6.5,0.5,11.9,7.3,16,16.4s5.3,22.5,2.2,32.7c-3.7,12.3-12.9,17.3-20.3,13
		c-7.8-4.6-13.6-19-13.2-33.7S183.6,105.2,191.9,104.3"/>
	<path d="M191.9,105.6c4.7,0.4,8.3,4.4,10.7,8c3.1,4.5,5.3,9.5,6.5,14.8c1.3,5.4,1.7,11,1.2,16.6c-0.4,5.4-1.8,10.8-4.9,15.3
		c-2.1,3.2-5.4,6-9.4,6.4c-4,0.4-7.1-1.8-9.6-4.5c-3.4-3.8-5.5-8.7-6.9-13.5c-1.6-5.6-2.3-11.5-2-17.3c0.2-6.1,1.8-12.1,4.6-17.5
		C184.2,110.2,187.3,106,191.9,105.6c1.4-0.2,1.5-2.7-0.1-2.5c-4.4,0.5-7.7,3.5-10.1,7c-3.1,4.8-5.1,10.2-5.9,15.9
		c-1,6.4-0.8,13,0.5,19.4c1.1,5.7,3.3,11.2,6.5,16c2.5,3.6,6,6.9,10.4,7.6c4.2,0.5,8.5-0.9,11.4-4c4-3.8,6.2-9.3,7.3-14.6
		c1.2-6.1,1.3-12.3,0.3-18.3c-1-6.8-3.4-13.3-7.1-19.1c-3.1-4.7-7.4-9.3-13.3-9.9C190.3,103,190.3,105.4,191.9,105.6L191.9,105.6z"
		/>
</g>
<path id="Mouth" d="M128.7,226.9c24.4,1.9,49.7-2.2,70.1-16.3c5.4-3.7,10.3-8,14.8-12.9c1.3-1.4-0.8-3.5-2.1-2.1
	c-15.8,17.5-38.3,26.7-61.6,28.5c-7.1,0.5-14.1,0.5-21.2-0.1C126.8,223.8,126.8,226.8,128.7,226.9L128.7,226.9z"/>
<path id="Antenna" d="M155.1,83.2c1.5-8.1,2.9-16.6,7.4-23.7c4.1-6.1,10.2-10.6,17.2-12.8c8.6-2.9,17.8-2.8,26.7-2.3
	c8.2,0.4,16.3,1.6,24.3,3.5c9.1,2.2,17.8,6,25.6,11.3c2.4,1.7,4.7-2.3,2.3-3.9c-14.6-10-32.2-13.9-49.6-15.2
	c-9.4-0.7-19.2-0.9-28.4,1.6c-7.8,2-14.8,6.5-19.9,12.7c-6.3,7.9-8.2,18-10,27.6c-0.3,1.2,0.4,2.4,1.6,2.8
	C153.5,85.1,154.7,84.4,155.1,83.2L155.1,83.2z"/>
<path id="Bolbus" d="M257.9,69.9c-0.5-2.4-1.1-5-0.6-7.4c0.5-2.4,2.4-3.9,4.8-4.5c5-1.4,10.3,0.3,13.6,4.3c2.9,3.4,5.1,9.6,3.1,13.9
	c-2.3,5-8.1,7.1-13.1,4.9c-2-0.9-3.6-2.4-4.6-4.3c-1.4-2-2.5-4.3-3-6.7c-0.4-2.1-3.6-1.2-3.2,0.9c0.6,2.7,1.7,5.3,3.3,7.5
	c1.4,2.4,3.4,4.3,5.8,5.5c3,1.4,6.4,1.6,9.5,0.4c2.9-1,5.4-2.8,7.3-5.3c3.6-5.2,1.8-12.9-1.6-17.6c-3.7-5.4-10.2-8.1-16.6-7
	c-3.5,0.6-6.8,2.5-8.1,5.9c-1.3,3.4-0.6,7.1,0.2,10.4C255.2,72.8,258.4,71.9,257.9,69.9L257.9,69.9z"/>
<path id="Left_Ear" d="M72.7,103.6c-5.3-4.1-11.4-7.1-17.8-9c-6.3-1.7-12.8-2-19.2-0.8c-6.2,1.2-12,3.7-17,7.4
	c-4.1,3.3-7.5,7.4-10,12c-2.8,4.9-4.7,10.1-5.8,15.6c-1,5.6-1,11.3,0.1,16.9c2,10.8,7.2,21.5,15.8,28.6c5.2,4.3,11.7,7,17.8,9.6
	c7.1,2.9,14.6,4.9,22.4,4.9l-1-1c2.2,16.3,7.9,32.2,17.5,45.6c8.7,12.1,20.7,21.8,35.4,25.5c9.8,2.4,20.3,3,30.4,3.3
	c10.5,0.3,20.9-0.1,31.3-1.2c18.7-2,38.1-5.4,53.8-16.5c13.6-9.6,24-23.4,31.1-38.4c0.9-2,1.8-4,2.6-6c0.5-1.2-1.4-1.7-1.9-0.5
	c-6.2,15.3-15.7,29.5-28.5,40c-6.8,5.5-14.4,9.7-22.7,12.5c-8.8,2.9-18,4.9-27.2,6c-10.1,1.4-20.3,2.1-30.6,2.1
	c-10.1,0.1-20.1-0.5-30.1-1.8c-8.1-1.2-16-3.5-23-7.8c-6-3.8-11.3-8.5-15.7-14c-10.1-12.1-16.5-27.2-19.5-42.6
	c-0.4-2.1-0.8-4.2-1-6.3c0-0.6-0.4-1-1-1c-6.6-0.1-13.1-1.4-19.2-3.8c-3.2-1.2-6.3-2.6-9.3-4.1c-2.6-1.2-5.1-2.5-7.5-4
	c-8.7-5.7-14.3-15.3-17-25.2c-1.5-5.3-2.1-10.8-1.7-16.4c0.5-5.2,1.9-10.4,4.1-15.2c2.1-4.7,5-9.1,8.7-12.8
	c4.2-3.9,9.2-6.8,14.7-8.4c6.6-2.1,13.7-2.4,20.5-0.9c7.2,1.5,13.6,5.1,19.5,9.4C72.7,106,73.7,104.3,72.7,103.6L72.7,103.6z"/>
<path id="Forehead" d="M232.7,98.1c-19-11.7-40.4-19.5-62.7-21.4c-21.6-1.9-43.5,1.8-63.7,9.7c-12.1,4.8-23.7,10.9-34.5,18.1
	c-1.1,0.7-0.1,2.4,1,1.7c18.7-12.4,39.4-21.7,61.5-25.8c20.9-3.9,42.4-2.6,62.7,3.5c12.1,3.8,23.8,9.1,34.6,15.8
	C232.8,100.5,233.8,98.8,232.7,98.1L232.7,98.1z"/>
<path id="Right_Ear" d="M260.3,199.9l2.3-10.9l0.6-2.6c0.1-0.2,0.1-0.5,0.1-0.7c0-0.5,0,0.2-0.1,0.1c0.6,0,1.3-0.2,1.9-0.3
	c0.7-0.1,1.5-0.3,2.1-0.6c1.9-0.8,3.9-1.4,5.9-2.1c3.9-1.4,7.6-3.2,11.3-4.8c3.4-1.5,6.5-3.6,9.1-6.2c2.6-2.5,5-5.3,7.1-8.3
	c2.3-3.5,4.1-7.3,5.5-11.3c1.2-3,2.1-6.2,2.6-9.4c0.4-3.3,0.4-6.7,0-10c-0.2-3.2-0.7-6.3-1.4-9.5c-1.4-5.9-3.9-11.6-7.3-16.6
	c-2.1-3.4-4.7-6.5-7.7-9.1c-3.2-2.3-6.7-4.2-10.5-5.5c-14.7-5.6-31.4-3.8-45.2,3.3c-1.8,0.9-3.6,2-5.3,3.1c-1.1,0.7-0.1,2.5,1.1,1.8
	c13-8.4,29.3-11.9,44.4-7.7c3.8,1,7.4,2.5,10.8,4.4c1.8,0.9,3.4,2.1,4.8,3.5s2.7,2.9,3.9,4.5c3.9,5.1,6.7,10.8,8.4,17
	c0.7,2.6,1.2,5.3,1.5,8c0.4,3.3,0.6,6.7,0.6,10.1c-0.2,3-0.8,6-1.8,8.9c-1.2,3.8-2.8,7.5-4.7,11.1c-1.9,3.2-4.3,6.2-6.9,8.9
	c-2.4,2.7-5.2,4.9-8.4,6.5c-1.7,0.8-3.5,1.6-5.3,2.4c-1.9,0.9-3.8,1.8-5.8,2.6c-1.8,0.7-3.7,1.3-5.5,2c-0.9,0.4-1.9,0.8-2.8,1.1
	c-0.6,0.1-1.2,0.2-1.8,0.3c-0.9,0.1-2,0.3-2.4,1.3c-0.1,0.4-0.2,0.9-0.3,1.4l-2.5,12.1l-0.2,1c-0.3,1.3,1.8,1.9,2,0.6L260.3,199.9z"
	/>
</svg>
