<?xml version="1.0" encoding="utf-8"?>
<!-- Generator: Adobe Illustrator 24.0.2, SVG Export Plug-In . SVG Version: 6.00 Build 0)  -->
<svg version="1.1" id="TF2" xmlns="http://www.w3.org/2000/svg" xmlns:xlink="http://www.w3.org/1999/xlink" x="0px" y="0px"
	 viewBox="0 0 224.9 221.4" style="enable-background:new 0 0 224.9 221.4;" xml:space="preserve">
<style type="text/css">
	.st0{fill:#E99000;}
</style>
<g id="Top_Left">
	<path id="TL" class="st0" d="M5.4,79.7l11.6-22.3c2.1-4,4.3-7.9,6.7-11.8C30.8,33.9,38,28.7,47,22.6C66.3,9.5,89.1,2.4,112.4,2.3
		c0.6-0.1,1.3,0.1,1.9,0.4c0.9,0.7,0.9,2,0.8,3.2c-1.7,20.2-3.8,40.4-6.4,60.6c-0.2,1.4-0.4,2.9-1.4,3.9c-0.9,0.7-2.1,1.1-3.2,1.2
		c-10.2,1.9-19.3,9.8-23.1,20c-0.2,0.6-0.5,1.4-1.2,1.6c-0.4,0.1-0.8,0.1-1.1,0c-24.3-5-48.8-7.4-72.9-13.5"/>
	<path id="TL_1_" d="M7.4,80.9C16.6,63.2,24.5,42.6,40.7,30C56.2,17.7,74.6,9.5,94.1,6.2c4.9-0.8,9.9-1.3,14.9-1.5
		c3.3-0.1,3.8-0.4,3.6,3.2c-0.1,3.3-0.6,6.5-0.8,9.8c-1,11.1-2.2,22.2-3.4,33.2c-0.3,2.6-0.6,5.2-0.9,7.8s0,6.4-1.1,8.6
		c-1.2,2.4-3.4,2.1-5.6,2.8c-2,0.6-4,1.4-5.8,2.4c-3.2,1.7-6,3.8-8.5,6.4c-1.3,1.4-2.5,2.9-3.6,4.4c-1.2,1.7-1.9,4.3-3.2,5.8
		c-2,2.3-5.1,0.9-7.9,0.4c-3.2-0.6-6.4-1.2-9.6-1.7c-5.8-1-11.5-1.9-17.3-2.8C31.8,82.8,19,80.6,6.3,77.4c-2.9-0.7-4.1,3.7-1.2,4.5
		c12.6,3.2,25.4,5.4,38.3,7.5c6.4,1,12.8,2,19.2,3.1c2.9,0.5,5.8,1,8.7,1.6c2.4,0.5,6,2,8.5,1.4c3.5-0.8,4.1-5.4,5.7-8.1
		c2.8-4.7,6.9-8.5,11.7-11c3.5-1.8,8.9-1.7,11.8-4.4c3.1-3,2.6-9.5,3.1-13.3c1.6-13,3-26,4.2-39.1c0.4-4.7,2.3-11.4,1-16
		c-1.1-4-4.8-3.6-8.3-3.5C86.4,0.9,64.5,8,45.8,20.6c-8.1,5.5-15.6,11.5-21.3,19.6C16.1,52,10.1,65.7,3.4,78.6
		C2,81.2,6,83.6,7.4,80.9z"/>
</g>
<g id="Top_Right">
	<path id="TR_1_" class="st0" d="M132.6,74.3c3.7-22.1,6.8-44.3,9.4-66.7c25.5,8.5,48.3,25.6,64.4,48.2c3.5,4.7,6.4,9.9,8.5,15.4
		c1.2,3.7,2.2,7.4,2.9,11.2c2,9.6,4.1,19.3,5.2,29.1c0.2,0.8,0.1,1.6-0.3,2.3c-0.6,0.6-1.4,0.8-2.2,0.7c-7.8-0.2-15.4-1.7-23.1-3.1
		l-42-8.1c-0.7-0.1-1.3-0.3-1.8-0.7c-0.5-0.4-0.8-1-1.1-1.6c-4.7-11.8-9.9-18.6-18.7-26"/>
	<path id="TR" d="M134.3,74.8c3.7-22.3,6.9-44.7,9.4-67.1l-2.3,1.7c27.7,9.4,53.5,29.1,68.2,54.8c4.1,7.3,5.7,15.2,7.4,23.3
		c0.8,3.9,1.6,7.8,2.3,11.8c0.5,2.7,3.3,11.6,1.1,13.5c-0.9,0.8-5.4-0.3-6.8-0.5c-2.4-0.3-4.8-0.6-7.2-1c-4.5-0.8-8.9-1.7-13.4-2.5
		l-25.8-5c-4.7-0.9-11.3-0.8-13.9-5.2c-1.9-3.1-3-6.7-5-9.8c-3.7-5.7-8.2-10.8-13.4-15.1c-1.7-1.5-4.3,1-2.5,2.5
		c5.9,4.8,10.9,10.7,14.6,17.3c1.6,2.9,2.4,7,4.6,9.5s6,2.4,8.9,3l30.5,5.9c9.3,1.8,19.8,5,29.3,4.3c7.1-0.5,3.8-9.7,3-14.4
		c-1.4-9.4-3.4-18.8-5.8-28c-4.6-15.8-17-29.8-29-40.7C175.2,21.1,159.5,11.8,142.4,6c-1-0.3-2,0.3-2.2,1.3c0,0.1-0.1,0.3-0.1,0.4
		c-2.6,22.1-5.7,44.2-9.3,66.2C130.4,76.1,133.8,77.1,134.3,74.8L134.3,74.8z"/>
</g>
<g id="Bot_Left">
	<path id="BL" class="st0" d="M2.9,107.4c11.1,1.5,22.2,2.7,33.4,3.8c12.2,1.1,24.3,2,36.3,4.5c1.1,0.1,2.1,0.5,3.1,1.1
		c0.8,0.7,1.5,1.7,2,2.7c1.9,3.2,2.6,7.4,4.5,10.7c2.6,4.4,6.3,8.1,10.7,10.7c0.9,0.4,1.7,1,2.3,1.7c1.9,2.4,0.1,5.9-0.8,8.9
		c-0.6,2.4-0.9,4.8-0.9,7.2c-1.1,19.8-4.7,39.3-8.4,58.8c-10.3-3.1-20.7-6.4-29.8-12.3c-4.9-3.3-9.5-7.1-13.7-11.3
		c-11.5-11.2-21.7-24.3-28.9-39s-11.4-31.3-10.9-48"/>
	<path id="BL_1_" d="M2.9,109.1c15.6,2,31.2,3.5,46.8,5c4.3,0.4,8.6,0.9,12.9,1.5c3.7,0.5,8,0.8,11.2,2.6c3.5,2,4.1,6.5,5.6,10
		c0.9,2.2,2.2,4.3,3.7,6.1c1.7,2.2,3.8,4.2,6,5.9c3.3,2.5,5.3,4.9,4,9.3c-2,6.5-1.7,13.7-2.3,20.4c-1.6,15.8-4.5,31.3-7.4,46.9
		l2.1-1.2c-12.3-3.7-24.5-7.8-34.8-15.9c-9.2-7.5-17.3-16.1-24.3-25.6c-14.4-19.5-23.4-42.8-23-67.3c0-2.2-3.4-2.2-3.5,0
		c-0.4,25.6,9.2,50.1,24.5,70.4c7.2,9.8,15.7,18.5,25.2,26.1c10.3,8,22.6,12,34.9,15.8c0.9,0.2,1.9-0.3,2.1-1.2
		c3.1-16.5,6.2-33,7.7-49.7c0.4-4.8,0.3-9.8,1.2-14.5c0.6-2.9,2.3-5.8,2.1-8.8c-0.1-1.9-1.1-3.7-2.8-4.7c-2.9-2.3-6-4-8.4-6.9
		c-2.9-3.4-4.2-7.2-5.8-11.3c-0.9-2.2-1.9-4.9-3.9-6.4c-2.6-2-6.5-2.1-9.5-2.6c-3.6-0.6-7.3-1.1-11-1.5c-17.8-2.1-35.7-3.4-53.5-5.7
		C0.7,105.4,0.7,108.8,2.9,109.1L2.9,109.1z"/>
</g>
<g id="Bot_Right">
	<path id="BR" class="st0" d="M122.4,150.2c9.2-2.6,17-8.6,21.9-16.8c1-1.6,1.9-3.3,3.5-4c1.2-0.4,2.4-0.4,3.6-0.2
		c22.7,2.6,45.2,6.1,67.6,10.6c-4,13.9-10.2,27-18.2,39c-1.8,2.9-4,5.5-6.4,7.9c-2.9,2.7-6.2,4.8-9.3,7.2c-3.4,2.7-6.4,5.9-10,8.3
		c-3.3,2.1-10.1,7.1-13.8,8.4c-16.1,5.7-26.8,8.6-43.7,8.2c-1.3-0.2-2.6-0.7-3.8-1.3c-0.2-0.3-0.3-0.7-0.3-1.1
		c0.2-5.8,0.8-11.6,2-17.4c2.8-16.4,3.8-32.1,6.6-48.4"/>
	<path id="BR_1_" d="M123,152.4c6.6-1.9,12.5-5.4,17.4-10.3c2.3-2.4,3.9-5.1,5.9-7.6c2.3-2.8,3.7-3.2,7.1-2.9
		c2.3,0.3,4.5,0.5,6.8,0.8c19.5,2.4,39,5.6,58.3,9.4l-1.6-2.8c-2.5,8.7-5.9,17.1-10.1,25.1c-3.8,7.2-8,15.1-13.9,20.8
		c-2.8,2.7-6.2,4.8-9.3,7.2c-3.5,2.8-6.6,5.9-10.4,8.4c-5.8,3.9-11,7.2-17.6,9.4c-7.3,2.6-14.9,4.5-22.6,5.6
		c-4.2,0.5-8.3,0.8-12.5,0.7c-1,0-3.8,0.3-4.6-0.6c-0.7-0.8,0.4-6.1,0.6-7.2c1.1-9.1,2.9-18,4-27.1c1.2-10.1,2.3-20.3,4-30.3
		c0.5-2.9-3.9-4.1-4.4-1.2c-2.9,17.3-4.4,34.9-7.3,52.3c-0.7,3.7-1.1,7.5-1.3,11.2c-0.1,2.3-0.4,4.7,1.5,6.1
		c4.2,3.1,12.2,1.6,16.9,1.1c6.4-0.6,12.8-1.8,19-3.6c6.2-1.8,12.8-3.6,18.4-7c5.2-3,10.1-6.5,14.7-10.4c5.6-4.9,12.3-8.9,17-14.6
		c10.5-12.8,17.6-29,22.3-44.8c0.3-1.2-0.4-2.5-1.6-2.8c-19.7-3.9-39.5-7.1-59.5-9.6c-3.6-0.4-8.1-1.8-11.8-1
		c-3.1,0.6-4.5,2.9-6.1,5.4c-5,7.6-11.7,13.2-20.5,15.8C118.9,148.8,120.1,153.2,123,152.4L123,152.4z"/>
</g>
</svg>
