<svg id="Media_Icons" data-name="Media Icons" xmlns="http://www.w3.org/2000/svg" viewBox="0 0 190.88 204.6"><defs><style>.cls-1{fill:#e91a00;}.cls-2{fill:#941900;}</style></defs><title>YouTube</title><path class="cls-1" d="M22.13,2.57A514.27,514.27,0,0,1,35.68,192.44a1265.61,1265.61,0,0,0,149-105.08c1.77-1.46,3.68-3.16,3.88-5.45.15-1.62-6.84-6.62-8.27-7.42C161.78,64.13,147.68,54.4,136,48.54,94.14,27.63,66.77,16.22,22.08,2.49"/><path d="M19.78,3.22A516.56,516.56,0,0,1,33.25,192.44c-.22,1.87,2.21,3,3.66,2.1a1275.76,1275.76,0,0,0,138-96.09c4.62-3.69,10.35-7.2,14.09-11.8,2.17-2.68,2.75-5.37.49-8a33.59,33.59,0,0,0-7.88-6.23c-6.27-3.88-12.8-7.38-19.1-11.22A558.82,558.82,0,0,0,99,28.26,678,678,0,0,0,22.73.14c-3-.92-4.28,3.77-1.29,4.69A684,684,0,0,1,86.63,28.15c20.31,8.6,40.86,17.76,59.85,29,10.32,6.12,20.47,12.51,30.9,18.46,2.05,1.17,8.18,4,8.62,6.43.32,1.73-4.92,5.14-5.89,5.93q-4.34,3.54-8.69,7-31,24.81-63.6,47.62Q72,167.74,34.45,190.33l3.66,2.11A520.38,520.38,0,0,0,24.48,1.92c-.8-3-5.49-1.74-4.7,1.3Z"/><path class="cls-2" d="M21.25,2.49C15.66,4,9.81,7,4.83,10a4.51,4.51,0,0,0-2.31,2.36A4.73,4.73,0,0,0,3,15.23c22.13,59,15.77,124.32,9.1,187a43.44,43.44,0,0,0,25.1-11.31"/><path d="M20.59.11A68.18,68.18,0,0,0,8.27,5.2C5.66,6.57,1.62,8.09.39,11.08c-1.31,3.18,1,7,2,9.92C3.8,25,5.06,29,6.2,33.06a264.67,264.67,0,0,1,9,56.14c2.24,37.74-1.64,75.51-5.63,113-.19,1.78,1.72,2.57,3.12,2.38A49.23,49.23,0,0,0,38.9,192.62c2.4-2.08-1.1-5.55-3.49-3.48a44.93,44.93,0,0,1-24,10.68l3.12,2.37c3.7-34.8,7.29-69.79,6-104.84a298.37,298.37,0,0,0-5.76-49.87A227.42,227.42,0,0,0,8.33,23.12C7.61,20.91,6.39,18.55,6,16.27c-.52-2.78-.4-3.35,1.63-5.07,3.72-3.15,9.73-5,14.31-6.34,3-.89,1.74-5.65-1.31-4.75Z"/></svg>